G04 #@! TF.GenerationSoftware,KiCad,Pcbnew,5.1.9+dfsg1-1*
G04 #@! TF.CreationDate,2021-10-01T14:26:28-05:00*
G04 #@! TF.ProjectId,thornbox,74686f72-6e62-46f7-982e-6b696361645f,rev?*
G04 #@! TF.SameCoordinates,Original*
G04 #@! TF.FileFunction,Copper,L1,Top*
G04 #@! TF.FilePolarity,Positive*
%FSLAX46Y46*%
G04 Gerber Fmt 4.6, Leading zero omitted, Abs format (unit mm)*
G04 Created by KiCad (PCBNEW 5.1.9+dfsg1-1) date 2021-10-01 14:26:28*
%MOMM*%
%LPD*%
G01*
G04 APERTURE LIST*
G04 #@! TA.AperFunction,ComponentPad*
%ADD10O,1.600000X1.600000*%
G04 #@! TD*
G04 #@! TA.AperFunction,ComponentPad*
%ADD11R,1.600000X1.600000*%
G04 #@! TD*
G04 #@! TA.AperFunction,ComponentPad*
%ADD12O,1.700000X1.700000*%
G04 #@! TD*
G04 #@! TA.AperFunction,ComponentPad*
%ADD13R,1.700000X1.700000*%
G04 #@! TD*
G04 #@! TA.AperFunction,ComponentPad*
%ADD14O,1.750000X1.200000*%
G04 #@! TD*
G04 #@! TA.AperFunction,ComponentPad*
%ADD15C,1.800000*%
G04 #@! TD*
G04 #@! TA.AperFunction,ComponentPad*
%ADD16R,1.800000X1.800000*%
G04 #@! TD*
G04 #@! TA.AperFunction,ComponentPad*
%ADD17O,1.050000X2.100000*%
G04 #@! TD*
G04 #@! TA.AperFunction,ComponentPad*
%ADD18O,1.000000X2.000000*%
G04 #@! TD*
G04 #@! TA.AperFunction,ComponentPad*
%ADD19C,2.000000*%
G04 #@! TD*
G04 #@! TA.AperFunction,ComponentPad*
%ADD20C,2.032000*%
G04 #@! TD*
G04 #@! TA.AperFunction,Conductor*
%ADD21C,0.250000*%
G04 #@! TD*
G04 APERTURE END LIST*
D10*
X110380000Y-111500000D03*
X118000000Y-119120000D03*
X110380000Y-114040000D03*
X118000000Y-116580000D03*
X110380000Y-116580000D03*
X118000000Y-114040000D03*
X110380000Y-119120000D03*
D11*
X118000000Y-111500000D03*
D12*
X153040000Y-138000000D03*
D13*
X150500000Y-138000000D03*
D14*
X209000000Y-100500000D03*
X209000000Y-98500000D03*
X209000000Y-96500000D03*
X209000000Y-94500000D03*
G04 #@! TA.AperFunction,ComponentPad*
G36*
G01*
X208374999Y-91900000D02*
X209625001Y-91900000D01*
G75*
G02*
X209875000Y-92149999I0J-249999D01*
G01*
X209875000Y-92850001D01*
G75*
G02*
X209625001Y-93100000I-249999J0D01*
G01*
X208374999Y-93100000D01*
G75*
G02*
X208125000Y-92850001I0J249999D01*
G01*
X208125000Y-92149999D01*
G75*
G02*
X208374999Y-91900000I249999J0D01*
G01*
G37*
G04 #@! TD.AperFunction*
D12*
X153000000Y-144000000D03*
X150460000Y-144000000D03*
X147920000Y-144000000D03*
D13*
X145380000Y-144000000D03*
D15*
X223500000Y-28960000D03*
D16*
X223500000Y-31500000D03*
D15*
X211500000Y-28960000D03*
D16*
X211500000Y-31500000D03*
D15*
X199500000Y-28960000D03*
D16*
X199500000Y-31500000D03*
D15*
X188000000Y-28960000D03*
D16*
X188000000Y-31500000D03*
D17*
X157320000Y-32680000D03*
X148680000Y-32680000D03*
D18*
X157320000Y-28500000D03*
X148680000Y-28500000D03*
D19*
X65500000Y-33000000D03*
X65500000Y-37500000D03*
X59000000Y-33000000D03*
X59000000Y-37500000D03*
X75500000Y-33000000D03*
X75500000Y-37500000D03*
X69000000Y-33000000D03*
X69000000Y-37500000D03*
X115000000Y-33000000D03*
X115000000Y-37500000D03*
X108500000Y-33000000D03*
X108500000Y-37500000D03*
X125000000Y-33000000D03*
X125000000Y-37500000D03*
X118500000Y-33000000D03*
X118500000Y-37500000D03*
X85500000Y-33000000D03*
X85500000Y-37500000D03*
X79000000Y-33000000D03*
X79000000Y-37500000D03*
X105000000Y-33000000D03*
X105000000Y-37500000D03*
X98500000Y-33000000D03*
X98500000Y-37500000D03*
D12*
X171140000Y-94960000D03*
X171140000Y-97500000D03*
X173680000Y-94960000D03*
X173680000Y-97500000D03*
X176220000Y-94960000D03*
X176220000Y-97500000D03*
X178760000Y-94960000D03*
X178760000Y-97500000D03*
X181300000Y-94960000D03*
X181300000Y-97500000D03*
X183840000Y-94960000D03*
X183840000Y-97500000D03*
X186380000Y-94960000D03*
X186380000Y-97500000D03*
X188920000Y-94960000D03*
X188920000Y-97500000D03*
X191460000Y-94960000D03*
X191460000Y-97500000D03*
X194000000Y-94960000D03*
D13*
X194000000Y-97500000D03*
D14*
X225500000Y-99500000D03*
X225500000Y-97500000D03*
X225500000Y-95500000D03*
G04 #@! TA.AperFunction,ComponentPad*
G36*
G01*
X224874999Y-92900000D02*
X226125001Y-92900000D01*
G75*
G02*
X226375000Y-93149999I0J-249999D01*
G01*
X226375000Y-93850001D01*
G75*
G02*
X226125001Y-94100000I-249999J0D01*
G01*
X224874999Y-94100000D01*
G75*
G02*
X224625000Y-93850001I0J249999D01*
G01*
X224625000Y-93149999D01*
G75*
G02*
X224874999Y-92900000I249999J0D01*
G01*
G37*
G04 #@! TD.AperFunction*
D12*
X241500000Y-92880000D03*
X241500000Y-95420000D03*
X241500000Y-97960000D03*
D13*
X241500000Y-100500000D03*
D20*
X65000000Y-63400000D03*
X60000000Y-61300000D03*
X121000000Y-74400000D03*
X116000000Y-72300000D03*
X241000000Y-52400000D03*
X236000000Y-50300000D03*
X212000000Y-52400000D03*
X207000000Y-50300000D03*
X183000000Y-52400000D03*
X178000000Y-50300000D03*
X156000000Y-63400000D03*
X151000000Y-61300000D03*
X235000000Y-83400000D03*
X230000000Y-81300000D03*
X206000000Y-83400000D03*
X201000000Y-81300000D03*
X177000000Y-83400000D03*
X172000000Y-81300000D03*
X151000000Y-94400000D03*
X146000000Y-92300000D03*
X95000000Y-63400000D03*
X90000000Y-61300000D03*
X139000000Y-128400000D03*
X134000000Y-126300000D03*
D21*
X173680000Y-97500000D02*
X173680000Y-94960000D01*
X180224999Y-96035001D02*
X180450001Y-95809999D01*
X180450001Y-95809999D02*
X181300000Y-94960000D01*
X174755001Y-96035001D02*
X180224999Y-96035001D01*
X173680000Y-94960000D02*
X174755001Y-96035001D01*
X183000000Y-52400000D02*
X212000000Y-52400000D01*
X212000000Y-52400000D02*
X241000000Y-52400000D01*
X152015999Y-95415999D02*
X151000000Y-94400000D01*
X152635001Y-96035001D02*
X152015999Y-95415999D01*
X172604999Y-96035001D02*
X152635001Y-96035001D01*
X173680000Y-94960000D02*
X172604999Y-96035001D01*
X93800000Y-72300000D02*
X116000000Y-72300000D01*
X90000000Y-68500000D02*
X93800000Y-72300000D01*
X90000000Y-61300000D02*
X90000000Y-68500000D01*
X67200000Y-68500000D02*
X60000000Y-61300000D01*
X90000000Y-68500000D02*
X67200000Y-68500000D01*
X156000000Y-63400000D02*
X156000000Y-74000000D01*
X156000000Y-74000000D02*
X168000000Y-86000000D01*
X174400000Y-86000000D02*
X177000000Y-83400000D01*
X168000000Y-86000000D02*
X174400000Y-86000000D01*
X173015999Y-62384001D02*
X181984001Y-53415999D01*
X181984001Y-53415999D02*
X183000000Y-52400000D01*
X157015999Y-62384001D02*
X173015999Y-62384001D01*
X156000000Y-63400000D02*
X157015999Y-62384001D01*
X235380000Y-83780000D02*
X235000000Y-83400000D01*
X207436840Y-83400000D02*
X206000000Y-83400000D01*
X207525000Y-83400000D02*
X207436840Y-83400000D01*
X174400000Y-86000000D02*
X206000000Y-86000000D01*
X206000000Y-86000000D02*
X206000000Y-83400000D01*
X137060499Y-123239501D02*
X134000000Y-126300000D01*
X137060499Y-108339501D02*
X137060499Y-123239501D01*
X151000000Y-94400000D02*
X137060499Y-108339501D01*
X118000000Y-119120000D02*
X118000000Y-111500000D01*
X118000000Y-74300000D02*
X116000000Y-72300000D01*
X118000000Y-111500000D02*
X118000000Y-74300000D01*
X125180000Y-126300000D02*
X118000000Y-119120000D01*
X134000000Y-126300000D02*
X125180000Y-126300000D01*
X235000000Y-90000000D02*
X225500000Y-99500000D01*
X235000000Y-83400000D02*
X235000000Y-90000000D01*
X237880000Y-92880000D02*
X235000000Y-90000000D01*
X241500000Y-92880000D02*
X237880000Y-92880000D01*
X151440000Y-136400000D02*
X153040000Y-138000000D01*
X144100000Y-136400000D02*
X151440000Y-136400000D01*
X134000000Y-126300000D02*
X144100000Y-136400000D01*
X59000000Y-37500000D02*
X65500000Y-37500000D01*
X71700020Y-43700020D02*
X65500000Y-37500000D01*
X124210044Y-43700020D02*
X71700020Y-43700020D01*
X167710044Y-87200020D02*
X124210044Y-43700020D01*
X213758280Y-87200020D02*
X167710044Y-87200020D01*
X224883270Y-98325010D02*
X213758280Y-87200020D01*
X226116730Y-98325010D02*
X224883270Y-98325010D01*
X226600010Y-97841730D02*
X226116730Y-98325010D01*
X226600010Y-96600010D02*
X226600010Y-97841730D01*
X225500000Y-95500000D02*
X226600010Y-96600010D01*
X69000000Y-37500000D02*
X75500000Y-37500000D01*
X124355022Y-43350010D02*
X81350010Y-43350010D01*
X167855022Y-86850010D02*
X124355022Y-43350010D01*
X81350010Y-43350010D02*
X75500000Y-37500000D01*
X214850010Y-86850010D02*
X167855022Y-86850010D01*
X225500000Y-97500000D02*
X214850010Y-86850010D01*
X79000000Y-37500000D02*
X85500000Y-37500000D01*
X124500000Y-43000000D02*
X91000000Y-43000000D01*
X168000000Y-86500000D02*
X124500000Y-43000000D01*
X218500000Y-86500000D02*
X168000000Y-86500000D01*
X91000000Y-43000000D02*
X85500000Y-37500000D01*
X225500000Y-93500000D02*
X218500000Y-86500000D01*
X248350010Y-34350010D02*
X188145008Y-34350010D01*
X251500000Y-96500000D02*
X251500000Y-37500000D01*
X251500000Y-37500000D02*
X248350010Y-34350010D01*
X243000000Y-105000000D02*
X251500000Y-96500000D01*
X221500000Y-105000000D02*
X243000000Y-105000000D01*
X209000000Y-92500000D02*
X221500000Y-105000000D01*
X186874999Y-30085001D02*
X188000000Y-28960000D01*
X186874999Y-33080001D02*
X186874999Y-30085001D01*
X188145008Y-34350010D02*
X186874999Y-33080001D01*
X188000000Y-28960000D02*
X223500000Y-28960000D01*
X243055042Y-105449970D02*
X251949970Y-96555042D01*
X251949970Y-37449970D02*
X248500000Y-34000000D01*
X219949970Y-105449970D02*
X243055042Y-105449970D01*
X251949970Y-96555042D02*
X251949970Y-37449970D01*
X209000000Y-94500000D02*
X219949970Y-105449970D01*
X190500000Y-34000000D02*
X188000000Y-31500000D01*
X248500000Y-34000000D02*
X190500000Y-34000000D01*
X252299980Y-37299980D02*
X248600010Y-33600010D01*
X243200020Y-105799980D02*
X252299980Y-96700020D01*
X252299980Y-96700020D02*
X252299980Y-37299980D01*
X218299980Y-105799980D02*
X243200020Y-105799980D01*
X209000000Y-96500000D02*
X218299980Y-105799980D01*
X201600010Y-33600010D02*
X199500000Y-31500000D01*
X248600010Y-33600010D02*
X201600010Y-33600010D01*
X252649990Y-96850010D02*
X252649990Y-37149990D01*
X243350010Y-106149990D02*
X252649990Y-96850010D01*
X216649990Y-106149990D02*
X243350010Y-106149990D01*
X252649990Y-37149990D02*
X248750000Y-33250000D01*
X209000000Y-98500000D02*
X216649990Y-106149990D01*
X213250000Y-33250000D02*
X211500000Y-31500000D01*
X248750000Y-33250000D02*
X213250000Y-33250000D01*
X247500000Y-31500000D02*
X223500000Y-31500000D01*
X253000000Y-97000000D02*
X253000000Y-37000000D01*
X243500000Y-106500000D02*
X253000000Y-97000000D01*
X253000000Y-37000000D02*
X247500000Y-31500000D01*
X214150000Y-106500000D02*
X243500000Y-106500000D01*
X209000000Y-101350000D02*
X214150000Y-106500000D01*
X209000000Y-100500000D02*
X209000000Y-101350000D01*
X151924999Y-142924999D02*
X133162985Y-142924999D01*
X153000000Y-144000000D02*
X151924999Y-142924999D01*
X110380000Y-120142014D02*
X110380000Y-119120000D01*
X133162985Y-142924999D02*
X110380000Y-120142014D01*
X109354999Y-117605001D02*
X110380000Y-116580000D01*
X109354999Y-119612001D02*
X109354999Y-117605001D01*
X133742998Y-144000000D02*
X109354999Y-119612001D01*
X145380000Y-144000000D02*
X133742998Y-144000000D01*
X109914213Y-37500000D02*
X115000000Y-37500000D01*
X108500000Y-37500000D02*
X109914213Y-37500000D01*
X99914213Y-37500000D02*
X105000000Y-37500000D01*
X98500000Y-37500000D02*
X99914213Y-37500000D01*
X119914213Y-37500000D02*
X125000000Y-37500000D01*
X118500000Y-37500000D02*
X119914213Y-37500000D01*
X111402998Y-114040000D02*
X110380000Y-114040000D01*
X135362998Y-138000000D02*
X111402998Y-114040000D01*
X150500000Y-138000000D02*
X135362998Y-138000000D01*
X59000000Y-33000000D02*
X85500000Y-33000000D01*
X85500000Y-33000000D02*
X125000000Y-33000000D01*
X110380000Y-87380000D02*
X110380000Y-111500000D01*
X100000000Y-77000000D02*
X110380000Y-87380000D01*
X73863318Y-77000000D02*
X100000000Y-77000000D01*
X53000000Y-39000000D02*
X53000000Y-56136682D01*
X53000000Y-56136682D02*
X73863318Y-77000000D01*
X59000000Y-33000000D02*
X53000000Y-39000000D01*
M02*
