G04 #@! TF.GenerationSoftware,KiCad,Pcbnew,5.1.9+dfsg1-1*
G04 #@! TF.CreationDate,2021-10-01T14:26:28-05:00*
G04 #@! TF.ProjectId,thornbox,74686f72-6e62-46f7-982e-6b696361645f,rev?*
G04 #@! TF.SameCoordinates,Original*
G04 #@! TF.FileFunction,Legend,Bot*
G04 #@! TF.FilePolarity,Positive*
%FSLAX46Y46*%
G04 Gerber Fmt 4.6, Leading zero omitted, Abs format (unit mm)*
G04 Created by KiCad (PCBNEW 5.1.9+dfsg1-1) date 2021-10-01 14:26:28*
%MOMM*%
%LPD*%
G01*
G04 APERTURE LIST*
%ADD10C,0.010000*%
%ADD11C,0.120000*%
%ADD12C,0.200000*%
%ADD13C,0.150000*%
G04 APERTURE END LIST*
D10*
G36*
X103109343Y-108746229D02*
G01*
X102993023Y-108790618D01*
X102944900Y-108836086D01*
X102887866Y-108946091D01*
X102898361Y-109038982D01*
X102979850Y-109143020D01*
X102982909Y-109146090D01*
X103087606Y-109229449D01*
X103180429Y-109241723D01*
X103289642Y-109186380D01*
X103292914Y-109184099D01*
X103361298Y-109092796D01*
X103388556Y-108967357D01*
X103370394Y-108846588D01*
X103336200Y-108792799D01*
X103236671Y-108745525D01*
X103109343Y-108746229D01*
G37*
X103109343Y-108746229D02*
X102993023Y-108790618D01*
X102944900Y-108836086D01*
X102887866Y-108946091D01*
X102898361Y-109038982D01*
X102979850Y-109143020D01*
X102982909Y-109146090D01*
X103087606Y-109229449D01*
X103180429Y-109241723D01*
X103289642Y-109186380D01*
X103292914Y-109184099D01*
X103361298Y-109092796D01*
X103388556Y-108967357D01*
X103370394Y-108846588D01*
X103336200Y-108792799D01*
X103236671Y-108745525D01*
X103109343Y-108746229D01*
G36*
X68504333Y-108742000D02*
G01*
X67996333Y-108742000D01*
X67996333Y-108996000D01*
X68251528Y-108995999D01*
X68506722Y-108995999D01*
X68494944Y-109578083D01*
X68483166Y-110160166D01*
X68250333Y-110181333D01*
X68116200Y-110196963D01*
X68044682Y-110220620D01*
X68013834Y-110264564D01*
X68004105Y-110318916D01*
X67990709Y-110435333D01*
X68266327Y-110435333D01*
X68430456Y-110429769D01*
X68539991Y-110407964D01*
X68624571Y-110362249D01*
X68660723Y-110333267D01*
X68706899Y-110291458D01*
X68739541Y-110248655D01*
X68761393Y-110189946D01*
X68775200Y-110100420D01*
X68783706Y-109965168D01*
X68789657Y-109769277D01*
X68793206Y-109613600D01*
X68806913Y-108996000D01*
X68994290Y-108996000D01*
X69110194Y-108992153D01*
X69164625Y-108970151D01*
X69180741Y-108914297D01*
X69181666Y-108869000D01*
X69176144Y-108790905D01*
X69144259Y-108753917D01*
X69063035Y-108742717D01*
X68991166Y-108742000D01*
X68800666Y-108742000D01*
X68800666Y-108107000D01*
X68504333Y-108107000D01*
X68504333Y-108742000D01*
G37*
X68504333Y-108742000D02*
X67996333Y-108742000D01*
X67996333Y-108996000D01*
X68251528Y-108995999D01*
X68506722Y-108995999D01*
X68494944Y-109578083D01*
X68483166Y-110160166D01*
X68250333Y-110181333D01*
X68116200Y-110196963D01*
X68044682Y-110220620D01*
X68013834Y-110264564D01*
X68004105Y-110318916D01*
X67990709Y-110435333D01*
X68266327Y-110435333D01*
X68430456Y-110429769D01*
X68539991Y-110407964D01*
X68624571Y-110362249D01*
X68660723Y-110333267D01*
X68706899Y-110291458D01*
X68739541Y-110248655D01*
X68761393Y-110189946D01*
X68775200Y-110100420D01*
X68783706Y-109965168D01*
X68789657Y-109769277D01*
X68793206Y-109613600D01*
X68806913Y-108996000D01*
X68994290Y-108996000D01*
X69110194Y-108992153D01*
X69164625Y-108970151D01*
X69180741Y-108914297D01*
X69181666Y-108869000D01*
X69176144Y-108790905D01*
X69144259Y-108753917D01*
X69063035Y-108742717D01*
X68991166Y-108742000D01*
X68800666Y-108742000D01*
X68800666Y-108107000D01*
X68504333Y-108107000D01*
X68504333Y-108742000D01*
G36*
X74427968Y-109525166D02*
G01*
X74059067Y-109130193D01*
X73905428Y-108967236D01*
X73795370Y-108857122D01*
X73715449Y-108790108D01*
X73652224Y-108756450D01*
X73592253Y-108746406D01*
X73533402Y-108749193D01*
X73376637Y-108763166D01*
X73712815Y-109138440D01*
X73845599Y-109293039D01*
X73947171Y-109423923D01*
X74008201Y-109518257D01*
X74020493Y-109561774D01*
X73985034Y-109612775D01*
X73909470Y-109716250D01*
X73804855Y-109857206D01*
X73682240Y-110020650D01*
X73680783Y-110022583D01*
X73369573Y-110435333D01*
X73536655Y-110435333D01*
X73613485Y-110431868D01*
X73675402Y-110413360D01*
X73737037Y-110367633D01*
X73813021Y-110282515D01*
X73917983Y-110145833D01*
X73972048Y-110073067D01*
X74240357Y-109710800D01*
X74335468Y-109829650D01*
X74396137Y-109930349D01*
X74424921Y-110055655D01*
X74430790Y-110191916D01*
X74432792Y-110328806D01*
X74445599Y-110401414D01*
X74479863Y-110430124D01*
X74546237Y-110435321D01*
X74558000Y-110435333D01*
X74685000Y-110435333D01*
X74685000Y-108107000D01*
X74431000Y-108107000D01*
X74427968Y-109525166D01*
G37*
X74427968Y-109525166D02*
X74059067Y-109130193D01*
X73905428Y-108967236D01*
X73795370Y-108857122D01*
X73715449Y-108790108D01*
X73652224Y-108756450D01*
X73592253Y-108746406D01*
X73533402Y-108749193D01*
X73376637Y-108763166D01*
X73712815Y-109138440D01*
X73845599Y-109293039D01*
X73947171Y-109423923D01*
X74008201Y-109518257D01*
X74020493Y-109561774D01*
X73985034Y-109612775D01*
X73909470Y-109716250D01*
X73804855Y-109857206D01*
X73682240Y-110020650D01*
X73680783Y-110022583D01*
X73369573Y-110435333D01*
X73536655Y-110435333D01*
X73613485Y-110431868D01*
X73675402Y-110413360D01*
X73737037Y-110367633D01*
X73813021Y-110282515D01*
X73917983Y-110145833D01*
X73972048Y-110073067D01*
X74240357Y-109710800D01*
X74335468Y-109829650D01*
X74396137Y-109930349D01*
X74424921Y-110055655D01*
X74430790Y-110191916D01*
X74432792Y-110328806D01*
X74445599Y-110401414D01*
X74479863Y-110430124D01*
X74546237Y-110435321D01*
X74558000Y-110435333D01*
X74685000Y-110435333D01*
X74685000Y-108107000D01*
X74431000Y-108107000D01*
X74427968Y-109525166D01*
G36*
X80061333Y-110178560D02*
G01*
X79108833Y-110202500D01*
X79095438Y-110318916D01*
X79082043Y-110435333D01*
X80357666Y-110435333D01*
X80357666Y-108107000D01*
X80061333Y-108107000D01*
X80061333Y-110178560D01*
G37*
X80061333Y-110178560D02*
X79108833Y-110202500D01*
X79095438Y-110318916D01*
X79082043Y-110435333D01*
X80357666Y-110435333D01*
X80357666Y-108107000D01*
X80061333Y-108107000D01*
X80061333Y-110178560D01*
G36*
X82813000Y-108742000D02*
G01*
X82305000Y-108742000D01*
X82305000Y-108996000D01*
X82560194Y-108995999D01*
X82815389Y-108995999D01*
X82803611Y-109578083D01*
X82791833Y-110160166D01*
X82548416Y-110172862D01*
X82411536Y-110182202D01*
X82338905Y-110199552D01*
X82310176Y-110236411D01*
X82305005Y-110304278D01*
X82305000Y-110310445D01*
X82305000Y-110435333D01*
X82582091Y-110435333D01*
X82741917Y-110430679D01*
X82845163Y-110411660D01*
X82919644Y-110370691D01*
X82963091Y-110331424D01*
X83003611Y-110287398D01*
X83031944Y-110239947D01*
X83050266Y-110173993D01*
X83060756Y-110074456D01*
X83065590Y-109926259D01*
X83066944Y-109714322D01*
X83067000Y-109611757D01*
X83067000Y-108996000D01*
X83278666Y-108996000D01*
X83403968Y-108993225D01*
X83466451Y-108976165D01*
X83487956Y-108931715D01*
X83490333Y-108869000D01*
X83485709Y-108793819D01*
X83457275Y-108756329D01*
X83383193Y-108743426D01*
X83278666Y-108742000D01*
X83067000Y-108742000D01*
X83067000Y-108107000D01*
X82813000Y-108107000D01*
X82813000Y-108742000D01*
G37*
X82813000Y-108742000D02*
X82305000Y-108742000D01*
X82305000Y-108996000D01*
X82560194Y-108995999D01*
X82815389Y-108995999D01*
X82803611Y-109578083D01*
X82791833Y-110160166D01*
X82548416Y-110172862D01*
X82411536Y-110182202D01*
X82338905Y-110199552D01*
X82310176Y-110236411D01*
X82305005Y-110304278D01*
X82305000Y-110310445D01*
X82305000Y-110435333D01*
X82582091Y-110435333D01*
X82741917Y-110430679D01*
X82845163Y-110411660D01*
X82919644Y-110370691D01*
X82963091Y-110331424D01*
X83003611Y-110287398D01*
X83031944Y-110239947D01*
X83050266Y-110173993D01*
X83060756Y-110074456D01*
X83065590Y-109926259D01*
X83066944Y-109714322D01*
X83067000Y-109611757D01*
X83067000Y-108996000D01*
X83278666Y-108996000D01*
X83403968Y-108993225D01*
X83466451Y-108976165D01*
X83487956Y-108931715D01*
X83490333Y-108869000D01*
X83485709Y-108793819D01*
X83457275Y-108756329D01*
X83383193Y-108743426D01*
X83278666Y-108742000D01*
X83067000Y-108742000D01*
X83067000Y-108107000D01*
X82813000Y-108107000D01*
X82813000Y-108742000D01*
G36*
X85011366Y-108751370D02*
G01*
X84976880Y-108797069D01*
X84971059Y-108879583D01*
X84967926Y-108970799D01*
X84950642Y-108986631D01*
X84904666Y-108936357D01*
X84896975Y-108926871D01*
X84755488Y-108805022D01*
X84573872Y-108748257D01*
X84468775Y-108742000D01*
X84259264Y-108768926D01*
X84100613Y-108855517D01*
X83986825Y-108992685D01*
X83950008Y-109059552D01*
X83923486Y-109133253D01*
X83905090Y-109229599D01*
X83892651Y-109364401D01*
X83884002Y-109553469D01*
X83877508Y-109789750D01*
X83862286Y-110435333D01*
X84167666Y-110435333D01*
X84167666Y-109866589D01*
X84170735Y-109645844D01*
X84179125Y-109447282D01*
X84191616Y-109290635D01*
X84206986Y-109195634D01*
X84209731Y-109187208D01*
X84294666Y-109073478D01*
X84432466Y-109002544D01*
X84598036Y-108984179D01*
X84691029Y-108999799D01*
X84791887Y-109038019D01*
X84865846Y-109096917D01*
X84916860Y-109188626D01*
X84948885Y-109325278D01*
X84965877Y-109519009D01*
X84971789Y-109781950D01*
X84972000Y-109861731D01*
X84972000Y-110435333D01*
X85226000Y-110435333D01*
X85226000Y-108742000D01*
X85099000Y-108742000D01*
X85011366Y-108751370D01*
G37*
X85011366Y-108751370D02*
X84976880Y-108797069D01*
X84971059Y-108879583D01*
X84967926Y-108970799D01*
X84950642Y-108986631D01*
X84904666Y-108936357D01*
X84896975Y-108926871D01*
X84755488Y-108805022D01*
X84573872Y-108748257D01*
X84468775Y-108742000D01*
X84259264Y-108768926D01*
X84100613Y-108855517D01*
X83986825Y-108992685D01*
X83950008Y-109059552D01*
X83923486Y-109133253D01*
X83905090Y-109229599D01*
X83892651Y-109364401D01*
X83884002Y-109553469D01*
X83877508Y-109789750D01*
X83862286Y-110435333D01*
X84167666Y-110435333D01*
X84167666Y-109866589D01*
X84170735Y-109645844D01*
X84179125Y-109447282D01*
X84191616Y-109290635D01*
X84206986Y-109195634D01*
X84209731Y-109187208D01*
X84294666Y-109073478D01*
X84432466Y-109002544D01*
X84598036Y-108984179D01*
X84691029Y-108999799D01*
X84791887Y-109038019D01*
X84865846Y-109096917D01*
X84916860Y-109188626D01*
X84948885Y-109325278D01*
X84965877Y-109519009D01*
X84971789Y-109781950D01*
X84972000Y-109861731D01*
X84972000Y-110435333D01*
X85226000Y-110435333D01*
X85226000Y-108742000D01*
X85099000Y-108742000D01*
X85011366Y-108751370D01*
G36*
X87967244Y-108765765D02*
G01*
X87854510Y-108843741D01*
X87791793Y-108927628D01*
X87745629Y-109035201D01*
X87713815Y-109179381D01*
X87694145Y-109373090D01*
X87684418Y-109629249D01*
X87682343Y-109853250D01*
X87681333Y-110435333D01*
X87977666Y-110435333D01*
X87977666Y-109787257D01*
X87979425Y-109515806D01*
X87986756Y-109316518D01*
X88002739Y-109176929D01*
X88030455Y-109084572D01*
X88072985Y-109026982D01*
X88133410Y-108991692D01*
X88178045Y-108976478D01*
X88271599Y-108977501D01*
X88370199Y-109046167D01*
X88379128Y-109054946D01*
X88420042Y-109098864D01*
X88448862Y-109145136D01*
X88467705Y-109208540D01*
X88478690Y-109303856D01*
X88483933Y-109445860D01*
X88485553Y-109649332D01*
X88485666Y-109798409D01*
X88485666Y-110435333D01*
X88733707Y-110435333D01*
X88747270Y-109775331D01*
X88752968Y-109524963D01*
X88759569Y-109345272D01*
X88769234Y-109222276D01*
X88784127Y-109141994D01*
X88806408Y-109090446D01*
X88838241Y-109053650D01*
X88861983Y-109033517D01*
X88988200Y-108977018D01*
X89112890Y-109001120D01*
X89194750Y-109071865D01*
X89218020Y-109136448D01*
X89234278Y-109265860D01*
X89243990Y-109466376D01*
X89247617Y-109744271D01*
X89247666Y-109787257D01*
X89247666Y-110435333D01*
X89544000Y-110435333D01*
X89544000Y-108742000D01*
X89395833Y-108742000D01*
X89293714Y-108751470D01*
X89252510Y-108788444D01*
X89247666Y-108826666D01*
X89247666Y-108911333D01*
X89163000Y-108826666D01*
X89034380Y-108752679D01*
X88877807Y-108739301D01*
X88722463Y-108784658D01*
X88619068Y-108861566D01*
X88506833Y-108981132D01*
X88408363Y-108861566D01*
X88280812Y-108767045D01*
X88124053Y-108734799D01*
X87967244Y-108765765D01*
G37*
X87967244Y-108765765D02*
X87854510Y-108843741D01*
X87791793Y-108927628D01*
X87745629Y-109035201D01*
X87713815Y-109179381D01*
X87694145Y-109373090D01*
X87684418Y-109629249D01*
X87682343Y-109853250D01*
X87681333Y-110435333D01*
X87977666Y-110435333D01*
X87977666Y-109787257D01*
X87979425Y-109515806D01*
X87986756Y-109316518D01*
X88002739Y-109176929D01*
X88030455Y-109084572D01*
X88072985Y-109026982D01*
X88133410Y-108991692D01*
X88178045Y-108976478D01*
X88271599Y-108977501D01*
X88370199Y-109046167D01*
X88379128Y-109054946D01*
X88420042Y-109098864D01*
X88448862Y-109145136D01*
X88467705Y-109208540D01*
X88478690Y-109303856D01*
X88483933Y-109445860D01*
X88485553Y-109649332D01*
X88485666Y-109798409D01*
X88485666Y-110435333D01*
X88733707Y-110435333D01*
X88747270Y-109775331D01*
X88752968Y-109524963D01*
X88759569Y-109345272D01*
X88769234Y-109222276D01*
X88784127Y-109141994D01*
X88806408Y-109090446D01*
X88838241Y-109053650D01*
X88861983Y-109033517D01*
X88988200Y-108977018D01*
X89112890Y-109001120D01*
X89194750Y-109071865D01*
X89218020Y-109136448D01*
X89234278Y-109265860D01*
X89243990Y-109466376D01*
X89247617Y-109744271D01*
X89247666Y-109787257D01*
X89247666Y-110435333D01*
X89544000Y-110435333D01*
X89544000Y-108742000D01*
X89395833Y-108742000D01*
X89293714Y-108751470D01*
X89252510Y-108788444D01*
X89247666Y-108826666D01*
X89247666Y-108911333D01*
X89163000Y-108826666D01*
X89034380Y-108752679D01*
X88877807Y-108739301D01*
X88722463Y-108784658D01*
X88619068Y-108861566D01*
X88506833Y-108981132D01*
X88408363Y-108861566D01*
X88280812Y-108767045D01*
X88124053Y-108734799D01*
X87967244Y-108765765D01*
G36*
X93106223Y-108749181D02*
G01*
X93065369Y-108784979D01*
X93057666Y-108865743D01*
X93057666Y-108989487D01*
X92933923Y-108865743D01*
X92846032Y-108790828D01*
X92754647Y-108753859D01*
X92624056Y-108742358D01*
X92579799Y-108742000D01*
X92404842Y-108755303D01*
X92280808Y-108800417D01*
X92237030Y-108830404D01*
X92151380Y-108906283D01*
X92088890Y-108988713D01*
X92046020Y-109092112D01*
X92019228Y-109230900D01*
X92004972Y-109419495D01*
X91999712Y-109672316D01*
X91999333Y-109798231D01*
X91999333Y-110435333D01*
X92253333Y-110435333D01*
X92253333Y-109883640D01*
X92257789Y-109592910D01*
X92273460Y-109375078D01*
X92303805Y-109218730D01*
X92352280Y-109112453D01*
X92422342Y-109044833D01*
X92517450Y-109004459D01*
X92519858Y-109003788D01*
X92720586Y-108980202D01*
X92882211Y-109030104D01*
X92973952Y-109112659D01*
X93007302Y-109163288D01*
X93030499Y-109226155D01*
X93045336Y-109316559D01*
X93053606Y-109449800D01*
X93057101Y-109641179D01*
X93057666Y-109827209D01*
X93057666Y-110435333D01*
X93354000Y-110435333D01*
X93354000Y-108742000D01*
X93205833Y-108742000D01*
X93106223Y-108749181D01*
G37*
X93106223Y-108749181D02*
X93065369Y-108784979D01*
X93057666Y-108865743D01*
X93057666Y-108989487D01*
X92933923Y-108865743D01*
X92846032Y-108790828D01*
X92754647Y-108753859D01*
X92624056Y-108742358D01*
X92579799Y-108742000D01*
X92404842Y-108755303D01*
X92280808Y-108800417D01*
X92237030Y-108830404D01*
X92151380Y-108906283D01*
X92088890Y-108988713D01*
X92046020Y-109092112D01*
X92019228Y-109230900D01*
X92004972Y-109419495D01*
X91999712Y-109672316D01*
X91999333Y-109798231D01*
X91999333Y-110435333D01*
X92253333Y-110435333D01*
X92253333Y-109883640D01*
X92257789Y-109592910D01*
X92273460Y-109375078D01*
X92303805Y-109218730D01*
X92352280Y-109112453D01*
X92422342Y-109044833D01*
X92517450Y-109004459D01*
X92519858Y-109003788D01*
X92720586Y-108980202D01*
X92882211Y-109030104D01*
X92973952Y-109112659D01*
X93007302Y-109163288D01*
X93030499Y-109226155D01*
X93045336Y-109316559D01*
X93053606Y-109449800D01*
X93057101Y-109641179D01*
X93057666Y-109827209D01*
X93057666Y-110435333D01*
X93354000Y-110435333D01*
X93354000Y-108742000D01*
X93205833Y-108742000D01*
X93106223Y-108749181D01*
G36*
X94528750Y-108749901D02*
G01*
X94436513Y-108767725D01*
X94394486Y-108815376D01*
X94378219Y-108918714D01*
X94365271Y-109074262D01*
X94230052Y-108929183D01*
X94109891Y-108828331D01*
X93983780Y-108764582D01*
X93957250Y-108757760D01*
X93863593Y-108745971D01*
X93826348Y-108773250D01*
X93819667Y-108858617D01*
X93819666Y-108858997D01*
X93829890Y-108945906D01*
X93877069Y-108990458D01*
X93974203Y-109015568D01*
X94109201Y-109066363D01*
X94235984Y-109152483D01*
X94249369Y-109165190D01*
X94370000Y-109285820D01*
X94370000Y-110435333D01*
X94666333Y-110435333D01*
X94666333Y-108736635D01*
X94528750Y-108749901D01*
G37*
X94528750Y-108749901D02*
X94436513Y-108767725D01*
X94394486Y-108815376D01*
X94378219Y-108918714D01*
X94365271Y-109074262D01*
X94230052Y-108929183D01*
X94109891Y-108828331D01*
X93983780Y-108764582D01*
X93957250Y-108757760D01*
X93863593Y-108745971D01*
X93826348Y-108773250D01*
X93819667Y-108858617D01*
X93819666Y-108858997D01*
X93829890Y-108945906D01*
X93877069Y-108990458D01*
X93974203Y-109015568D01*
X94109201Y-109066363D01*
X94235984Y-109152483D01*
X94249369Y-109165190D01*
X94370000Y-109285820D01*
X94370000Y-110435333D01*
X94666333Y-110435333D01*
X94666333Y-108736635D01*
X94528750Y-108749901D01*
G36*
X99111333Y-108361000D02*
G01*
X99661666Y-108361000D01*
X99661666Y-110435333D01*
X99958000Y-110435333D01*
X99958000Y-108364868D01*
X100243750Y-108352350D01*
X100395429Y-108343854D01*
X100482176Y-108329413D01*
X100523690Y-108300537D01*
X100539667Y-108248738D01*
X100542895Y-108223416D01*
X100556290Y-108107000D01*
X99111333Y-108107000D01*
X99111333Y-108361000D01*
G37*
X99111333Y-108361000D02*
X99661666Y-108361000D01*
X99661666Y-110435333D01*
X99958000Y-110435333D01*
X99958000Y-108364868D01*
X100243750Y-108352350D01*
X100395429Y-108343854D01*
X100482176Y-108329413D01*
X100523690Y-108300537D01*
X100539667Y-108248738D01*
X100542895Y-108223416D01*
X100556290Y-108107000D01*
X99111333Y-108107000D01*
X99111333Y-108361000D01*
G36*
X104826333Y-110435333D02*
G01*
X105080333Y-110435333D01*
X105080333Y-109440500D01*
X105081341Y-109160428D01*
X105084170Y-108910862D01*
X105088529Y-108703493D01*
X105094126Y-108550012D01*
X105100668Y-108462111D01*
X105105163Y-108445666D01*
X105150593Y-108468419D01*
X105241150Y-108526977D01*
X105318128Y-108580775D01*
X105506264Y-108715884D01*
X105684098Y-108538050D01*
X105392799Y-108323163D01*
X105210066Y-108198623D01*
X105071161Y-108129101D01*
X104963916Y-108107638D01*
X104826333Y-108107000D01*
X104826333Y-110435333D01*
G37*
X104826333Y-110435333D02*
X105080333Y-110435333D01*
X105080333Y-109440500D01*
X105081341Y-109160428D01*
X105084170Y-108910862D01*
X105088529Y-108703493D01*
X105094126Y-108550012D01*
X105100668Y-108462111D01*
X105105163Y-108445666D01*
X105150593Y-108468419D01*
X105241150Y-108526977D01*
X105318128Y-108580775D01*
X105506264Y-108715884D01*
X105684098Y-108538050D01*
X105392799Y-108323163D01*
X105210066Y-108198623D01*
X105071161Y-108129101D01*
X104963916Y-108107638D01*
X104826333Y-108107000D01*
X104826333Y-110435333D01*
G36*
X70663333Y-109332674D02*
G01*
X70659909Y-109574396D01*
X70650370Y-109781047D01*
X70635816Y-109936383D01*
X70617348Y-110024160D01*
X70616332Y-110026506D01*
X70522859Y-110138498D01*
X70380985Y-110206092D01*
X70218578Y-110221641D01*
X70064300Y-110177925D01*
X69985713Y-110114026D01*
X69928416Y-110011550D01*
X69889907Y-109859725D01*
X69867687Y-109647782D01*
X69859253Y-109364948D01*
X69859000Y-109293693D01*
X69859000Y-108742000D01*
X69605000Y-108742000D01*
X69605000Y-110435333D01*
X69732000Y-110435333D01*
X69819790Y-110425939D01*
X69853865Y-110380120D01*
X69859000Y-110298913D01*
X69859000Y-110162494D01*
X69928032Y-110261052D01*
X70035448Y-110359502D01*
X70187553Y-110437197D01*
X70344385Y-110474970D01*
X70376223Y-110476009D01*
X70484837Y-110457571D01*
X70599833Y-110418293D01*
X70722793Y-110349523D01*
X70815405Y-110258538D01*
X70881506Y-110133711D01*
X70924935Y-109963416D01*
X70949532Y-109736025D01*
X70959134Y-109439911D01*
X70959666Y-109328349D01*
X70959666Y-108742000D01*
X70663333Y-108742000D01*
X70663333Y-109332674D01*
G37*
X70663333Y-109332674D02*
X70659909Y-109574396D01*
X70650370Y-109781047D01*
X70635816Y-109936383D01*
X70617348Y-110024160D01*
X70616332Y-110026506D01*
X70522859Y-110138498D01*
X70380985Y-110206092D01*
X70218578Y-110221641D01*
X70064300Y-110177925D01*
X69985713Y-110114026D01*
X69928416Y-110011550D01*
X69889907Y-109859725D01*
X69867687Y-109647782D01*
X69859253Y-109364948D01*
X69859000Y-109293693D01*
X69859000Y-108742000D01*
X69605000Y-108742000D01*
X69605000Y-110435333D01*
X69732000Y-110435333D01*
X69819790Y-110425939D01*
X69853865Y-110380120D01*
X69859000Y-110298913D01*
X69859000Y-110162494D01*
X69928032Y-110261052D01*
X70035448Y-110359502D01*
X70187553Y-110437197D01*
X70344385Y-110474970D01*
X70376223Y-110476009D01*
X70484837Y-110457571D01*
X70599833Y-110418293D01*
X70722793Y-110349523D01*
X70815405Y-110258538D01*
X70881506Y-110133711D01*
X70924935Y-109963416D01*
X70949532Y-109736025D01*
X70959134Y-109439911D01*
X70959666Y-109328349D01*
X70959666Y-108742000D01*
X70663333Y-108742000D01*
X70663333Y-109332674D01*
G36*
X71898893Y-108774490D02*
G01*
X71771703Y-108825591D01*
X71626509Y-108956224D01*
X71530336Y-109139254D01*
X71480646Y-109381925D01*
X71474211Y-109674951D01*
X71491576Y-109903576D01*
X71529172Y-110070559D01*
X71596610Y-110198258D01*
X71703503Y-110309029D01*
X71769106Y-110360857D01*
X71922456Y-110431748D01*
X72118932Y-110462681D01*
X72326194Y-110452082D01*
X72511900Y-110398377D01*
X72514542Y-110397148D01*
X72656382Y-110315317D01*
X72755523Y-110214544D01*
X72818717Y-110079351D01*
X72852721Y-109894261D01*
X72861779Y-109698107D01*
X72607152Y-109698107D01*
X72592619Y-109873895D01*
X72560986Y-110001136D01*
X72556291Y-110011165D01*
X72449177Y-110138712D01*
X72300550Y-110209018D01*
X72134020Y-110218949D01*
X71973196Y-110165370D01*
X71887743Y-110099923D01*
X71827691Y-110034691D01*
X71791049Y-109971165D01*
X71772062Y-109886569D01*
X71764973Y-109758129D01*
X71764000Y-109610306D01*
X71769729Y-109388746D01*
X71791410Y-109234399D01*
X71835784Y-109130313D01*
X71909594Y-109059536D01*
X72001789Y-109012367D01*
X72181126Y-108973120D01*
X72348518Y-108999889D01*
X72482918Y-109085948D01*
X72550369Y-109187634D01*
X72585805Y-109324160D01*
X72604807Y-109504590D01*
X72607152Y-109698107D01*
X72861779Y-109698107D01*
X72864288Y-109643794D01*
X72864508Y-109595198D01*
X72859082Y-109352476D01*
X72838530Y-109175457D01*
X72796742Y-109045656D01*
X72727613Y-108944592D01*
X72625032Y-108853781D01*
X72617677Y-108848252D01*
X72478039Y-108784349D01*
X72290544Y-108750187D01*
X72086920Y-108746618D01*
X71898893Y-108774490D01*
G37*
X71898893Y-108774490D02*
X71771703Y-108825591D01*
X71626509Y-108956224D01*
X71530336Y-109139254D01*
X71480646Y-109381925D01*
X71474211Y-109674951D01*
X71491576Y-109903576D01*
X71529172Y-110070559D01*
X71596610Y-110198258D01*
X71703503Y-110309029D01*
X71769106Y-110360857D01*
X71922456Y-110431748D01*
X72118932Y-110462681D01*
X72326194Y-110452082D01*
X72511900Y-110398377D01*
X72514542Y-110397148D01*
X72656382Y-110315317D01*
X72755523Y-110214544D01*
X72818717Y-110079351D01*
X72852721Y-109894261D01*
X72861779Y-109698107D01*
X72607152Y-109698107D01*
X72592619Y-109873895D01*
X72560986Y-110001136D01*
X72556291Y-110011165D01*
X72449177Y-110138712D01*
X72300550Y-110209018D01*
X72134020Y-110218949D01*
X71973196Y-110165370D01*
X71887743Y-110099923D01*
X71827691Y-110034691D01*
X71791049Y-109971165D01*
X71772062Y-109886569D01*
X71764973Y-109758129D01*
X71764000Y-109610306D01*
X71769729Y-109388746D01*
X71791410Y-109234399D01*
X71835784Y-109130313D01*
X71909594Y-109059536D01*
X72001789Y-109012367D01*
X72181126Y-108973120D01*
X72348518Y-108999889D01*
X72482918Y-109085948D01*
X72550369Y-109187634D01*
X72585805Y-109324160D01*
X72604807Y-109504590D01*
X72607152Y-109698107D01*
X72861779Y-109698107D01*
X72864288Y-109643794D01*
X72864508Y-109595198D01*
X72859082Y-109352476D01*
X72838530Y-109175457D01*
X72796742Y-109045656D01*
X72727613Y-108944592D01*
X72625032Y-108853781D01*
X72617677Y-108848252D01*
X72478039Y-108784349D01*
X72290544Y-108750187D01*
X72086920Y-108746618D01*
X71898893Y-108774490D01*
G36*
X75760023Y-108766433D02*
G01*
X75637067Y-108802952D01*
X75504503Y-108892301D01*
X75394335Y-109025858D01*
X75329003Y-109172714D01*
X75320158Y-109239416D01*
X75337546Y-109309659D01*
X75405931Y-109333643D01*
X75439360Y-109334666D01*
X75533245Y-109315437D01*
X75597036Y-109242874D01*
X75619277Y-109197083D01*
X75715134Y-109072811D01*
X75855247Y-108999727D01*
X76015978Y-108978594D01*
X76173688Y-109010174D01*
X76304740Y-109095231D01*
X76361203Y-109173139D01*
X76397938Y-109275017D01*
X76415472Y-109412730D01*
X76416129Y-109607697D01*
X76414187Y-109661667D01*
X76404724Y-109839626D01*
X76389824Y-109955140D01*
X76363041Y-110030425D01*
X76317925Y-110087698D01*
X76280722Y-110121499D01*
X76118259Y-110210920D01*
X75942382Y-110224070D01*
X75774554Y-110161744D01*
X75697743Y-110099923D01*
X75619347Y-110006321D01*
X75576634Y-109925747D01*
X75574000Y-109909423D01*
X75542230Y-109858493D01*
X75441461Y-109842666D01*
X75355333Y-109848019D01*
X75323593Y-109880667D01*
X75328971Y-109965491D01*
X75334038Y-109997441D01*
X75403302Y-110180531D01*
X75536289Y-110325029D01*
X75718200Y-110424003D01*
X75934236Y-110470523D01*
X76169595Y-110457656D01*
X76266465Y-110434139D01*
X76426414Y-110364050D01*
X76541960Y-110256729D01*
X76618349Y-110101268D01*
X76660825Y-109886756D01*
X76674634Y-109602286D01*
X76674666Y-109585182D01*
X76665421Y-109321182D01*
X76633729Y-109125572D01*
X76573656Y-108983700D01*
X76479267Y-108880914D01*
X76360685Y-108810006D01*
X76184216Y-108759256D01*
X75970742Y-108744602D01*
X75760023Y-108766433D01*
G37*
X75760023Y-108766433D02*
X75637067Y-108802952D01*
X75504503Y-108892301D01*
X75394335Y-109025858D01*
X75329003Y-109172714D01*
X75320158Y-109239416D01*
X75337546Y-109309659D01*
X75405931Y-109333643D01*
X75439360Y-109334666D01*
X75533245Y-109315437D01*
X75597036Y-109242874D01*
X75619277Y-109197083D01*
X75715134Y-109072811D01*
X75855247Y-108999727D01*
X76015978Y-108978594D01*
X76173688Y-109010174D01*
X76304740Y-109095231D01*
X76361203Y-109173139D01*
X76397938Y-109275017D01*
X76415472Y-109412730D01*
X76416129Y-109607697D01*
X76414187Y-109661667D01*
X76404724Y-109839626D01*
X76389824Y-109955140D01*
X76363041Y-110030425D01*
X76317925Y-110087698D01*
X76280722Y-110121499D01*
X76118259Y-110210920D01*
X75942382Y-110224070D01*
X75774554Y-110161744D01*
X75697743Y-110099923D01*
X75619347Y-110006321D01*
X75576634Y-109925747D01*
X75574000Y-109909423D01*
X75542230Y-109858493D01*
X75441461Y-109842666D01*
X75355333Y-109848019D01*
X75323593Y-109880667D01*
X75328971Y-109965491D01*
X75334038Y-109997441D01*
X75403302Y-110180531D01*
X75536289Y-110325029D01*
X75718200Y-110424003D01*
X75934236Y-110470523D01*
X76169595Y-110457656D01*
X76266465Y-110434139D01*
X76426414Y-110364050D01*
X76541960Y-110256729D01*
X76618349Y-110101268D01*
X76660825Y-109886756D01*
X76674634Y-109602286D01*
X76674666Y-109585182D01*
X76665421Y-109321182D01*
X76633729Y-109125572D01*
X76573656Y-108983700D01*
X76479267Y-108880914D01*
X76360685Y-108810006D01*
X76184216Y-108759256D01*
X75970742Y-108744602D01*
X75760023Y-108766433D01*
G36*
X77630304Y-108770319D02*
G01*
X77441568Y-108856358D01*
X77306474Y-109003137D01*
X77222938Y-109213513D01*
X77188875Y-109490347D01*
X77190847Y-109680051D01*
X77209802Y-109907841D01*
X77247597Y-110073700D01*
X77313809Y-110199857D01*
X77418011Y-110308540D01*
X77484106Y-110360857D01*
X77637456Y-110431748D01*
X77833932Y-110462681D01*
X78041194Y-110452082D01*
X78226900Y-110398377D01*
X78229542Y-110397148D01*
X78371176Y-110315496D01*
X78470229Y-110215018D01*
X78533437Y-110080248D01*
X78567533Y-109895725D01*
X78579255Y-109645985D01*
X78579508Y-109593663D01*
X78577987Y-109470956D01*
X78321512Y-109470956D01*
X78319187Y-109661667D01*
X78309724Y-109839626D01*
X78294824Y-109955140D01*
X78268041Y-110030425D01*
X78222925Y-110087698D01*
X78185722Y-110121499D01*
X78023259Y-110210920D01*
X77847382Y-110224070D01*
X77679554Y-110161744D01*
X77602743Y-110099923D01*
X77542691Y-110034691D01*
X77506049Y-109971165D01*
X77487062Y-109886569D01*
X77479973Y-109758129D01*
X77479000Y-109610306D01*
X77484145Y-109432619D01*
X77497840Y-109279662D01*
X77517477Y-109177179D01*
X77524741Y-109158966D01*
X77624023Y-109055603D01*
X77773909Y-108993476D01*
X77946761Y-108981470D01*
X78030598Y-108996340D01*
X78161624Y-109050791D01*
X78250119Y-109139593D01*
X78301582Y-109275422D01*
X78321512Y-109470956D01*
X78577987Y-109470956D01*
X78576881Y-109381738D01*
X78566786Y-109233692D01*
X78546175Y-109128852D01*
X78511998Y-109046545D01*
X78494333Y-109016086D01*
X78354868Y-108866360D01*
X78156897Y-108775403D01*
X77898419Y-108742329D01*
X77874769Y-108742158D01*
X77630304Y-108770319D01*
G37*
X77630304Y-108770319D02*
X77441568Y-108856358D01*
X77306474Y-109003137D01*
X77222938Y-109213513D01*
X77188875Y-109490347D01*
X77190847Y-109680051D01*
X77209802Y-109907841D01*
X77247597Y-110073700D01*
X77313809Y-110199857D01*
X77418011Y-110308540D01*
X77484106Y-110360857D01*
X77637456Y-110431748D01*
X77833932Y-110462681D01*
X78041194Y-110452082D01*
X78226900Y-110398377D01*
X78229542Y-110397148D01*
X78371176Y-110315496D01*
X78470229Y-110215018D01*
X78533437Y-110080248D01*
X78567533Y-109895725D01*
X78579255Y-109645985D01*
X78579508Y-109593663D01*
X78577987Y-109470956D01*
X78321512Y-109470956D01*
X78319187Y-109661667D01*
X78309724Y-109839626D01*
X78294824Y-109955140D01*
X78268041Y-110030425D01*
X78222925Y-110087698D01*
X78185722Y-110121499D01*
X78023259Y-110210920D01*
X77847382Y-110224070D01*
X77679554Y-110161744D01*
X77602743Y-110099923D01*
X77542691Y-110034691D01*
X77506049Y-109971165D01*
X77487062Y-109886569D01*
X77479973Y-109758129D01*
X77479000Y-109610306D01*
X77484145Y-109432619D01*
X77497840Y-109279662D01*
X77517477Y-109177179D01*
X77524741Y-109158966D01*
X77624023Y-109055603D01*
X77773909Y-108993476D01*
X77946761Y-108981470D01*
X78030598Y-108996340D01*
X78161624Y-109050791D01*
X78250119Y-109139593D01*
X78301582Y-109275422D01*
X78321512Y-109470956D01*
X78577987Y-109470956D01*
X78576881Y-109381738D01*
X78566786Y-109233692D01*
X78546175Y-109128852D01*
X78511998Y-109046545D01*
X78494333Y-109016086D01*
X78354868Y-108866360D01*
X78156897Y-108775403D01*
X77898419Y-108742329D01*
X77874769Y-108742158D01*
X77630304Y-108770319D01*
G36*
X86219988Y-108772866D02*
G01*
X86019762Y-108864332D01*
X85878930Y-109016103D01*
X85797943Y-109227723D01*
X85776491Y-109451083D01*
X85776333Y-109715666D01*
X86920946Y-109715666D01*
X86895038Y-109832083D01*
X86859080Y-109978501D01*
X86823616Y-110066340D01*
X86774435Y-110120399D01*
X86706769Y-110160630D01*
X86554733Y-110210461D01*
X86392474Y-110218891D01*
X86243709Y-110189993D01*
X86132157Y-110127840D01*
X86084799Y-110053823D01*
X86043448Y-109992147D01*
X85948973Y-109970280D01*
X85919562Y-109969666D01*
X85817941Y-109979035D01*
X85781836Y-110018613D01*
X85802747Y-110105608D01*
X85825935Y-110159214D01*
X85924849Y-110283097D01*
X86083767Y-110380364D01*
X86280374Y-110444207D01*
X86492358Y-110467814D01*
X86697403Y-110444376D01*
X86730158Y-110435163D01*
X86912588Y-110345617D01*
X87044412Y-110202385D01*
X87128782Y-109999385D01*
X87168847Y-109730535D01*
X87173267Y-109579443D01*
X87164462Y-109461666D01*
X86910417Y-109461666D01*
X86023606Y-109461666D01*
X86052199Y-109324083D01*
X86123651Y-109146360D01*
X86249537Y-109033338D01*
X86427785Y-108986665D01*
X86477628Y-108985512D01*
X86660263Y-109014225D01*
X86784318Y-109099908D01*
X86861048Y-109251654D01*
X86875559Y-109307109D01*
X86910417Y-109461666D01*
X87164462Y-109461666D01*
X87151057Y-109282379D01*
X87082417Y-109054253D01*
X86964146Y-108891206D01*
X86793046Y-108789377D01*
X86565916Y-108744905D01*
X86479156Y-108742158D01*
X86219988Y-108772866D01*
G37*
X86219988Y-108772866D02*
X86019762Y-108864332D01*
X85878930Y-109016103D01*
X85797943Y-109227723D01*
X85776491Y-109451083D01*
X85776333Y-109715666D01*
X86920946Y-109715666D01*
X86895038Y-109832083D01*
X86859080Y-109978501D01*
X86823616Y-110066340D01*
X86774435Y-110120399D01*
X86706769Y-110160630D01*
X86554733Y-110210461D01*
X86392474Y-110218891D01*
X86243709Y-110189993D01*
X86132157Y-110127840D01*
X86084799Y-110053823D01*
X86043448Y-109992147D01*
X85948973Y-109970280D01*
X85919562Y-109969666D01*
X85817941Y-109979035D01*
X85781836Y-110018613D01*
X85802747Y-110105608D01*
X85825935Y-110159214D01*
X85924849Y-110283097D01*
X86083767Y-110380364D01*
X86280374Y-110444207D01*
X86492358Y-110467814D01*
X86697403Y-110444376D01*
X86730158Y-110435163D01*
X86912588Y-110345617D01*
X87044412Y-110202385D01*
X87128782Y-109999385D01*
X87168847Y-109730535D01*
X87173267Y-109579443D01*
X87164462Y-109461666D01*
X86910417Y-109461666D01*
X86023606Y-109461666D01*
X86052199Y-109324083D01*
X86123651Y-109146360D01*
X86249537Y-109033338D01*
X86427785Y-108986665D01*
X86477628Y-108985512D01*
X86660263Y-109014225D01*
X86784318Y-109099908D01*
X86861048Y-109251654D01*
X86875559Y-109307109D01*
X86910417Y-109461666D01*
X87164462Y-109461666D01*
X87151057Y-109282379D01*
X87082417Y-109054253D01*
X86964146Y-108891206D01*
X86793046Y-108789377D01*
X86565916Y-108744905D01*
X86479156Y-108742158D01*
X86219988Y-108772866D01*
G36*
X90508545Y-108767161D02*
G01*
X90312816Y-108843503D01*
X90179301Y-108972312D01*
X90166556Y-108992632D01*
X90138001Y-109054715D01*
X90117850Y-109138144D01*
X90104776Y-109257301D01*
X90097453Y-109426569D01*
X90094552Y-109660328D01*
X90094333Y-109775115D01*
X90094333Y-110435333D01*
X90221333Y-110435333D01*
X90311395Y-110424708D01*
X90344567Y-110375534D01*
X90348333Y-110312515D01*
X90348333Y-110189697D01*
X90473822Y-110306921D01*
X90660164Y-110426155D01*
X90875707Y-110473418D01*
X91100360Y-110445580D01*
X91178985Y-110416837D01*
X91329700Y-110311356D01*
X91420666Y-110164603D01*
X91449986Y-110005391D01*
X91184827Y-110005391D01*
X91136295Y-110084409D01*
X91087821Y-110129729D01*
X90940996Y-110205063D01*
X90766207Y-110221730D01*
X90594091Y-110182171D01*
X90455284Y-110088829D01*
X90446074Y-110078575D01*
X90362230Y-109918987D01*
X90348333Y-109813029D01*
X90348333Y-109661112D01*
X90661971Y-109684833D01*
X90880552Y-109708956D01*
X91028896Y-109746421D01*
X91121135Y-109803501D01*
X91171403Y-109886469D01*
X91179743Y-109914643D01*
X91184827Y-110005391D01*
X91449986Y-110005391D01*
X91451838Y-109995336D01*
X91423171Y-109822317D01*
X91334618Y-109664306D01*
X91186133Y-109540064D01*
X91181133Y-109537265D01*
X91097151Y-109511034D01*
X90955173Y-109486249D01*
X90781823Y-109467260D01*
X90729333Y-109463449D01*
X90369500Y-109440500D01*
X90356524Y-109306795D01*
X90373471Y-109171682D01*
X90438589Y-109084545D01*
X90555147Y-109016520D01*
X90701496Y-108986222D01*
X90855974Y-108990359D01*
X90996920Y-109025640D01*
X91102671Y-109088772D01*
X91151566Y-109176464D01*
X91152666Y-109193061D01*
X91192085Y-109235635D01*
X91305422Y-109250000D01*
X91405236Y-109245112D01*
X91440871Y-109217637D01*
X91432751Y-109148355D01*
X91429124Y-109133583D01*
X91345014Y-108956125D01*
X91195549Y-108831056D01*
X90982861Y-108759645D01*
X90769583Y-108742000D01*
X90508545Y-108767161D01*
G37*
X90508545Y-108767161D02*
X90312816Y-108843503D01*
X90179301Y-108972312D01*
X90166556Y-108992632D01*
X90138001Y-109054715D01*
X90117850Y-109138144D01*
X90104776Y-109257301D01*
X90097453Y-109426569D01*
X90094552Y-109660328D01*
X90094333Y-109775115D01*
X90094333Y-110435333D01*
X90221333Y-110435333D01*
X90311395Y-110424708D01*
X90344567Y-110375534D01*
X90348333Y-110312515D01*
X90348333Y-110189697D01*
X90473822Y-110306921D01*
X90660164Y-110426155D01*
X90875707Y-110473418D01*
X91100360Y-110445580D01*
X91178985Y-110416837D01*
X91329700Y-110311356D01*
X91420666Y-110164603D01*
X91449986Y-110005391D01*
X91184827Y-110005391D01*
X91136295Y-110084409D01*
X91087821Y-110129729D01*
X90940996Y-110205063D01*
X90766207Y-110221730D01*
X90594091Y-110182171D01*
X90455284Y-110088829D01*
X90446074Y-110078575D01*
X90362230Y-109918987D01*
X90348333Y-109813029D01*
X90348333Y-109661112D01*
X90661971Y-109684833D01*
X90880552Y-109708956D01*
X91028896Y-109746421D01*
X91121135Y-109803501D01*
X91171403Y-109886469D01*
X91179743Y-109914643D01*
X91184827Y-110005391D01*
X91449986Y-110005391D01*
X91451838Y-109995336D01*
X91423171Y-109822317D01*
X91334618Y-109664306D01*
X91186133Y-109540064D01*
X91181133Y-109537265D01*
X91097151Y-109511034D01*
X90955173Y-109486249D01*
X90781823Y-109467260D01*
X90729333Y-109463449D01*
X90369500Y-109440500D01*
X90356524Y-109306795D01*
X90373471Y-109171682D01*
X90438589Y-109084545D01*
X90555147Y-109016520D01*
X90701496Y-108986222D01*
X90855974Y-108990359D01*
X90996920Y-109025640D01*
X91102671Y-109088772D01*
X91151566Y-109176464D01*
X91152666Y-109193061D01*
X91192085Y-109235635D01*
X91305422Y-109250000D01*
X91405236Y-109245112D01*
X91440871Y-109217637D01*
X91432751Y-109148355D01*
X91429124Y-109133583D01*
X91345014Y-108956125D01*
X91195549Y-108831056D01*
X90982861Y-108759645D01*
X90769583Y-108742000D01*
X90508545Y-108767161D01*
G36*
X95460083Y-108749901D02*
G01*
X95322500Y-108763166D01*
X95311022Y-109599250D01*
X95299543Y-110435333D01*
X95448605Y-110435333D01*
X95548888Y-110427875D01*
X95590152Y-110392733D01*
X95597666Y-110322120D01*
X95597666Y-110208908D01*
X95692916Y-110298134D01*
X95881443Y-110425513D01*
X96083638Y-110470588D01*
X96293064Y-110432341D01*
X96358226Y-110403517D01*
X96469597Y-110336505D01*
X96552111Y-110255122D01*
X96609877Y-110146391D01*
X96647004Y-109997337D01*
X96667602Y-109794984D01*
X96675778Y-109526355D01*
X96676491Y-109398458D01*
X96677166Y-108763166D01*
X96539583Y-108749901D01*
X96402000Y-108736635D01*
X96402000Y-109976179D01*
X96278256Y-110099923D01*
X96154190Y-110193140D01*
X96016704Y-110223422D01*
X95999833Y-110223666D01*
X95858632Y-110198987D01*
X95735016Y-110113223D01*
X95721410Y-110099923D01*
X95597666Y-109976179D01*
X95597666Y-108736635D01*
X95460083Y-108749901D01*
G37*
X95460083Y-108749901D02*
X95322500Y-108763166D01*
X95311022Y-109599250D01*
X95299543Y-110435333D01*
X95448605Y-110435333D01*
X95548888Y-110427875D01*
X95590152Y-110392733D01*
X95597666Y-110322120D01*
X95597666Y-110208908D01*
X95692916Y-110298134D01*
X95881443Y-110425513D01*
X96083638Y-110470588D01*
X96293064Y-110432341D01*
X96358226Y-110403517D01*
X96469597Y-110336505D01*
X96552111Y-110255122D01*
X96609877Y-110146391D01*
X96647004Y-109997337D01*
X96667602Y-109794984D01*
X96675778Y-109526355D01*
X96676491Y-109398458D01*
X96677166Y-108763166D01*
X96539583Y-108749901D01*
X96402000Y-108736635D01*
X96402000Y-109976179D01*
X96278256Y-110099923D01*
X96154190Y-110193140D01*
X96016704Y-110223422D01*
X95999833Y-110223666D01*
X95858632Y-110198987D01*
X95735016Y-110113223D01*
X95721410Y-110099923D01*
X95597666Y-109976179D01*
X95597666Y-108736635D01*
X95460083Y-108749901D01*
G36*
X97701047Y-108759052D02*
G01*
X97522710Y-108823096D01*
X97498344Y-108838093D01*
X97366979Y-108949710D01*
X97278935Y-109088315D01*
X97227880Y-109270447D01*
X97207486Y-109512647D01*
X97206399Y-109600936D01*
X97225284Y-109895770D01*
X97285635Y-110121171D01*
X97392824Y-110284293D01*
X97552219Y-110392292D01*
X97769190Y-110452319D01*
X97853281Y-110462720D01*
X98020979Y-110466294D01*
X98160286Y-110432649D01*
X98261534Y-110385437D01*
X98403901Y-110293647D01*
X98502324Y-110182331D01*
X98563723Y-110035362D01*
X98595020Y-109836614D01*
X98603147Y-109590170D01*
X98349660Y-109590170D01*
X98332912Y-109789640D01*
X98286355Y-109968142D01*
X98211274Y-110103311D01*
X98146774Y-110157893D01*
X97953966Y-110217053D01*
X97755052Y-110194781D01*
X97671869Y-110160098D01*
X97571711Y-110064460D01*
X97502760Y-109911374D01*
X97465827Y-109722413D01*
X97461724Y-109519151D01*
X97491262Y-109323164D01*
X97555253Y-109156024D01*
X97630450Y-109058790D01*
X97758926Y-108993432D01*
X97920728Y-108978385D01*
X98082438Y-109011868D01*
X98208193Y-109089617D01*
X98288587Y-109217793D01*
X98335314Y-109392099D01*
X98349660Y-109590170D01*
X98603147Y-109590170D01*
X98603175Y-109589327D01*
X98593116Y-109333223D01*
X98558569Y-109142744D01*
X98492626Y-109000693D01*
X98388381Y-108889873D01*
X98296803Y-108826437D01*
X98122529Y-108760219D01*
X97912465Y-108737925D01*
X97701047Y-108759052D01*
G37*
X97701047Y-108759052D02*
X97522710Y-108823096D01*
X97498344Y-108838093D01*
X97366979Y-108949710D01*
X97278935Y-109088315D01*
X97227880Y-109270447D01*
X97207486Y-109512647D01*
X97206399Y-109600936D01*
X97225284Y-109895770D01*
X97285635Y-110121171D01*
X97392824Y-110284293D01*
X97552219Y-110392292D01*
X97769190Y-110452319D01*
X97853281Y-110462720D01*
X98020979Y-110466294D01*
X98160286Y-110432649D01*
X98261534Y-110385437D01*
X98403901Y-110293647D01*
X98502324Y-110182331D01*
X98563723Y-110035362D01*
X98595020Y-109836614D01*
X98603147Y-109590170D01*
X98349660Y-109590170D01*
X98332912Y-109789640D01*
X98286355Y-109968142D01*
X98211274Y-110103311D01*
X98146774Y-110157893D01*
X97953966Y-110217053D01*
X97755052Y-110194781D01*
X97671869Y-110160098D01*
X97571711Y-110064460D01*
X97502760Y-109911374D01*
X97465827Y-109722413D01*
X97461724Y-109519151D01*
X97491262Y-109323164D01*
X97555253Y-109156024D01*
X97630450Y-109058790D01*
X97758926Y-108993432D01*
X97920728Y-108978385D01*
X98082438Y-109011868D01*
X98208193Y-109089617D01*
X98288587Y-109217793D01*
X98335314Y-109392099D01*
X98349660Y-109590170D01*
X98603147Y-109590170D01*
X98603175Y-109589327D01*
X98593116Y-109333223D01*
X98558569Y-109142744D01*
X98492626Y-109000693D01*
X98388381Y-108889873D01*
X98296803Y-108826437D01*
X98122529Y-108760219D01*
X97912465Y-108737925D01*
X97701047Y-108759052D01*
G36*
X103087866Y-109974725D02*
G01*
X102982127Y-110032058D01*
X102911809Y-110131267D01*
X102898191Y-110259728D01*
X102903104Y-110283800D01*
X102969242Y-110408013D01*
X103077693Y-110467219D01*
X103209994Y-110455357D01*
X103292914Y-110411766D01*
X103367124Y-110313978D01*
X103385471Y-110186728D01*
X103345281Y-110066424D01*
X103320476Y-110036190D01*
X103207742Y-109971894D01*
X103087866Y-109974725D01*
G37*
X103087866Y-109974725D02*
X102982127Y-110032058D01*
X102911809Y-110131267D01*
X102898191Y-110259728D01*
X102903104Y-110283800D01*
X102969242Y-110408013D01*
X103077693Y-110467219D01*
X103209994Y-110455357D01*
X103292914Y-110411766D01*
X103367124Y-110313978D01*
X103385471Y-110186728D01*
X103345281Y-110066424D01*
X103320476Y-110036190D01*
X103207742Y-109971894D01*
X103087866Y-109974725D01*
G36*
X103036297Y-112718583D02*
G01*
X102945261Y-112792877D01*
X102897943Y-112901340D01*
X102911090Y-113027222D01*
X102939496Y-113082523D01*
X103031345Y-113158011D01*
X103156844Y-113189731D01*
X103279051Y-113172683D01*
X103336200Y-113136200D01*
X103385451Y-113034144D01*
X103382887Y-112906259D01*
X103333504Y-112789488D01*
X103282523Y-112739495D01*
X103154300Y-112695207D01*
X103036297Y-112718583D01*
G37*
X103036297Y-112718583D02*
X102945261Y-112792877D01*
X102897943Y-112901340D01*
X102911090Y-113027222D01*
X102939496Y-113082523D01*
X103031345Y-113158011D01*
X103156844Y-113189731D01*
X103279051Y-113172683D01*
X103336200Y-113136200D01*
X103385451Y-113034144D01*
X103382887Y-112906259D01*
X103333504Y-112789488D01*
X103282523Y-112739495D01*
X103154300Y-112695207D01*
X103036297Y-112718583D01*
G36*
X80569333Y-114414666D02*
G01*
X80696333Y-114414666D01*
X80784004Y-114405259D01*
X80818604Y-114359449D01*
X80824620Y-114277083D01*
X80829581Y-114191395D01*
X80846454Y-114180869D01*
X80869058Y-114213584D01*
X80972885Y-114315712D01*
X81129406Y-114383774D01*
X81312359Y-114414273D01*
X81495483Y-114403718D01*
X81652517Y-114348612D01*
X81690587Y-114322892D01*
X81793278Y-114219022D01*
X81862944Y-114086849D01*
X81904362Y-113910477D01*
X81922308Y-113674008D01*
X81923857Y-113556878D01*
X81668051Y-113556878D01*
X81654319Y-113747168D01*
X81621230Y-113912591D01*
X81570969Y-114025744D01*
X81562958Y-114035553D01*
X81408129Y-114157484D01*
X81239276Y-114196324D01*
X81059161Y-114151514D01*
X81038860Y-114141496D01*
X80933318Y-114059904D01*
X80865717Y-113936890D01*
X80832078Y-113759871D01*
X80828423Y-113516268D01*
X80829869Y-113480659D01*
X80840253Y-113305946D01*
X80856624Y-113192981D01*
X80885864Y-113118850D01*
X80934853Y-113060642D01*
X80963777Y-113034738D01*
X81117345Y-112951381D01*
X81283955Y-112937662D01*
X81441464Y-112987701D01*
X81567728Y-113095617D01*
X81628699Y-113211295D01*
X81660239Y-113369120D01*
X81668051Y-113556878D01*
X81923857Y-113556878D01*
X81924000Y-113546090D01*
X81916545Y-113298189D01*
X81890228Y-113115514D01*
X81839121Y-112979617D01*
X81757295Y-112872049D01*
X81687718Y-112810850D01*
X81512531Y-112719875D01*
X81317228Y-112692600D01*
X81126086Y-112726923D01*
X80963380Y-112820743D01*
X80908662Y-112878273D01*
X80823333Y-112986751D01*
X80823333Y-112086333D01*
X80569333Y-112086333D01*
X80569333Y-114414666D01*
G37*
X80569333Y-114414666D02*
X80696333Y-114414666D01*
X80784004Y-114405259D01*
X80818604Y-114359449D01*
X80824620Y-114277083D01*
X80829581Y-114191395D01*
X80846454Y-114180869D01*
X80869058Y-114213584D01*
X80972885Y-114315712D01*
X81129406Y-114383774D01*
X81312359Y-114414273D01*
X81495483Y-114403718D01*
X81652517Y-114348612D01*
X81690587Y-114322892D01*
X81793278Y-114219022D01*
X81862944Y-114086849D01*
X81904362Y-113910477D01*
X81922308Y-113674008D01*
X81923857Y-113556878D01*
X81668051Y-113556878D01*
X81654319Y-113747168D01*
X81621230Y-113912591D01*
X81570969Y-114025744D01*
X81562958Y-114035553D01*
X81408129Y-114157484D01*
X81239276Y-114196324D01*
X81059161Y-114151514D01*
X81038860Y-114141496D01*
X80933318Y-114059904D01*
X80865717Y-113936890D01*
X80832078Y-113759871D01*
X80828423Y-113516268D01*
X80829869Y-113480659D01*
X80840253Y-113305946D01*
X80856624Y-113192981D01*
X80885864Y-113118850D01*
X80934853Y-113060642D01*
X80963777Y-113034738D01*
X81117345Y-112951381D01*
X81283955Y-112937662D01*
X81441464Y-112987701D01*
X81567728Y-113095617D01*
X81628699Y-113211295D01*
X81660239Y-113369120D01*
X81668051Y-113556878D01*
X81923857Y-113556878D01*
X81924000Y-113546090D01*
X81916545Y-113298189D01*
X81890228Y-113115514D01*
X81839121Y-112979617D01*
X81757295Y-112872049D01*
X81687718Y-112810850D01*
X81512531Y-112719875D01*
X81317228Y-112692600D01*
X81126086Y-112726923D01*
X80963380Y-112820743D01*
X80908662Y-112878273D01*
X80823333Y-112986751D01*
X80823333Y-112086333D01*
X80569333Y-112086333D01*
X80569333Y-114414666D01*
G36*
X82973338Y-112707026D02*
G01*
X82806255Y-112752210D01*
X82744637Y-112787449D01*
X82617365Y-112893866D01*
X82532114Y-113001489D01*
X82480023Y-113131614D01*
X82452229Y-113305540D01*
X82440635Y-113518064D01*
X82442376Y-113780596D01*
X82469997Y-113977781D01*
X82529501Y-114126571D01*
X82626889Y-114243917D01*
X82724010Y-114318572D01*
X82839404Y-114378738D01*
X82972937Y-114406980D01*
X83126177Y-114411983D01*
X83279519Y-114404886D01*
X83408384Y-114389314D01*
X83469166Y-114374048D01*
X83551318Y-114321498D01*
X83652153Y-114233788D01*
X83680833Y-114204731D01*
X83737340Y-114141102D01*
X83774592Y-114080028D01*
X83797273Y-114001848D01*
X83810067Y-113886901D01*
X83817655Y-113715525D01*
X83820521Y-113618249D01*
X83820173Y-113502834D01*
X83569547Y-113502834D01*
X83567708Y-113654470D01*
X83551727Y-113827966D01*
X83522503Y-113943488D01*
X83472294Y-114027547D01*
X83452055Y-114050516D01*
X83304696Y-114151941D01*
X83133904Y-114185014D01*
X82964390Y-114149784D01*
X82823583Y-114049321D01*
X82778064Y-113989971D01*
X82749758Y-113920338D01*
X82734709Y-113819616D01*
X82728962Y-113667000D01*
X82728333Y-113548235D01*
X82729424Y-113362386D01*
X82736222Y-113240678D01*
X82754013Y-113162585D01*
X82788085Y-113107585D01*
X82843724Y-113055150D01*
X82858581Y-113042596D01*
X83017821Y-112955154D01*
X83186709Y-112937712D01*
X83344660Y-112985128D01*
X83471085Y-113092256D01*
X83533699Y-113211295D01*
X83557669Y-113334699D01*
X83569547Y-113502834D01*
X83820173Y-113502834D01*
X83819708Y-113348682D01*
X83796346Y-113146567D01*
X83745005Y-112996438D01*
X83660250Y-112882828D01*
X83536651Y-112790272D01*
X83527879Y-112785049D01*
X83365667Y-112723348D01*
X83170314Y-112697373D01*
X82973338Y-112707026D01*
G37*
X82973338Y-112707026D02*
X82806255Y-112752210D01*
X82744637Y-112787449D01*
X82617365Y-112893866D01*
X82532114Y-113001489D01*
X82480023Y-113131614D01*
X82452229Y-113305540D01*
X82440635Y-113518064D01*
X82442376Y-113780596D01*
X82469997Y-113977781D01*
X82529501Y-114126571D01*
X82626889Y-114243917D01*
X82724010Y-114318572D01*
X82839404Y-114378738D01*
X82972937Y-114406980D01*
X83126177Y-114411983D01*
X83279519Y-114404886D01*
X83408384Y-114389314D01*
X83469166Y-114374048D01*
X83551318Y-114321498D01*
X83652153Y-114233788D01*
X83680833Y-114204731D01*
X83737340Y-114141102D01*
X83774592Y-114080028D01*
X83797273Y-114001848D01*
X83810067Y-113886901D01*
X83817655Y-113715525D01*
X83820521Y-113618249D01*
X83820173Y-113502834D01*
X83569547Y-113502834D01*
X83567708Y-113654470D01*
X83551727Y-113827966D01*
X83522503Y-113943488D01*
X83472294Y-114027547D01*
X83452055Y-114050516D01*
X83304696Y-114151941D01*
X83133904Y-114185014D01*
X82964390Y-114149784D01*
X82823583Y-114049321D01*
X82778064Y-113989971D01*
X82749758Y-113920338D01*
X82734709Y-113819616D01*
X82728962Y-113667000D01*
X82728333Y-113548235D01*
X82729424Y-113362386D01*
X82736222Y-113240678D01*
X82754013Y-113162585D01*
X82788085Y-113107585D01*
X82843724Y-113055150D01*
X82858581Y-113042596D01*
X83017821Y-112955154D01*
X83186709Y-112937712D01*
X83344660Y-112985128D01*
X83471085Y-113092256D01*
X83533699Y-113211295D01*
X83557669Y-113334699D01*
X83569547Y-113502834D01*
X83820173Y-113502834D01*
X83819708Y-113348682D01*
X83796346Y-113146567D01*
X83745005Y-112996438D01*
X83660250Y-112882828D01*
X83536651Y-112790272D01*
X83527879Y-112785049D01*
X83365667Y-112723348D01*
X83170314Y-112697373D01*
X82973338Y-112707026D01*
G36*
X85437666Y-112947758D02*
G01*
X85342416Y-112858532D01*
X85165100Y-112741528D01*
X84971453Y-112694172D01*
X84779725Y-112713688D01*
X84608170Y-112797300D01*
X84475038Y-112942233D01*
X84446480Y-112994793D01*
X84418404Y-113074768D01*
X84398876Y-113186057D01*
X84386682Y-113342781D01*
X84380606Y-113559064D01*
X84379333Y-113775481D01*
X84379333Y-114414666D01*
X84627233Y-114414666D01*
X84640867Y-113775899D01*
X84654500Y-113137133D01*
X84773277Y-113035066D01*
X84933207Y-112945766D01*
X85100402Y-112937621D01*
X85260090Y-113010039D01*
X85313923Y-113056743D01*
X85437666Y-113180487D01*
X85437666Y-114414666D01*
X85734000Y-114414666D01*
X85734000Y-112086333D01*
X85437666Y-112086333D01*
X85437666Y-112947758D01*
G37*
X85437666Y-112947758D02*
X85342416Y-112858532D01*
X85165100Y-112741528D01*
X84971453Y-112694172D01*
X84779725Y-112713688D01*
X84608170Y-112797300D01*
X84475038Y-112942233D01*
X84446480Y-112994793D01*
X84418404Y-113074768D01*
X84398876Y-113186057D01*
X84386682Y-113342781D01*
X84380606Y-113559064D01*
X84379333Y-113775481D01*
X84379333Y-114414666D01*
X84627233Y-114414666D01*
X84640867Y-113775899D01*
X84654500Y-113137133D01*
X84773277Y-113035066D01*
X84933207Y-112945766D01*
X85100402Y-112937621D01*
X85260090Y-113010039D01*
X85313923Y-113056743D01*
X85437666Y-113180487D01*
X85437666Y-114414666D01*
X85734000Y-114414666D01*
X85734000Y-112086333D01*
X85437666Y-112086333D01*
X85437666Y-112947758D01*
G36*
X86623000Y-112721333D02*
G01*
X86115000Y-112721333D01*
X86115000Y-112975333D01*
X86623000Y-112975333D01*
X86623000Y-113517200D01*
X86618903Y-113788663D01*
X86606513Y-113977589D01*
X86585681Y-114085710D01*
X86572200Y-114109866D01*
X86501943Y-114140062D01*
X86382306Y-114158258D01*
X86318200Y-114160666D01*
X86196117Y-114163765D01*
X86136410Y-114182343D01*
X86116799Y-114230324D01*
X86115000Y-114287666D01*
X86118408Y-114358303D01*
X86142024Y-114396231D01*
X86205932Y-114411622D01*
X86330216Y-114414649D01*
X86365752Y-114414666D01*
X86524631Y-114407545D01*
X86633722Y-114379630D01*
X86727191Y-114321094D01*
X86746752Y-114305070D01*
X86877000Y-114195473D01*
X86877000Y-112979972D01*
X87078083Y-112967069D01*
X87200748Y-112954578D01*
X87262565Y-112928198D01*
X87287350Y-112873567D01*
X87292562Y-112837750D01*
X87295707Y-112769196D01*
X87271014Y-112734772D01*
X87198200Y-112722735D01*
X87091478Y-112721333D01*
X86877000Y-112721333D01*
X86877000Y-112086333D01*
X86623000Y-112086333D01*
X86623000Y-112721333D01*
G37*
X86623000Y-112721333D02*
X86115000Y-112721333D01*
X86115000Y-112975333D01*
X86623000Y-112975333D01*
X86623000Y-113517200D01*
X86618903Y-113788663D01*
X86606513Y-113977589D01*
X86585681Y-114085710D01*
X86572200Y-114109866D01*
X86501943Y-114140062D01*
X86382306Y-114158258D01*
X86318200Y-114160666D01*
X86196117Y-114163765D01*
X86136410Y-114182343D01*
X86116799Y-114230324D01*
X86115000Y-114287666D01*
X86118408Y-114358303D01*
X86142024Y-114396231D01*
X86205932Y-114411622D01*
X86330216Y-114414649D01*
X86365752Y-114414666D01*
X86524631Y-114407545D01*
X86633722Y-114379630D01*
X86727191Y-114321094D01*
X86746752Y-114305070D01*
X86877000Y-114195473D01*
X86877000Y-112979972D01*
X87078083Y-112967069D01*
X87200748Y-112954578D01*
X87262565Y-112928198D01*
X87287350Y-112873567D01*
X87292562Y-112837750D01*
X87295707Y-112769196D01*
X87271014Y-112734772D01*
X87198200Y-112722735D01*
X87091478Y-112721333D01*
X86877000Y-112721333D01*
X86877000Y-112086333D01*
X86623000Y-112086333D01*
X86623000Y-112721333D01*
G36*
X88123724Y-112731123D02*
G01*
X87926035Y-112822207D01*
X87786575Y-112974691D01*
X87705152Y-113188778D01*
X87681333Y-113436814D01*
X87681333Y-113695000D01*
X88822216Y-113695000D01*
X88796905Y-113832583D01*
X88730835Y-114008726D01*
X88608385Y-114122076D01*
X88428502Y-114173452D01*
X88354381Y-114176948D01*
X88212771Y-114169524D01*
X88121502Y-114139188D01*
X88046944Y-114073848D01*
X88037431Y-114062974D01*
X87914521Y-113969045D01*
X87807511Y-113949000D01*
X87718206Y-113956310D01*
X87693267Y-113990512D01*
X87704654Y-114044250D01*
X87798260Y-114216915D01*
X87956971Y-114336177D01*
X88179708Y-114401436D01*
X88371471Y-114414666D01*
X88551155Y-114406015D01*
X88680761Y-114374920D01*
X88786323Y-114318572D01*
X88917138Y-114207655D01*
X89004980Y-114070166D01*
X89056158Y-113889550D01*
X89076981Y-113649254D01*
X89078267Y-113552597D01*
X89075905Y-113441000D01*
X88825946Y-113441000D01*
X88380640Y-113441000D01*
X88172745Y-113438546D01*
X88037355Y-113430154D01*
X87962421Y-113414277D01*
X87935896Y-113389367D01*
X87935333Y-113383817D01*
X87973261Y-113206521D01*
X88075073Y-113060139D01*
X88222809Y-112963056D01*
X88375739Y-112933000D01*
X88555357Y-112964379D01*
X88686765Y-113061431D01*
X88774704Y-113228525D01*
X88800680Y-113324583D01*
X88825946Y-113441000D01*
X89075905Y-113441000D01*
X89073968Y-113349503D01*
X89058205Y-113205667D01*
X89026808Y-113095996D01*
X88989676Y-113019617D01*
X88861100Y-112852494D01*
X88693370Y-112749727D01*
X88473693Y-112704637D01*
X88379833Y-112701239D01*
X88123724Y-112731123D01*
G37*
X88123724Y-112731123D02*
X87926035Y-112822207D01*
X87786575Y-112974691D01*
X87705152Y-113188778D01*
X87681333Y-113436814D01*
X87681333Y-113695000D01*
X88822216Y-113695000D01*
X88796905Y-113832583D01*
X88730835Y-114008726D01*
X88608385Y-114122076D01*
X88428502Y-114173452D01*
X88354381Y-114176948D01*
X88212771Y-114169524D01*
X88121502Y-114139188D01*
X88046944Y-114073848D01*
X88037431Y-114062974D01*
X87914521Y-113969045D01*
X87807511Y-113949000D01*
X87718206Y-113956310D01*
X87693267Y-113990512D01*
X87704654Y-114044250D01*
X87798260Y-114216915D01*
X87956971Y-114336177D01*
X88179708Y-114401436D01*
X88371471Y-114414666D01*
X88551155Y-114406015D01*
X88680761Y-114374920D01*
X88786323Y-114318572D01*
X88917138Y-114207655D01*
X89004980Y-114070166D01*
X89056158Y-113889550D01*
X89076981Y-113649254D01*
X89078267Y-113552597D01*
X89075905Y-113441000D01*
X88825946Y-113441000D01*
X88380640Y-113441000D01*
X88172745Y-113438546D01*
X88037355Y-113430154D01*
X87962421Y-113414277D01*
X87935896Y-113389367D01*
X87935333Y-113383817D01*
X87973261Y-113206521D01*
X88075073Y-113060139D01*
X88222809Y-112963056D01*
X88375739Y-112933000D01*
X88555357Y-112964379D01*
X88686765Y-113061431D01*
X88774704Y-113228525D01*
X88800680Y-113324583D01*
X88825946Y-113441000D01*
X89075905Y-113441000D01*
X89073968Y-113349503D01*
X89058205Y-113205667D01*
X89026808Y-113095996D01*
X88989676Y-113019617D01*
X88861100Y-112852494D01*
X88693370Y-112749727D01*
X88473693Y-112704637D01*
X88379833Y-112701239D01*
X88123724Y-112731123D01*
G36*
X90790323Y-112973542D02*
G01*
X90716084Y-113230578D01*
X90648059Y-113455661D01*
X90589887Y-113637585D01*
X90545205Y-113765146D01*
X90517653Y-113827140D01*
X90511924Y-113830792D01*
X90492620Y-113782777D01*
X90454382Y-113665673D01*
X90401019Y-113491950D01*
X90336335Y-113274076D01*
X90264136Y-113024518D01*
X90241083Y-112943583D01*
X89997803Y-112086333D01*
X89584972Y-112086333D01*
X89596236Y-113239916D01*
X89607500Y-114393500D01*
X89744198Y-114406699D01*
X89880897Y-114419899D01*
X89892365Y-113560032D01*
X89903833Y-112700166D01*
X90142233Y-113546833D01*
X90380632Y-114393500D01*
X90664671Y-114393500D01*
X90905361Y-113546833D01*
X91146050Y-112700166D01*
X91152666Y-114414666D01*
X91449000Y-114414666D01*
X91449000Y-112086333D01*
X91041161Y-112086333D01*
X90790323Y-112973542D01*
G37*
X90790323Y-112973542D02*
X90716084Y-113230578D01*
X90648059Y-113455661D01*
X90589887Y-113637585D01*
X90545205Y-113765146D01*
X90517653Y-113827140D01*
X90511924Y-113830792D01*
X90492620Y-113782777D01*
X90454382Y-113665673D01*
X90401019Y-113491950D01*
X90336335Y-113274076D01*
X90264136Y-113024518D01*
X90241083Y-112943583D01*
X89997803Y-112086333D01*
X89584972Y-112086333D01*
X89596236Y-113239916D01*
X89607500Y-114393500D01*
X89744198Y-114406699D01*
X89880897Y-114419899D01*
X89892365Y-113560032D01*
X89903833Y-112700166D01*
X90142233Y-113546833D01*
X90380632Y-114393500D01*
X90664671Y-114393500D01*
X90905361Y-113546833D01*
X91146050Y-112700166D01*
X91152666Y-114414666D01*
X91449000Y-114414666D01*
X91449000Y-112086333D01*
X91041161Y-112086333D01*
X90790323Y-112973542D01*
G36*
X94097801Y-112088035D02*
G01*
X93947935Y-112095145D01*
X93843623Y-112110671D01*
X93765328Y-112137618D01*
X93693509Y-112178995D01*
X93688344Y-112182427D01*
X93587943Y-112258579D01*
X93513206Y-112343040D01*
X93460477Y-112449181D01*
X93426105Y-112590376D01*
X93406435Y-112779998D01*
X93397815Y-113031421D01*
X93396399Y-113251160D01*
X93399330Y-113554852D01*
X93410920Y-113786870D01*
X93435269Y-113960085D01*
X93476473Y-114087367D01*
X93538630Y-114181586D01*
X93625838Y-114255612D01*
X93736519Y-114319416D01*
X93843378Y-114366576D01*
X93955921Y-114395465D01*
X94099344Y-114410131D01*
X94298841Y-114414619D01*
X94329581Y-114414666D01*
X94507590Y-114411903D01*
X94652455Y-114404479D01*
X94744182Y-114393688D01*
X94765111Y-114386444D01*
X94772589Y-114338237D01*
X94779322Y-114216671D01*
X94781065Y-114160666D01*
X94497000Y-114160666D01*
X94232416Y-114160042D01*
X94072870Y-114151203D01*
X93933256Y-114128974D01*
X93862000Y-114105949D01*
X93780864Y-114043901D01*
X93721754Y-113944770D01*
X93682518Y-113798329D01*
X93661005Y-113594348D01*
X93655063Y-113322600D01*
X93657783Y-113134988D01*
X93663954Y-112902046D01*
X93671516Y-112737902D01*
X93683349Y-112626699D01*
X93702330Y-112552582D01*
X93731339Y-112499695D01*
X93773254Y-112452181D01*
X93783642Y-112441725D01*
X93859387Y-112379125D01*
X93949071Y-112340882D01*
X94079495Y-112318322D01*
X94196392Y-112308131D01*
X94497000Y-112286623D01*
X94497000Y-114160666D01*
X94781065Y-114160666D01*
X94785037Y-114033053D01*
X94789460Y-113798688D01*
X94792317Y-113524882D01*
X94793333Y-113222942D01*
X94793333Y-112086333D01*
X94312760Y-112086333D01*
X94097801Y-112088035D01*
G37*
X94097801Y-112088035D02*
X93947935Y-112095145D01*
X93843623Y-112110671D01*
X93765328Y-112137618D01*
X93693509Y-112178995D01*
X93688344Y-112182427D01*
X93587943Y-112258579D01*
X93513206Y-112343040D01*
X93460477Y-112449181D01*
X93426105Y-112590376D01*
X93406435Y-112779998D01*
X93397815Y-113031421D01*
X93396399Y-113251160D01*
X93399330Y-113554852D01*
X93410920Y-113786870D01*
X93435269Y-113960085D01*
X93476473Y-114087367D01*
X93538630Y-114181586D01*
X93625838Y-114255612D01*
X93736519Y-114319416D01*
X93843378Y-114366576D01*
X93955921Y-114395465D01*
X94099344Y-114410131D01*
X94298841Y-114414619D01*
X94329581Y-114414666D01*
X94507590Y-114411903D01*
X94652455Y-114404479D01*
X94744182Y-114393688D01*
X94765111Y-114386444D01*
X94772589Y-114338237D01*
X94779322Y-114216671D01*
X94781065Y-114160666D01*
X94497000Y-114160666D01*
X94232416Y-114160042D01*
X94072870Y-114151203D01*
X93933256Y-114128974D01*
X93862000Y-114105949D01*
X93780864Y-114043901D01*
X93721754Y-113944770D01*
X93682518Y-113798329D01*
X93661005Y-113594348D01*
X93655063Y-113322600D01*
X93657783Y-113134988D01*
X93663954Y-112902046D01*
X93671516Y-112737902D01*
X93683349Y-112626699D01*
X93702330Y-112552582D01*
X93731339Y-112499695D01*
X93773254Y-112452181D01*
X93783642Y-112441725D01*
X93859387Y-112379125D01*
X93949071Y-112340882D01*
X94079495Y-112318322D01*
X94196392Y-112308131D01*
X94497000Y-112286623D01*
X94497000Y-114160666D01*
X94781065Y-114160666D01*
X94785037Y-114033053D01*
X94789460Y-113798688D01*
X94792317Y-113524882D01*
X94793333Y-113222942D01*
X94793333Y-112086333D01*
X94312760Y-112086333D01*
X94097801Y-112088035D01*
G36*
X95755059Y-112077824D02*
G01*
X95554222Y-112174179D01*
X95407351Y-112326114D01*
X95325852Y-112520250D01*
X95315298Y-112597906D01*
X95345669Y-112630080D01*
X95437940Y-112636651D01*
X95448693Y-112636666D01*
X95557319Y-112623723D01*
X95596924Y-112581340D01*
X95597666Y-112571242D01*
X95625782Y-112498488D01*
X95694206Y-112409442D01*
X95701576Y-112401909D01*
X95840580Y-112317901D01*
X96010809Y-112293190D01*
X96182967Y-112327862D01*
X96304389Y-112400115D01*
X96350303Y-112441682D01*
X96382867Y-112484260D01*
X96404792Y-112542629D01*
X96418788Y-112631570D01*
X96427565Y-112765861D01*
X96433832Y-112960284D01*
X96437900Y-113128294D01*
X96441841Y-113438644D01*
X96435447Y-113675970D01*
X96416148Y-113851559D01*
X96381376Y-113976698D01*
X96328559Y-114062673D01*
X96255129Y-114120770D01*
X96206587Y-114144280D01*
X96043372Y-114181307D01*
X95880308Y-114167190D01*
X95737962Y-114110224D01*
X95636897Y-114018703D01*
X95597679Y-113900921D01*
X95597666Y-113898684D01*
X95572828Y-113841016D01*
X95486838Y-113822160D01*
X95473165Y-113822000D01*
X95375833Y-113834453D01*
X95323652Y-113862469D01*
X95321200Y-113935521D01*
X95361537Y-114046156D01*
X95431807Y-114168143D01*
X95519155Y-114275250D01*
X95531943Y-114287499D01*
X95604899Y-114343774D01*
X95689670Y-114377903D01*
X95811455Y-114396683D01*
X95971316Y-114405990D01*
X96151356Y-114408915D01*
X96273347Y-114397689D01*
X96363322Y-114368102D01*
X96423166Y-114332881D01*
X96514918Y-114263377D01*
X96583890Y-114187349D01*
X96633262Y-114092009D01*
X96666212Y-113964566D01*
X96685918Y-113792232D01*
X96695559Y-113562216D01*
X96698314Y-113261730D01*
X96698333Y-113225670D01*
X96697740Y-112955532D01*
X96694947Y-112755992D01*
X96688436Y-112612985D01*
X96676688Y-112512446D01*
X96658182Y-112440309D01*
X96631400Y-112382510D01*
X96602239Y-112336010D01*
X96445057Y-112174201D01*
X96236030Y-112075438D01*
X95999833Y-112044131D01*
X95755059Y-112077824D01*
G37*
X95755059Y-112077824D02*
X95554222Y-112174179D01*
X95407351Y-112326114D01*
X95325852Y-112520250D01*
X95315298Y-112597906D01*
X95345669Y-112630080D01*
X95437940Y-112636651D01*
X95448693Y-112636666D01*
X95557319Y-112623723D01*
X95596924Y-112581340D01*
X95597666Y-112571242D01*
X95625782Y-112498488D01*
X95694206Y-112409442D01*
X95701576Y-112401909D01*
X95840580Y-112317901D01*
X96010809Y-112293190D01*
X96182967Y-112327862D01*
X96304389Y-112400115D01*
X96350303Y-112441682D01*
X96382867Y-112484260D01*
X96404792Y-112542629D01*
X96418788Y-112631570D01*
X96427565Y-112765861D01*
X96433832Y-112960284D01*
X96437900Y-113128294D01*
X96441841Y-113438644D01*
X96435447Y-113675970D01*
X96416148Y-113851559D01*
X96381376Y-113976698D01*
X96328559Y-114062673D01*
X96255129Y-114120770D01*
X96206587Y-114144280D01*
X96043372Y-114181307D01*
X95880308Y-114167190D01*
X95737962Y-114110224D01*
X95636897Y-114018703D01*
X95597679Y-113900921D01*
X95597666Y-113898684D01*
X95572828Y-113841016D01*
X95486838Y-113822160D01*
X95473165Y-113822000D01*
X95375833Y-113834453D01*
X95323652Y-113862469D01*
X95321200Y-113935521D01*
X95361537Y-114046156D01*
X95431807Y-114168143D01*
X95519155Y-114275250D01*
X95531943Y-114287499D01*
X95604899Y-114343774D01*
X95689670Y-114377903D01*
X95811455Y-114396683D01*
X95971316Y-114405990D01*
X96151356Y-114408915D01*
X96273347Y-114397689D01*
X96363322Y-114368102D01*
X96423166Y-114332881D01*
X96514918Y-114263377D01*
X96583890Y-114187349D01*
X96633262Y-114092009D01*
X96666212Y-113964566D01*
X96685918Y-113792232D01*
X96695559Y-113562216D01*
X96698314Y-113261730D01*
X96698333Y-113225670D01*
X96697740Y-112955532D01*
X96694947Y-112755992D01*
X96688436Y-112612985D01*
X96676688Y-112512446D01*
X96658182Y-112440309D01*
X96631400Y-112382510D01*
X96602239Y-112336010D01*
X96445057Y-112174201D01*
X96236030Y-112075438D01*
X95999833Y-112044131D01*
X95755059Y-112077824D01*
G36*
X97655480Y-112079298D02*
G01*
X97449159Y-112181780D01*
X97302427Y-112336010D01*
X97267736Y-112392544D01*
X97242565Y-112451896D01*
X97225395Y-112528132D01*
X97214707Y-112635318D01*
X97208982Y-112787517D01*
X97206700Y-112998797D01*
X97206333Y-113225670D01*
X97207422Y-113503588D01*
X97211496Y-113710830D01*
X97219772Y-113861365D01*
X97233462Y-113969166D01*
X97253782Y-114048203D01*
X97281945Y-114112448D01*
X97283687Y-114115722D01*
X97412132Y-114273731D01*
X97597596Y-114372477D01*
X97842900Y-114413317D01*
X97904833Y-114414666D01*
X98142528Y-114392744D01*
X98304389Y-114337312D01*
X98402801Y-114276351D01*
X98477213Y-114204987D01*
X98530882Y-114111102D01*
X98567067Y-113982580D01*
X98589026Y-113807305D01*
X98600019Y-113573160D01*
X98601447Y-113440370D01*
X98346657Y-113440370D01*
X98339747Y-113679270D01*
X98319779Y-113856079D01*
X98284362Y-113981883D01*
X98231104Y-114067766D01*
X98157615Y-114124814D01*
X98124438Y-114140998D01*
X97972966Y-114191844D01*
X97841465Y-114191066D01*
X97694301Y-114142702D01*
X97610033Y-114093294D01*
X97547342Y-114017945D01*
X97503840Y-113905818D01*
X97477139Y-113746075D01*
X97464850Y-113527880D01*
X97464586Y-113240395D01*
X97467118Y-113111737D01*
X97473177Y-112873300D01*
X97480100Y-112704461D01*
X97490702Y-112590176D01*
X97507798Y-112515399D01*
X97534204Y-112465084D01*
X97572735Y-112424186D01*
X97600277Y-112400115D01*
X97759100Y-112315105D01*
X97941831Y-112295479D01*
X98118590Y-112341240D01*
X98209389Y-112400115D01*
X98255303Y-112441682D01*
X98287867Y-112484260D01*
X98309792Y-112542629D01*
X98323788Y-112631570D01*
X98332565Y-112765861D01*
X98338832Y-112960284D01*
X98342900Y-113128294D01*
X98346657Y-113440370D01*
X98601447Y-113440370D01*
X98603302Y-113268031D01*
X98603333Y-113225670D01*
X98602740Y-112955532D01*
X98599947Y-112755992D01*
X98593436Y-112612985D01*
X98581688Y-112512446D01*
X98563182Y-112440309D01*
X98536400Y-112382510D01*
X98507239Y-112336010D01*
X98350057Y-112174201D01*
X98141030Y-112075438D01*
X97904833Y-112044131D01*
X97655480Y-112079298D01*
G37*
X97655480Y-112079298D02*
X97449159Y-112181780D01*
X97302427Y-112336010D01*
X97267736Y-112392544D01*
X97242565Y-112451896D01*
X97225395Y-112528132D01*
X97214707Y-112635318D01*
X97208982Y-112787517D01*
X97206700Y-112998797D01*
X97206333Y-113225670D01*
X97207422Y-113503588D01*
X97211496Y-113710830D01*
X97219772Y-113861365D01*
X97233462Y-113969166D01*
X97253782Y-114048203D01*
X97281945Y-114112448D01*
X97283687Y-114115722D01*
X97412132Y-114273731D01*
X97597596Y-114372477D01*
X97842900Y-114413317D01*
X97904833Y-114414666D01*
X98142528Y-114392744D01*
X98304389Y-114337312D01*
X98402801Y-114276351D01*
X98477213Y-114204987D01*
X98530882Y-114111102D01*
X98567067Y-113982580D01*
X98589026Y-113807305D01*
X98600019Y-113573160D01*
X98601447Y-113440370D01*
X98346657Y-113440370D01*
X98339747Y-113679270D01*
X98319779Y-113856079D01*
X98284362Y-113981883D01*
X98231104Y-114067766D01*
X98157615Y-114124814D01*
X98124438Y-114140998D01*
X97972966Y-114191844D01*
X97841465Y-114191066D01*
X97694301Y-114142702D01*
X97610033Y-114093294D01*
X97547342Y-114017945D01*
X97503840Y-113905818D01*
X97477139Y-113746075D01*
X97464850Y-113527880D01*
X97464586Y-113240395D01*
X97467118Y-113111737D01*
X97473177Y-112873300D01*
X97480100Y-112704461D01*
X97490702Y-112590176D01*
X97507798Y-112515399D01*
X97534204Y-112465084D01*
X97572735Y-112424186D01*
X97600277Y-112400115D01*
X97759100Y-112315105D01*
X97941831Y-112295479D01*
X98118590Y-112341240D01*
X98209389Y-112400115D01*
X98255303Y-112441682D01*
X98287867Y-112484260D01*
X98309792Y-112542629D01*
X98323788Y-112631570D01*
X98332565Y-112765861D01*
X98338832Y-112960284D01*
X98342900Y-113128294D01*
X98346657Y-113440370D01*
X98601447Y-113440370D01*
X98603302Y-113268031D01*
X98603333Y-113225670D01*
X98602740Y-112955532D01*
X98599947Y-112755992D01*
X98593436Y-112612985D01*
X98581688Y-112512446D01*
X98563182Y-112440309D01*
X98536400Y-112382510D01*
X98507239Y-112336010D01*
X98350057Y-112174201D01*
X98141030Y-112075438D01*
X97904833Y-112044131D01*
X97655480Y-112079298D01*
G36*
X99565348Y-112077776D02*
G01*
X99364350Y-112174073D01*
X99217427Y-112325951D01*
X99135852Y-112520250D01*
X99125298Y-112597906D01*
X99155669Y-112630080D01*
X99247940Y-112636651D01*
X99258693Y-112636666D01*
X99367319Y-112623723D01*
X99406924Y-112581340D01*
X99407666Y-112571242D01*
X99435782Y-112498488D01*
X99504206Y-112409442D01*
X99511576Y-112401909D01*
X99609883Y-112329839D01*
X99734260Y-112300660D01*
X99809833Y-112298000D01*
X99994340Y-112330600D01*
X100127467Y-112417753D01*
X100202338Y-112543487D01*
X100212079Y-112691831D01*
X100149817Y-112846812D01*
X100081743Y-112929743D01*
X99990918Y-113009971D01*
X99918436Y-113055858D01*
X99901827Y-113060033D01*
X99801353Y-113084190D01*
X99661054Y-113146591D01*
X99506966Y-113232270D01*
X99365124Y-113326263D01*
X99261562Y-113413608D01*
X99237875Y-113441642D01*
X99144709Y-113635188D01*
X99119654Y-113841655D01*
X99158884Y-114041160D01*
X99258572Y-114213820D01*
X99410277Y-114337312D01*
X99576130Y-114393310D01*
X99780800Y-114416360D01*
X99990769Y-114406688D01*
X100172518Y-114364521D01*
X100241695Y-114331713D01*
X100372986Y-114216929D01*
X100468688Y-114067794D01*
X100508199Y-113916985D01*
X100508333Y-113908768D01*
X100487437Y-113843636D01*
X100410646Y-113823105D01*
X100391916Y-113822916D01*
X100297190Y-113845367D01*
X100229790Y-113924982D01*
X100212000Y-113960499D01*
X100113173Y-114086231D01*
X99971542Y-114161973D01*
X99809379Y-114187530D01*
X99648953Y-114162702D01*
X99512537Y-114087293D01*
X99424984Y-113967484D01*
X99390045Y-113792976D01*
X99435772Y-113638078D01*
X99559322Y-113508461D01*
X99691987Y-113435205D01*
X99920339Y-113334773D01*
X100084747Y-113255072D01*
X100200356Y-113186611D01*
X100282313Y-113119900D01*
X100345762Y-113045451D01*
X100370015Y-113010377D01*
X100464859Y-112802334D01*
X100483135Y-112596609D01*
X100432285Y-112406051D01*
X100319750Y-112243513D01*
X100152973Y-112121845D01*
X99939393Y-112053901D01*
X99810494Y-112044065D01*
X99565348Y-112077776D01*
G37*
X99565348Y-112077776D02*
X99364350Y-112174073D01*
X99217427Y-112325951D01*
X99135852Y-112520250D01*
X99125298Y-112597906D01*
X99155669Y-112630080D01*
X99247940Y-112636651D01*
X99258693Y-112636666D01*
X99367319Y-112623723D01*
X99406924Y-112581340D01*
X99407666Y-112571242D01*
X99435782Y-112498488D01*
X99504206Y-112409442D01*
X99511576Y-112401909D01*
X99609883Y-112329839D01*
X99734260Y-112300660D01*
X99809833Y-112298000D01*
X99994340Y-112330600D01*
X100127467Y-112417753D01*
X100202338Y-112543487D01*
X100212079Y-112691831D01*
X100149817Y-112846812D01*
X100081743Y-112929743D01*
X99990918Y-113009971D01*
X99918436Y-113055858D01*
X99901827Y-113060033D01*
X99801353Y-113084190D01*
X99661054Y-113146591D01*
X99506966Y-113232270D01*
X99365124Y-113326263D01*
X99261562Y-113413608D01*
X99237875Y-113441642D01*
X99144709Y-113635188D01*
X99119654Y-113841655D01*
X99158884Y-114041160D01*
X99258572Y-114213820D01*
X99410277Y-114337312D01*
X99576130Y-114393310D01*
X99780800Y-114416360D01*
X99990769Y-114406688D01*
X100172518Y-114364521D01*
X100241695Y-114331713D01*
X100372986Y-114216929D01*
X100468688Y-114067794D01*
X100508199Y-113916985D01*
X100508333Y-113908768D01*
X100487437Y-113843636D01*
X100410646Y-113823105D01*
X100391916Y-113822916D01*
X100297190Y-113845367D01*
X100229790Y-113924982D01*
X100212000Y-113960499D01*
X100113173Y-114086231D01*
X99971542Y-114161973D01*
X99809379Y-114187530D01*
X99648953Y-114162702D01*
X99512537Y-114087293D01*
X99424984Y-113967484D01*
X99390045Y-113792976D01*
X99435772Y-113638078D01*
X99559322Y-113508461D01*
X99691987Y-113435205D01*
X99920339Y-113334773D01*
X100084747Y-113255072D01*
X100200356Y-113186611D01*
X100282313Y-113119900D01*
X100345762Y-113045451D01*
X100370015Y-113010377D01*
X100464859Y-112802334D01*
X100483135Y-112596609D01*
X100432285Y-112406051D01*
X100319750Y-112243513D01*
X100152973Y-112121845D01*
X99939393Y-112053901D01*
X99810494Y-112044065D01*
X99565348Y-112077776D01*
G36*
X103086936Y-113964854D02*
G01*
X102972084Y-114025537D01*
X102925172Y-114081705D01*
X102886687Y-114170176D01*
X102898975Y-114242325D01*
X102935411Y-114303955D01*
X103022903Y-114390242D01*
X103146676Y-114414666D01*
X103258558Y-114400014D01*
X103335360Y-114364688D01*
X103336200Y-114363866D01*
X103376723Y-114275890D01*
X103384224Y-114154822D01*
X103359831Y-114042724D01*
X103326265Y-113993628D01*
X103216920Y-113951599D01*
X103086936Y-113964854D01*
G37*
X103086936Y-113964854D02*
X102972084Y-114025537D01*
X102925172Y-114081705D01*
X102886687Y-114170176D01*
X102898975Y-114242325D01*
X102935411Y-114303955D01*
X103022903Y-114390242D01*
X103146676Y-114414666D01*
X103258558Y-114400014D01*
X103335360Y-114364688D01*
X103336200Y-114363866D01*
X103376723Y-114275890D01*
X103384224Y-114154822D01*
X103359831Y-114042724D01*
X103326265Y-113993628D01*
X103216920Y-113951599D01*
X103086936Y-113964854D01*
G36*
X104805360Y-112079699D02*
G01*
X104607651Y-112178788D01*
X104464236Y-112329877D01*
X104382537Y-112521506D01*
X104369975Y-112742220D01*
X104433972Y-112980560D01*
X104437738Y-112989189D01*
X104501852Y-113107319D01*
X104589473Y-113207519D01*
X104721732Y-113311378D01*
X104812944Y-113372558D01*
X105049811Y-113538979D01*
X105219039Y-113689600D01*
X105332769Y-113836959D01*
X105397307Y-113975977D01*
X105453586Y-114139500D01*
X104360666Y-114163124D01*
X104360666Y-114414666D01*
X105715333Y-114414666D01*
X105715333Y-114201640D01*
X105684040Y-113943276D01*
X105586480Y-113713804D01*
X105417133Y-113505031D01*
X105170479Y-113308762D01*
X105071017Y-113245244D01*
X104875782Y-113113157D01*
X104749542Y-112991116D01*
X104680609Y-112863515D01*
X104657291Y-112714746D01*
X104657000Y-112692533D01*
X104687630Y-112506118D01*
X104779139Y-112378508D01*
X104930955Y-112310263D01*
X105059167Y-112297999D01*
X105207991Y-112312028D01*
X105313465Y-112362926D01*
X105357424Y-112401909D01*
X105428321Y-112490508D01*
X105461073Y-112566341D01*
X105461333Y-112571242D01*
X105492300Y-112619953D01*
X105592202Y-112636578D01*
X105603629Y-112636666D01*
X105698898Y-112630314D01*
X105731650Y-112597171D01*
X105724610Y-112520250D01*
X105649199Y-112323701D01*
X105508576Y-112174864D01*
X105311190Y-112079700D01*
X105065487Y-112044171D01*
X105049943Y-112044065D01*
X104805360Y-112079699D01*
G37*
X104805360Y-112079699D02*
X104607651Y-112178788D01*
X104464236Y-112329877D01*
X104382537Y-112521506D01*
X104369975Y-112742220D01*
X104433972Y-112980560D01*
X104437738Y-112989189D01*
X104501852Y-113107319D01*
X104589473Y-113207519D01*
X104721732Y-113311378D01*
X104812944Y-113372558D01*
X105049811Y-113538979D01*
X105219039Y-113689600D01*
X105332769Y-113836959D01*
X105397307Y-113975977D01*
X105453586Y-114139500D01*
X104360666Y-114163124D01*
X104360666Y-114414666D01*
X105715333Y-114414666D01*
X105715333Y-114201640D01*
X105684040Y-113943276D01*
X105586480Y-113713804D01*
X105417133Y-113505031D01*
X105170479Y-113308762D01*
X105071017Y-113245244D01*
X104875782Y-113113157D01*
X104749542Y-112991116D01*
X104680609Y-112863515D01*
X104657291Y-112714746D01*
X104657000Y-112692533D01*
X104687630Y-112506118D01*
X104779139Y-112378508D01*
X104930955Y-112310263D01*
X105059167Y-112297999D01*
X105207991Y-112312028D01*
X105313465Y-112362926D01*
X105357424Y-112401909D01*
X105428321Y-112490508D01*
X105461073Y-112566341D01*
X105461333Y-112571242D01*
X105492300Y-112619953D01*
X105592202Y-112636578D01*
X105603629Y-112636666D01*
X105698898Y-112630314D01*
X105731650Y-112597171D01*
X105724610Y-112520250D01*
X105649199Y-112323701D01*
X105508576Y-112174864D01*
X105311190Y-112079700D01*
X105065487Y-112044171D01*
X105049943Y-112044065D01*
X104805360Y-112079699D01*
G36*
X88721341Y-116036306D02*
G01*
X88661613Y-116134841D01*
X88655000Y-116190269D01*
X88687626Y-116304920D01*
X88768507Y-116380609D01*
X88872147Y-116404729D01*
X88973049Y-116364674D01*
X88985200Y-116353533D01*
X89032659Y-116256096D01*
X89028317Y-116139690D01*
X88976788Y-116043483D01*
X88945978Y-116020467D01*
X88823990Y-115993594D01*
X88721341Y-116036306D01*
G37*
X88721341Y-116036306D02*
X88661613Y-116134841D01*
X88655000Y-116190269D01*
X88687626Y-116304920D01*
X88768507Y-116380609D01*
X88872147Y-116404729D01*
X88973049Y-116364674D01*
X88985200Y-116353533D01*
X89032659Y-116256096D01*
X89028317Y-116139690D01*
X88976788Y-116043483D01*
X88945978Y-116020467D01*
X88823990Y-115993594D01*
X88721341Y-116036306D01*
G36*
X103092679Y-116669079D02*
G01*
X102984578Y-116722901D01*
X102911217Y-116814877D01*
X102895757Y-116932764D01*
X102898815Y-116947751D01*
X102963020Y-117074425D01*
X103067963Y-117149896D01*
X103190103Y-117165677D01*
X103305901Y-117113278D01*
X103320476Y-117099809D01*
X103375467Y-116992816D01*
X103380835Y-116859880D01*
X103336582Y-116743658D01*
X103320476Y-116724857D01*
X103212365Y-116665650D01*
X103092679Y-116669079D01*
G37*
X103092679Y-116669079D02*
X102984578Y-116722901D01*
X102911217Y-116814877D01*
X102895757Y-116932764D01*
X102898815Y-116947751D01*
X102963020Y-117074425D01*
X103067963Y-117149896D01*
X103190103Y-117165677D01*
X103305901Y-117113278D01*
X103320476Y-117099809D01*
X103375467Y-116992816D01*
X103380835Y-116859880D01*
X103336582Y-116743658D01*
X103320476Y-116724857D01*
X103212365Y-116665650D01*
X103092679Y-116669079D01*
G36*
X85861000Y-117469489D02*
G01*
X85638750Y-117223689D01*
X85510886Y-117082179D01*
X85386384Y-116944228D01*
X85291497Y-116838924D01*
X85288977Y-116836123D01*
X85195454Y-116745668D01*
X85109946Y-116708697D01*
X84995240Y-116708094D01*
X84829026Y-116721833D01*
X85078347Y-116997000D01*
X85202404Y-117134276D01*
X85313555Y-117257905D01*
X85392764Y-117346696D01*
X85407984Y-117363979D01*
X85439706Y-117403832D01*
X85452280Y-117442640D01*
X85439463Y-117493764D01*
X85395012Y-117570567D01*
X85312684Y-117686409D01*
X85186238Y-117854652D01*
X85166650Y-117880519D01*
X85044345Y-118045371D01*
X84943430Y-118187774D01*
X84873766Y-118293347D01*
X84845216Y-118347707D01*
X84845000Y-118349624D01*
X84881770Y-118380808D01*
X84970335Y-118393997D01*
X84971679Y-118394000D01*
X85035922Y-118385207D01*
X85099909Y-118351062D01*
X85176860Y-118279915D01*
X85279993Y-118160115D01*
X85380868Y-118033384D01*
X85663378Y-117672769D01*
X85760315Y-117763836D01*
X85819555Y-117839030D01*
X85852935Y-117941879D01*
X85868996Y-118099713D01*
X85869709Y-118113868D01*
X85878971Y-118256751D01*
X85895840Y-118335782D01*
X85930168Y-118371745D01*
X85991809Y-118385427D01*
X85998824Y-118386251D01*
X86095943Y-118377785D01*
X86137129Y-118343255D01*
X86142504Y-118287233D01*
X86146545Y-118158314D01*
X86149148Y-117968262D01*
X86150210Y-117728839D01*
X86149629Y-117451806D01*
X86147472Y-117165670D01*
X86136166Y-116044500D01*
X85861000Y-116017968D01*
X85861000Y-117469489D01*
G37*
X85861000Y-117469489D02*
X85638750Y-117223689D01*
X85510886Y-117082179D01*
X85386384Y-116944228D01*
X85291497Y-116838924D01*
X85288977Y-116836123D01*
X85195454Y-116745668D01*
X85109946Y-116708697D01*
X84995240Y-116708094D01*
X84829026Y-116721833D01*
X85078347Y-116997000D01*
X85202404Y-117134276D01*
X85313555Y-117257905D01*
X85392764Y-117346696D01*
X85407984Y-117363979D01*
X85439706Y-117403832D01*
X85452280Y-117442640D01*
X85439463Y-117493764D01*
X85395012Y-117570567D01*
X85312684Y-117686409D01*
X85186238Y-117854652D01*
X85166650Y-117880519D01*
X85044345Y-118045371D01*
X84943430Y-118187774D01*
X84873766Y-118293347D01*
X84845216Y-118347707D01*
X84845000Y-118349624D01*
X84881770Y-118380808D01*
X84970335Y-118393997D01*
X84971679Y-118394000D01*
X85035922Y-118385207D01*
X85099909Y-118351062D01*
X85176860Y-118279915D01*
X85279993Y-118160115D01*
X85380868Y-118033384D01*
X85663378Y-117672769D01*
X85760315Y-117763836D01*
X85819555Y-117839030D01*
X85852935Y-117941879D01*
X85868996Y-118099713D01*
X85869709Y-118113868D01*
X85878971Y-118256751D01*
X85895840Y-118335782D01*
X85930168Y-118371745D01*
X85991809Y-118385427D01*
X85998824Y-118386251D01*
X86095943Y-118377785D01*
X86137129Y-118343255D01*
X86142504Y-118287233D01*
X86146545Y-118158314D01*
X86149148Y-117968262D01*
X86150210Y-117728839D01*
X86149629Y-117451806D01*
X86147472Y-117165670D01*
X86136166Y-116044500D01*
X85861000Y-116017968D01*
X85861000Y-117469489D01*
G36*
X87276850Y-116676825D02*
G01*
X87065495Y-116744918D01*
X86899446Y-116865007D01*
X86792125Y-117029142D01*
X86766627Y-117114948D01*
X86754292Y-117207836D01*
X86781812Y-117244555D01*
X86866572Y-117251000D01*
X86969615Y-117231327D01*
X87032063Y-117156343D01*
X87044059Y-117129491D01*
X87137351Y-117003407D01*
X87276735Y-116929353D01*
X87439169Y-116910479D01*
X87601609Y-116949938D01*
X87726923Y-117036076D01*
X87788571Y-117103536D01*
X87825427Y-117169586D01*
X87843823Y-117258198D01*
X87850092Y-117393346D01*
X87850666Y-117504526D01*
X87838866Y-117755909D01*
X87799182Y-117935192D01*
X87725190Y-118052179D01*
X87610469Y-118116671D01*
X87448593Y-118138471D01*
X87435133Y-118138653D01*
X87258672Y-118124138D01*
X87141473Y-118070118D01*
X87063074Y-117965590D01*
X87047003Y-117929951D01*
X86989360Y-117835667D01*
X86905307Y-117802722D01*
X86871864Y-117801333D01*
X86782837Y-117818275D01*
X86751629Y-117875798D01*
X86776144Y-117983947D01*
X86815033Y-118073752D01*
X86927079Y-118218178D01*
X87094259Y-118323456D01*
X87294203Y-118384521D01*
X87504543Y-118396308D01*
X87702910Y-118353752D01*
X87808764Y-118298750D01*
X87942326Y-118197888D01*
X88032678Y-118097028D01*
X88087923Y-117976428D01*
X88116164Y-117816344D01*
X88125502Y-117597034D01*
X88125833Y-117526166D01*
X88123576Y-117319622D01*
X88114734Y-117177912D01*
X88096201Y-117081274D01*
X88064869Y-117009948D01*
X88038551Y-116970970D01*
X87872394Y-116798379D01*
X87679947Y-116699560D01*
X87520089Y-116668676D01*
X87276850Y-116676825D01*
G37*
X87276850Y-116676825D02*
X87065495Y-116744918D01*
X86899446Y-116865007D01*
X86792125Y-117029142D01*
X86766627Y-117114948D01*
X86754292Y-117207836D01*
X86781812Y-117244555D01*
X86866572Y-117251000D01*
X86969615Y-117231327D01*
X87032063Y-117156343D01*
X87044059Y-117129491D01*
X87137351Y-117003407D01*
X87276735Y-116929353D01*
X87439169Y-116910479D01*
X87601609Y-116949938D01*
X87726923Y-117036076D01*
X87788571Y-117103536D01*
X87825427Y-117169586D01*
X87843823Y-117258198D01*
X87850092Y-117393346D01*
X87850666Y-117504526D01*
X87838866Y-117755909D01*
X87799182Y-117935192D01*
X87725190Y-118052179D01*
X87610469Y-118116671D01*
X87448593Y-118138471D01*
X87435133Y-118138653D01*
X87258672Y-118124138D01*
X87141473Y-118070118D01*
X87063074Y-117965590D01*
X87047003Y-117929951D01*
X86989360Y-117835667D01*
X86905307Y-117802722D01*
X86871864Y-117801333D01*
X86782837Y-117818275D01*
X86751629Y-117875798D01*
X86776144Y-117983947D01*
X86815033Y-118073752D01*
X86927079Y-118218178D01*
X87094259Y-118323456D01*
X87294203Y-118384521D01*
X87504543Y-118396308D01*
X87702910Y-118353752D01*
X87808764Y-118298750D01*
X87942326Y-118197888D01*
X88032678Y-118097028D01*
X88087923Y-117976428D01*
X88116164Y-117816344D01*
X88125502Y-117597034D01*
X88125833Y-117526166D01*
X88123576Y-117319622D01*
X88114734Y-117177912D01*
X88096201Y-117081274D01*
X88064869Y-117009948D01*
X88038551Y-116970970D01*
X87872394Y-116798379D01*
X87679947Y-116699560D01*
X87520089Y-116668676D01*
X87276850Y-116676825D01*
G36*
X88707022Y-117536750D02*
G01*
X88718500Y-118372833D01*
X88825917Y-118385360D01*
X88918389Y-118384230D01*
X88963501Y-118367721D01*
X88972854Y-118317861D01*
X88981026Y-118196868D01*
X88987538Y-118018271D01*
X88991908Y-117795601D01*
X88993654Y-117542388D01*
X88993666Y-117519111D01*
X88993666Y-116700666D01*
X88695543Y-116700666D01*
X88707022Y-117536750D01*
G37*
X88707022Y-117536750D02*
X88718500Y-118372833D01*
X88825917Y-118385360D01*
X88918389Y-118384230D01*
X88963501Y-118367721D01*
X88972854Y-118317861D01*
X88981026Y-118196868D01*
X88987538Y-118018271D01*
X88991908Y-117795601D01*
X88993654Y-117542388D01*
X88993666Y-117519111D01*
X88993666Y-116700666D01*
X88695543Y-116700666D01*
X88707022Y-117536750D01*
G36*
X89958531Y-116351416D02*
G01*
X89946166Y-116679500D01*
X89702750Y-116692195D01*
X89565418Y-116702234D01*
X89492544Y-116720397D01*
X89463934Y-116756345D01*
X89459333Y-116808612D01*
X89464988Y-116866115D01*
X89495192Y-116897163D01*
X89569805Y-116909865D01*
X89708688Y-116912332D01*
X89713333Y-116912333D01*
X89967333Y-116912333D01*
X89967333Y-117459642D01*
X89964865Y-117713943D01*
X89953668Y-117895712D01*
X89928049Y-118017029D01*
X89882317Y-118089975D01*
X89810783Y-118126631D01*
X89707753Y-118139077D01*
X89646809Y-118140000D01*
X89530865Y-118143840D01*
X89476401Y-118165818D01*
X89460264Y-118221617D01*
X89459333Y-118267000D01*
X89465155Y-118346536D01*
X89498350Y-118382463D01*
X89582511Y-118390936D01*
X89639250Y-118390182D01*
X89791516Y-118377898D01*
X89934410Y-118352580D01*
X89954853Y-118347129D01*
X90051228Y-118311673D01*
X90121352Y-118260949D01*
X90169301Y-118182257D01*
X90199150Y-118062898D01*
X90214974Y-117890173D01*
X90220849Y-117651380D01*
X90221333Y-117516747D01*
X90221333Y-116912333D01*
X90433000Y-116912333D01*
X90558695Y-116908814D01*
X90621405Y-116891211D01*
X90642738Y-116848958D01*
X90644666Y-116808819D01*
X90635899Y-116745419D01*
X90594949Y-116712226D01*
X90499840Y-116696519D01*
X90443583Y-116692402D01*
X90242500Y-116679500D01*
X90230136Y-116351416D01*
X90217772Y-116023333D01*
X89970895Y-116023333D01*
X89958531Y-116351416D01*
G37*
X89958531Y-116351416D02*
X89946166Y-116679500D01*
X89702750Y-116692195D01*
X89565418Y-116702234D01*
X89492544Y-116720397D01*
X89463934Y-116756345D01*
X89459333Y-116808612D01*
X89464988Y-116866115D01*
X89495192Y-116897163D01*
X89569805Y-116909865D01*
X89708688Y-116912332D01*
X89713333Y-116912333D01*
X89967333Y-116912333D01*
X89967333Y-117459642D01*
X89964865Y-117713943D01*
X89953668Y-117895712D01*
X89928049Y-118017029D01*
X89882317Y-118089975D01*
X89810783Y-118126631D01*
X89707753Y-118139077D01*
X89646809Y-118140000D01*
X89530865Y-118143840D01*
X89476401Y-118165818D01*
X89460264Y-118221617D01*
X89459333Y-118267000D01*
X89465155Y-118346536D01*
X89498350Y-118382463D01*
X89582511Y-118390936D01*
X89639250Y-118390182D01*
X89791516Y-118377898D01*
X89934410Y-118352580D01*
X89954853Y-118347129D01*
X90051228Y-118311673D01*
X90121352Y-118260949D01*
X90169301Y-118182257D01*
X90199150Y-118062898D01*
X90214974Y-117890173D01*
X90220849Y-117651380D01*
X90221333Y-117516747D01*
X90221333Y-116912333D01*
X90433000Y-116912333D01*
X90558695Y-116908814D01*
X90621405Y-116891211D01*
X90642738Y-116848958D01*
X90644666Y-116808819D01*
X90635899Y-116745419D01*
X90594949Y-116712226D01*
X90499840Y-116696519D01*
X90443583Y-116692402D01*
X90242500Y-116679500D01*
X90230136Y-116351416D01*
X90217772Y-116023333D01*
X89970895Y-116023333D01*
X89958531Y-116351416D01*
G36*
X91464883Y-116051807D02*
G01*
X91266585Y-116137975D01*
X91125937Y-116283283D01*
X91103021Y-116322277D01*
X91037310Y-116469716D01*
X91030877Y-116562690D01*
X91084913Y-116608333D01*
X91152098Y-116616000D01*
X91245598Y-116600721D01*
X91306194Y-116539391D01*
X91339396Y-116470327D01*
X91403120Y-116363154D01*
X91500738Y-116301086D01*
X91571250Y-116278612D01*
X91760200Y-116260624D01*
X91921723Y-116305942D01*
X92041921Y-116403518D01*
X92106897Y-116542304D01*
X92104719Y-116702704D01*
X92056703Y-116815962D01*
X91958692Y-116916418D01*
X91798799Y-117013629D01*
X91614021Y-117097276D01*
X91361849Y-117223757D01*
X91186239Y-117366378D01*
X91079444Y-117533477D01*
X91034821Y-117720955D01*
X91042909Y-117949734D01*
X91118314Y-118129271D01*
X91264134Y-118265497D01*
X91341632Y-118308590D01*
X91543915Y-118372250D01*
X91770449Y-118390565D01*
X91982965Y-118362173D01*
X92062833Y-118334240D01*
X92236707Y-118219774D01*
X92359954Y-118062839D01*
X92406140Y-117936881D01*
X92418841Y-117847283D01*
X92393721Y-117809636D01*
X92309792Y-117801425D01*
X92279791Y-117801333D01*
X92174951Y-117810444D01*
X92131745Y-117845506D01*
X92126333Y-117882927D01*
X92087864Y-117982262D01*
X91986754Y-118064147D01*
X91844452Y-118121018D01*
X91682404Y-118145310D01*
X91522058Y-118129457D01*
X91472063Y-118113703D01*
X91397954Y-118050953D01*
X91329318Y-117940467D01*
X91285832Y-117817974D01*
X91279666Y-117764350D01*
X91317220Y-117648376D01*
X91417371Y-117527496D01*
X91561359Y-117420234D01*
X91690831Y-117358381D01*
X91980980Y-117225372D01*
X92191057Y-117068811D01*
X92322839Y-116886807D01*
X92378100Y-116677469D01*
X92380175Y-116624481D01*
X92347013Y-116394186D01*
X92248815Y-116217199D01*
X92088176Y-116095899D01*
X91867695Y-116032661D01*
X91723506Y-116023491D01*
X91464883Y-116051807D01*
G37*
X91464883Y-116051807D02*
X91266585Y-116137975D01*
X91125937Y-116283283D01*
X91103021Y-116322277D01*
X91037310Y-116469716D01*
X91030877Y-116562690D01*
X91084913Y-116608333D01*
X91152098Y-116616000D01*
X91245598Y-116600721D01*
X91306194Y-116539391D01*
X91339396Y-116470327D01*
X91403120Y-116363154D01*
X91500738Y-116301086D01*
X91571250Y-116278612D01*
X91760200Y-116260624D01*
X91921723Y-116305942D01*
X92041921Y-116403518D01*
X92106897Y-116542304D01*
X92104719Y-116702704D01*
X92056703Y-116815962D01*
X91958692Y-116916418D01*
X91798799Y-117013629D01*
X91614021Y-117097276D01*
X91361849Y-117223757D01*
X91186239Y-117366378D01*
X91079444Y-117533477D01*
X91034821Y-117720955D01*
X91042909Y-117949734D01*
X91118314Y-118129271D01*
X91264134Y-118265497D01*
X91341632Y-118308590D01*
X91543915Y-118372250D01*
X91770449Y-118390565D01*
X91982965Y-118362173D01*
X92062833Y-118334240D01*
X92236707Y-118219774D01*
X92359954Y-118062839D01*
X92406140Y-117936881D01*
X92418841Y-117847283D01*
X92393721Y-117809636D01*
X92309792Y-117801425D01*
X92279791Y-117801333D01*
X92174951Y-117810444D01*
X92131745Y-117845506D01*
X92126333Y-117882927D01*
X92087864Y-117982262D01*
X91986754Y-118064147D01*
X91844452Y-118121018D01*
X91682404Y-118145310D01*
X91522058Y-118129457D01*
X91472063Y-118113703D01*
X91397954Y-118050953D01*
X91329318Y-117940467D01*
X91285832Y-117817974D01*
X91279666Y-117764350D01*
X91317220Y-117648376D01*
X91417371Y-117527496D01*
X91561359Y-117420234D01*
X91690831Y-117358381D01*
X91980980Y-117225372D01*
X92191057Y-117068811D01*
X92322839Y-116886807D01*
X92378100Y-116677469D01*
X92380175Y-116624481D01*
X92347013Y-116394186D01*
X92248815Y-116217199D01*
X92088176Y-116095899D01*
X91867695Y-116032661D01*
X91723506Y-116023491D01*
X91464883Y-116051807D01*
G36*
X94867416Y-116031234D02*
G01*
X94729833Y-116044500D01*
X94705105Y-116700666D01*
X94452886Y-116700666D01*
X94312729Y-116702944D01*
X94237273Y-116715359D01*
X94206569Y-116746281D01*
X94200669Y-116804080D01*
X94200666Y-116806500D01*
X94206045Y-116865154D01*
X94235433Y-116896821D01*
X94308712Y-116909785D01*
X94445764Y-116912330D01*
X94454666Y-116912333D01*
X94708666Y-116912333D01*
X94708666Y-117475366D01*
X94704868Y-117750328D01*
X94693331Y-117943501D01*
X94673846Y-118057429D01*
X94657866Y-118089200D01*
X94587790Y-118119212D01*
X94467953Y-118137447D01*
X94401055Y-118140000D01*
X94278297Y-118142847D01*
X94219576Y-118159695D01*
X94204276Y-118203005D01*
X94208438Y-118256416D01*
X94226738Y-118332068D01*
X94275567Y-118366709D01*
X94381004Y-118377696D01*
X94391166Y-118378027D01*
X94532747Y-118376848D01*
X94658014Y-118367152D01*
X94671707Y-118365135D01*
X94778738Y-118321586D01*
X94881897Y-118241801D01*
X94883373Y-118240242D01*
X94922970Y-118193251D01*
X94951034Y-118140263D01*
X94970000Y-118065987D01*
X94982300Y-117955132D01*
X94990369Y-117792407D01*
X94996639Y-117562520D01*
X94997540Y-117522885D01*
X95011246Y-116912333D01*
X95198623Y-116912333D01*
X95314955Y-116907774D01*
X95369602Y-116885494D01*
X95385412Y-116832591D01*
X95386000Y-116806500D01*
X95378104Y-116741192D01*
X95339293Y-116710250D01*
X95246882Y-116701070D01*
X95195500Y-116700666D01*
X95005000Y-116700666D01*
X95005000Y-116017968D01*
X94867416Y-116031234D01*
G37*
X94867416Y-116031234D02*
X94729833Y-116044500D01*
X94705105Y-116700666D01*
X94452886Y-116700666D01*
X94312729Y-116702944D01*
X94237273Y-116715359D01*
X94206569Y-116746281D01*
X94200669Y-116804080D01*
X94200666Y-116806500D01*
X94206045Y-116865154D01*
X94235433Y-116896821D01*
X94308712Y-116909785D01*
X94445764Y-116912330D01*
X94454666Y-116912333D01*
X94708666Y-116912333D01*
X94708666Y-117475366D01*
X94704868Y-117750328D01*
X94693331Y-117943501D01*
X94673846Y-118057429D01*
X94657866Y-118089200D01*
X94587790Y-118119212D01*
X94467953Y-118137447D01*
X94401055Y-118140000D01*
X94278297Y-118142847D01*
X94219576Y-118159695D01*
X94204276Y-118203005D01*
X94208438Y-118256416D01*
X94226738Y-118332068D01*
X94275567Y-118366709D01*
X94381004Y-118377696D01*
X94391166Y-118378027D01*
X94532747Y-118376848D01*
X94658014Y-118367152D01*
X94671707Y-118365135D01*
X94778738Y-118321586D01*
X94881897Y-118241801D01*
X94883373Y-118240242D01*
X94922970Y-118193251D01*
X94951034Y-118140263D01*
X94970000Y-118065987D01*
X94982300Y-117955132D01*
X94990369Y-117792407D01*
X94996639Y-117562520D01*
X94997540Y-117522885D01*
X95011246Y-116912333D01*
X95198623Y-116912333D01*
X95314955Y-116907774D01*
X95369602Y-116885494D01*
X95385412Y-116832591D01*
X95386000Y-116806500D01*
X95378104Y-116741192D01*
X95339293Y-116710250D01*
X95246882Y-116701070D01*
X95195500Y-116700666D01*
X95005000Y-116700666D01*
X95005000Y-116017968D01*
X94867416Y-116031234D01*
G36*
X95769997Y-116026093D02*
G01*
X95706821Y-116042829D01*
X95684847Y-116086223D01*
X95682333Y-116148121D01*
X95687365Y-116221000D01*
X95716643Y-116259715D01*
X95791439Y-116277435D01*
X95904583Y-116285704D01*
X96126833Y-116298500D01*
X96139529Y-116541916D01*
X96152225Y-116785333D01*
X95917279Y-116785333D01*
X95783411Y-116787412D01*
X95713462Y-116801126D01*
X95686685Y-116837688D01*
X95682334Y-116908315D01*
X95682333Y-116912333D01*
X95686276Y-116985061D01*
X95712028Y-117022839D01*
X95780478Y-117037114D01*
X95912513Y-117039333D01*
X96145850Y-117039333D01*
X96169166Y-118372833D01*
X96276584Y-118385360D01*
X96369056Y-118384230D01*
X96414167Y-118367721D01*
X96424627Y-118316942D01*
X96433513Y-118196916D01*
X96440137Y-118023058D01*
X96443814Y-117810785D01*
X96444333Y-117690878D01*
X96444333Y-117044201D01*
X96624250Y-117031184D01*
X96739093Y-117016709D01*
X96794500Y-116984163D01*
X96815691Y-116916658D01*
X96817562Y-116901750D01*
X96820214Y-116830598D01*
X96792383Y-116796598D01*
X96712934Y-116786071D01*
X96637645Y-116785333D01*
X96444333Y-116785333D01*
X96444333Y-116601150D01*
X96420934Y-116364339D01*
X96347396Y-116193886D01*
X96218710Y-116084510D01*
X96029868Y-116030932D01*
X95896102Y-116023333D01*
X95769997Y-116026093D01*
G37*
X95769997Y-116026093D02*
X95706821Y-116042829D01*
X95684847Y-116086223D01*
X95682333Y-116148121D01*
X95687365Y-116221000D01*
X95716643Y-116259715D01*
X95791439Y-116277435D01*
X95904583Y-116285704D01*
X96126833Y-116298500D01*
X96139529Y-116541916D01*
X96152225Y-116785333D01*
X95917279Y-116785333D01*
X95783411Y-116787412D01*
X95713462Y-116801126D01*
X95686685Y-116837688D01*
X95682334Y-116908315D01*
X95682333Y-116912333D01*
X95686276Y-116985061D01*
X95712028Y-117022839D01*
X95780478Y-117037114D01*
X95912513Y-117039333D01*
X96145850Y-117039333D01*
X96169166Y-118372833D01*
X96276584Y-118385360D01*
X96369056Y-118384230D01*
X96414167Y-118367721D01*
X96424627Y-118316942D01*
X96433513Y-118196916D01*
X96440137Y-118023058D01*
X96443814Y-117810785D01*
X96444333Y-117690878D01*
X96444333Y-117044201D01*
X96624250Y-117031184D01*
X96739093Y-117016709D01*
X96794500Y-116984163D01*
X96815691Y-116916658D01*
X96817562Y-116901750D01*
X96820214Y-116830598D01*
X96792383Y-116796598D01*
X96712934Y-116786071D01*
X96637645Y-116785333D01*
X96444333Y-116785333D01*
X96444333Y-116601150D01*
X96420934Y-116364339D01*
X96347396Y-116193886D01*
X96218710Y-116084510D01*
X96029868Y-116030932D01*
X95896102Y-116023333D01*
X95769997Y-116026093D01*
G36*
X97723103Y-116676705D02*
G01*
X97528478Y-116747578D01*
X97366035Y-116873549D01*
X97322755Y-116927188D01*
X97260583Y-117047969D01*
X97224962Y-117209363D01*
X97212979Y-117345302D01*
X97196779Y-117632000D01*
X97749391Y-117632000D01*
X97980527Y-117635233D01*
X98162236Y-117644336D01*
X98282507Y-117658414D01*
X98328678Y-117675160D01*
X98336063Y-117753544D01*
X98304800Y-117866683D01*
X98247892Y-117982247D01*
X98178339Y-118067903D01*
X98167341Y-118076368D01*
X98068793Y-118115443D01*
X97928187Y-118137779D01*
X97870065Y-118140000D01*
X97730189Y-118130924D01*
X97634705Y-118093470D01*
X97545000Y-118013000D01*
X97449738Y-117937352D01*
X97346704Y-117892862D01*
X97259116Y-117884612D01*
X97210193Y-117917683D01*
X97206491Y-117938916D01*
X97239669Y-118046020D01*
X97323548Y-118167109D01*
X97435463Y-118273911D01*
X97514650Y-118323304D01*
X97697922Y-118376866D01*
X97913828Y-118391422D01*
X98123792Y-118367151D01*
X98261657Y-118319850D01*
X98400849Y-118232601D01*
X98495784Y-118126437D01*
X98554995Y-117983607D01*
X98587010Y-117786362D01*
X98597238Y-117621580D01*
X98598791Y-117424844D01*
X98596060Y-117371000D01*
X98329862Y-117371000D01*
X98324081Y-117384610D01*
X98274773Y-117400135D01*
X98160710Y-117412251D01*
X98001784Y-117419264D01*
X97904833Y-117420333D01*
X97730021Y-117416761D01*
X97589385Y-117407175D01*
X97502818Y-117393271D01*
X97485585Y-117384610D01*
X97478342Y-117307630D01*
X97507460Y-117194342D01*
X97560439Y-117077582D01*
X97624780Y-116990185D01*
X97640731Y-116977081D01*
X97743519Y-116934665D01*
X97878522Y-116913040D01*
X97904833Y-116912333D01*
X98040029Y-116928262D01*
X98153436Y-116967537D01*
X98168935Y-116977081D01*
X98234149Y-117052373D01*
X98291042Y-117165015D01*
X98327113Y-117282169D01*
X98329862Y-117371000D01*
X98596060Y-117371000D01*
X98589531Y-117242293D01*
X98571301Y-117104333D01*
X98564122Y-117075392D01*
X98472088Y-116902239D01*
X98324403Y-116773696D01*
X98138632Y-116691861D01*
X97932343Y-116658832D01*
X97723103Y-116676705D01*
G37*
X97723103Y-116676705D02*
X97528478Y-116747578D01*
X97366035Y-116873549D01*
X97322755Y-116927188D01*
X97260583Y-117047969D01*
X97224962Y-117209363D01*
X97212979Y-117345302D01*
X97196779Y-117632000D01*
X97749391Y-117632000D01*
X97980527Y-117635233D01*
X98162236Y-117644336D01*
X98282507Y-117658414D01*
X98328678Y-117675160D01*
X98336063Y-117753544D01*
X98304800Y-117866683D01*
X98247892Y-117982247D01*
X98178339Y-118067903D01*
X98167341Y-118076368D01*
X98068793Y-118115443D01*
X97928187Y-118137779D01*
X97870065Y-118140000D01*
X97730189Y-118130924D01*
X97634705Y-118093470D01*
X97545000Y-118013000D01*
X97449738Y-117937352D01*
X97346704Y-117892862D01*
X97259116Y-117884612D01*
X97210193Y-117917683D01*
X97206491Y-117938916D01*
X97239669Y-118046020D01*
X97323548Y-118167109D01*
X97435463Y-118273911D01*
X97514650Y-118323304D01*
X97697922Y-118376866D01*
X97913828Y-118391422D01*
X98123792Y-118367151D01*
X98261657Y-118319850D01*
X98400849Y-118232601D01*
X98495784Y-118126437D01*
X98554995Y-117983607D01*
X98587010Y-117786362D01*
X98597238Y-117621580D01*
X98598791Y-117424844D01*
X98596060Y-117371000D01*
X98329862Y-117371000D01*
X98324081Y-117384610D01*
X98274773Y-117400135D01*
X98160710Y-117412251D01*
X98001784Y-117419264D01*
X97904833Y-117420333D01*
X97730021Y-117416761D01*
X97589385Y-117407175D01*
X97502818Y-117393271D01*
X97485585Y-117384610D01*
X97478342Y-117307630D01*
X97507460Y-117194342D01*
X97560439Y-117077582D01*
X97624780Y-116990185D01*
X97640731Y-116977081D01*
X97743519Y-116934665D01*
X97878522Y-116913040D01*
X97904833Y-116912333D01*
X98040029Y-116928262D01*
X98153436Y-116967537D01*
X98168935Y-116977081D01*
X98234149Y-117052373D01*
X98291042Y-117165015D01*
X98327113Y-117282169D01*
X98329862Y-117371000D01*
X98596060Y-117371000D01*
X98589531Y-117242293D01*
X98571301Y-117104333D01*
X98564122Y-117075392D01*
X98472088Y-116902239D01*
X98324403Y-116773696D01*
X98138632Y-116691861D01*
X97932343Y-116658832D01*
X97723103Y-116676705D01*
G36*
X100085000Y-118140000D02*
G01*
X99111333Y-118140000D01*
X99111333Y-118394000D01*
X100339000Y-118394000D01*
X100339000Y-116023333D01*
X100085000Y-116023333D01*
X100085000Y-118140000D01*
G37*
X100085000Y-118140000D02*
X99111333Y-118140000D01*
X99111333Y-118394000D01*
X100339000Y-118394000D01*
X100339000Y-116023333D01*
X100085000Y-116023333D01*
X100085000Y-118140000D01*
G36*
X103074945Y-117897898D02*
G01*
X102975955Y-117956413D01*
X102910988Y-118053386D01*
X102896394Y-118173863D01*
X102941544Y-118292649D01*
X103038385Y-118372093D01*
X103165135Y-118393865D01*
X103286882Y-118354754D01*
X103320476Y-118327476D01*
X103377073Y-118217994D01*
X103378105Y-118085935D01*
X103324753Y-117971557D01*
X103309583Y-117956061D01*
X103191605Y-117892796D01*
X103074945Y-117897898D01*
G37*
X103074945Y-117897898D02*
X102975955Y-117956413D01*
X102910988Y-118053386D01*
X102896394Y-118173863D01*
X102941544Y-118292649D01*
X103038385Y-118372093D01*
X103165135Y-118393865D01*
X103286882Y-118354754D01*
X103320476Y-118327476D01*
X103377073Y-118217994D01*
X103378105Y-118085935D01*
X103324753Y-117971557D01*
X103309583Y-117956061D01*
X103191605Y-117892796D01*
X103074945Y-117897898D01*
G36*
X104841100Y-116043675D02*
G01*
X104730811Y-116065127D01*
X104649642Y-116105601D01*
X104573416Y-116170462D01*
X104438901Y-116351287D01*
X104381061Y-116551994D01*
X104399741Y-116756892D01*
X104494787Y-116950289D01*
X104582096Y-117048453D01*
X104705376Y-117163614D01*
X104556773Y-117294089D01*
X104414906Y-117466874D01*
X104341969Y-117663006D01*
X104336024Y-117865315D01*
X104395133Y-118056632D01*
X104517359Y-118219787D01*
X104673147Y-118325280D01*
X104839279Y-118373202D01*
X105044192Y-118390082D01*
X105247701Y-118375423D01*
X105397833Y-118334240D01*
X105571707Y-118219774D01*
X105694954Y-118062839D01*
X105741140Y-117936881D01*
X105753442Y-117844229D01*
X105724984Y-117807725D01*
X105635360Y-117801333D01*
X105634910Y-117801333D01*
X105527763Y-117819770D01*
X105469583Y-117886822D01*
X105462957Y-117902894D01*
X105369122Y-118038040D01*
X105213097Y-118117458D01*
X105026656Y-118140000D01*
X104878086Y-118128182D01*
X104775285Y-118084495D01*
X104718576Y-118036090D01*
X104629123Y-117894965D01*
X104609235Y-117737233D01*
X104651250Y-117580999D01*
X104747508Y-117444363D01*
X104890347Y-117345430D01*
X105027416Y-117306312D01*
X105140749Y-117285488D01*
X105192853Y-117251152D01*
X105207000Y-117184477D01*
X105207333Y-117160759D01*
X105194788Y-117072714D01*
X105141808Y-117041634D01*
X105099398Y-117039333D01*
X104918058Y-117001139D01*
X104774451Y-116896789D01*
X104683387Y-116741633D01*
X104658346Y-116582258D01*
X104695176Y-116438238D01*
X104788652Y-116333582D01*
X104919003Y-116271206D01*
X105066453Y-116254028D01*
X105211229Y-116284965D01*
X105333558Y-116366935D01*
X105402498Y-116472468D01*
X105457841Y-116572019D01*
X105529277Y-116611461D01*
X105588901Y-116616000D01*
X105677421Y-116602273D01*
X105712389Y-116552455D01*
X105696885Y-116453590D01*
X105654381Y-116340400D01*
X105557160Y-116184566D01*
X105414071Y-116084873D01*
X105215542Y-116036759D01*
X105008278Y-116032432D01*
X104841100Y-116043675D01*
G37*
X104841100Y-116043675D02*
X104730811Y-116065127D01*
X104649642Y-116105601D01*
X104573416Y-116170462D01*
X104438901Y-116351287D01*
X104381061Y-116551994D01*
X104399741Y-116756892D01*
X104494787Y-116950289D01*
X104582096Y-117048453D01*
X104705376Y-117163614D01*
X104556773Y-117294089D01*
X104414906Y-117466874D01*
X104341969Y-117663006D01*
X104336024Y-117865315D01*
X104395133Y-118056632D01*
X104517359Y-118219787D01*
X104673147Y-118325280D01*
X104839279Y-118373202D01*
X105044192Y-118390082D01*
X105247701Y-118375423D01*
X105397833Y-118334240D01*
X105571707Y-118219774D01*
X105694954Y-118062839D01*
X105741140Y-117936881D01*
X105753442Y-117844229D01*
X105724984Y-117807725D01*
X105635360Y-117801333D01*
X105634910Y-117801333D01*
X105527763Y-117819770D01*
X105469583Y-117886822D01*
X105462957Y-117902894D01*
X105369122Y-118038040D01*
X105213097Y-118117458D01*
X105026656Y-118140000D01*
X104878086Y-118128182D01*
X104775285Y-118084495D01*
X104718576Y-118036090D01*
X104629123Y-117894965D01*
X104609235Y-117737233D01*
X104651250Y-117580999D01*
X104747508Y-117444363D01*
X104890347Y-117345430D01*
X105027416Y-117306312D01*
X105140749Y-117285488D01*
X105192853Y-117251152D01*
X105207000Y-117184477D01*
X105207333Y-117160759D01*
X105194788Y-117072714D01*
X105141808Y-117041634D01*
X105099398Y-117039333D01*
X104918058Y-117001139D01*
X104774451Y-116896789D01*
X104683387Y-116741633D01*
X104658346Y-116582258D01*
X104695176Y-116438238D01*
X104788652Y-116333582D01*
X104919003Y-116271206D01*
X105066453Y-116254028D01*
X105211229Y-116284965D01*
X105333558Y-116366935D01*
X105402498Y-116472468D01*
X105457841Y-116572019D01*
X105529277Y-116611461D01*
X105588901Y-116616000D01*
X105677421Y-116602273D01*
X105712389Y-116552455D01*
X105696885Y-116453590D01*
X105654381Y-116340400D01*
X105557160Y-116184566D01*
X105414071Y-116084873D01*
X105215542Y-116036759D01*
X105008278Y-116032432D01*
X104841100Y-116043675D01*
G36*
X87322856Y-119975121D02*
G01*
X87259857Y-120038205D01*
X87229098Y-120141651D01*
X87239278Y-120244492D01*
X87258456Y-120278383D01*
X87349419Y-120332675D01*
X87464013Y-120337332D01*
X87563952Y-120294984D01*
X87597522Y-120255067D01*
X87621647Y-120138548D01*
X87579578Y-120038321D01*
X87489750Y-119973177D01*
X87370600Y-119961907D01*
X87322856Y-119975121D01*
G37*
X87322856Y-119975121D02*
X87259857Y-120038205D01*
X87229098Y-120141651D01*
X87239278Y-120244492D01*
X87258456Y-120278383D01*
X87349419Y-120332675D01*
X87464013Y-120337332D01*
X87563952Y-120294984D01*
X87597522Y-120255067D01*
X87621647Y-120138548D01*
X87579578Y-120038321D01*
X87489750Y-119973177D01*
X87370600Y-119961907D01*
X87322856Y-119975121D01*
G36*
X98219841Y-120040434D02*
G01*
X98187333Y-120125736D01*
X98204072Y-120245240D01*
X98287697Y-120320564D01*
X98398214Y-120341333D01*
X98504630Y-120317459D01*
X98556046Y-120247662D01*
X98575524Y-120112338D01*
X98525261Y-120015637D01*
X98443556Y-119974803D01*
X98311843Y-119974569D01*
X98219841Y-120040434D01*
G37*
X98219841Y-120040434D02*
X98187333Y-120125736D01*
X98204072Y-120245240D01*
X98287697Y-120320564D01*
X98398214Y-120341333D01*
X98504630Y-120317459D01*
X98556046Y-120247662D01*
X98575524Y-120112338D01*
X98525261Y-120015637D01*
X98443556Y-119974803D01*
X98311843Y-119974569D01*
X98219841Y-120040434D01*
G36*
X103109343Y-120641896D02*
G01*
X102993023Y-120686284D01*
X102944900Y-120731752D01*
X102887866Y-120841758D01*
X102898361Y-120934648D01*
X102979850Y-121038687D01*
X102982909Y-121041757D01*
X103087606Y-121125115D01*
X103180429Y-121137390D01*
X103289642Y-121082047D01*
X103292914Y-121079766D01*
X103361298Y-120988463D01*
X103388556Y-120863024D01*
X103370394Y-120742254D01*
X103336200Y-120688466D01*
X103236671Y-120641192D01*
X103109343Y-120641896D01*
G37*
X103109343Y-120641896D02*
X102993023Y-120686284D01*
X102944900Y-120731752D01*
X102887866Y-120841758D01*
X102898361Y-120934648D01*
X102979850Y-121038687D01*
X102982909Y-121041757D01*
X103087606Y-121125115D01*
X103180429Y-121137390D01*
X103289642Y-121082047D01*
X103292914Y-121079766D01*
X103361298Y-120988463D01*
X103388556Y-120863024D01*
X103370394Y-120742254D01*
X103336200Y-120688466D01*
X103236671Y-120641192D01*
X103109343Y-120641896D01*
G36*
X84400500Y-121410344D02*
G01*
X84061833Y-121025637D01*
X83915946Y-120862155D01*
X83810734Y-120752672D01*
X83732334Y-120686420D01*
X83666887Y-120652635D01*
X83600530Y-120640551D01*
X83564416Y-120639299D01*
X83462329Y-120644271D01*
X83408258Y-120658646D01*
X83405666Y-120663216D01*
X83432450Y-120702959D01*
X83505096Y-120791262D01*
X83612044Y-120914462D01*
X83723166Y-121038485D01*
X83850513Y-121181198D01*
X83953505Y-121301271D01*
X84020564Y-121384893D01*
X84040666Y-121417145D01*
X84016500Y-121460101D01*
X83950568Y-121556264D01*
X83852721Y-121691727D01*
X83732811Y-121852585D01*
X83723166Y-121865333D01*
X83602103Y-122026957D01*
X83502310Y-122163541D01*
X83433611Y-122261397D01*
X83405827Y-122306837D01*
X83405666Y-122307790D01*
X83442896Y-122323219D01*
X83534278Y-122330830D01*
X83551931Y-122331000D01*
X83623604Y-122325147D01*
X83686147Y-122299272D01*
X83754445Y-122240900D01*
X83843383Y-122137553D01*
X83956000Y-121992333D01*
X84067649Y-121849820D01*
X84162144Y-121736891D01*
X84227036Y-121667996D01*
X84247675Y-121653666D01*
X84327659Y-121693100D01*
X84386071Y-121802964D01*
X84417619Y-121970602D01*
X84421666Y-122069750D01*
X84421666Y-122331000D01*
X84718000Y-122331000D01*
X84718000Y-120002666D01*
X84423714Y-120002666D01*
X84400500Y-121410344D01*
G37*
X84400500Y-121410344D02*
X84061833Y-121025637D01*
X83915946Y-120862155D01*
X83810734Y-120752672D01*
X83732334Y-120686420D01*
X83666887Y-120652635D01*
X83600530Y-120640551D01*
X83564416Y-120639299D01*
X83462329Y-120644271D01*
X83408258Y-120658646D01*
X83405666Y-120663216D01*
X83432450Y-120702959D01*
X83505096Y-120791262D01*
X83612044Y-120914462D01*
X83723166Y-121038485D01*
X83850513Y-121181198D01*
X83953505Y-121301271D01*
X84020564Y-121384893D01*
X84040666Y-121417145D01*
X84016500Y-121460101D01*
X83950568Y-121556264D01*
X83852721Y-121691727D01*
X83732811Y-121852585D01*
X83723166Y-121865333D01*
X83602103Y-122026957D01*
X83502310Y-122163541D01*
X83433611Y-122261397D01*
X83405827Y-122306837D01*
X83405666Y-122307790D01*
X83442896Y-122323219D01*
X83534278Y-122330830D01*
X83551931Y-122331000D01*
X83623604Y-122325147D01*
X83686147Y-122299272D01*
X83754445Y-122240900D01*
X83843383Y-122137553D01*
X83956000Y-121992333D01*
X84067649Y-121849820D01*
X84162144Y-121736891D01*
X84227036Y-121667996D01*
X84247675Y-121653666D01*
X84327659Y-121693100D01*
X84386071Y-121802964D01*
X84417619Y-121970602D01*
X84421666Y-122069750D01*
X84421666Y-122331000D01*
X84718000Y-122331000D01*
X84718000Y-120002666D01*
X84423714Y-120002666D01*
X84400500Y-121410344D01*
G36*
X87300333Y-122331000D02*
G01*
X87554333Y-122331000D01*
X87554333Y-120637666D01*
X87300333Y-120637666D01*
X87300333Y-122331000D01*
G37*
X87300333Y-122331000D02*
X87554333Y-122331000D01*
X87554333Y-120637666D01*
X87300333Y-120637666D01*
X87300333Y-122331000D01*
G36*
X88528000Y-120637666D02*
G01*
X88020000Y-120637666D01*
X88020000Y-120891666D01*
X88530389Y-120891666D01*
X88518611Y-121473750D01*
X88506833Y-122055833D01*
X88263416Y-122068529D01*
X88126536Y-122077869D01*
X88053905Y-122095218D01*
X88025176Y-122132077D01*
X88020005Y-122199945D01*
X88020000Y-122206112D01*
X88020000Y-122331000D01*
X88297091Y-122331000D01*
X88456917Y-122326346D01*
X88560163Y-122307327D01*
X88634644Y-122266357D01*
X88678091Y-122227090D01*
X88718611Y-122183065D01*
X88746944Y-122135614D01*
X88765266Y-122069660D01*
X88775756Y-121970123D01*
X88780590Y-121821925D01*
X88781944Y-121609988D01*
X88782000Y-121507424D01*
X88782000Y-120891666D01*
X88993666Y-120891666D01*
X89118968Y-120888892D01*
X89181451Y-120871831D01*
X89202956Y-120827382D01*
X89205333Y-120764666D01*
X89200709Y-120689485D01*
X89172275Y-120651995D01*
X89098193Y-120639092D01*
X88993666Y-120637666D01*
X88782000Y-120637666D01*
X88782000Y-120002666D01*
X88528000Y-120002666D01*
X88528000Y-120637666D01*
G37*
X88528000Y-120637666D02*
X88020000Y-120637666D01*
X88020000Y-120891666D01*
X88530389Y-120891666D01*
X88518611Y-121473750D01*
X88506833Y-122055833D01*
X88263416Y-122068529D01*
X88126536Y-122077869D01*
X88053905Y-122095218D01*
X88025176Y-122132077D01*
X88020005Y-122199945D01*
X88020000Y-122206112D01*
X88020000Y-122331000D01*
X88297091Y-122331000D01*
X88456917Y-122326346D01*
X88560163Y-122307327D01*
X88634644Y-122266357D01*
X88678091Y-122227090D01*
X88718611Y-122183065D01*
X88746944Y-122135614D01*
X88765266Y-122069660D01*
X88775756Y-121970123D01*
X88780590Y-121821925D01*
X88781944Y-121609988D01*
X88782000Y-121507424D01*
X88782000Y-120891666D01*
X88993666Y-120891666D01*
X89118968Y-120888892D01*
X89181451Y-120871831D01*
X89202956Y-120827382D01*
X89205333Y-120764666D01*
X89200709Y-120689485D01*
X89172275Y-120651995D01*
X89098193Y-120639092D01*
X88993666Y-120637666D01*
X88782000Y-120637666D01*
X88782000Y-120002666D01*
X88528000Y-120002666D01*
X88528000Y-120637666D01*
G36*
X93311666Y-120633626D02*
G01*
X93047083Y-120646229D01*
X92902597Y-120655406D01*
X92823306Y-120671250D01*
X92789764Y-120702466D01*
X92782526Y-120757760D01*
X92782500Y-120764666D01*
X92788234Y-120822734D01*
X92818401Y-120855887D01*
X92892448Y-120872831D01*
X93029820Y-120882270D01*
X93047083Y-120883103D01*
X93311666Y-120895706D01*
X93311666Y-121414762D01*
X93307036Y-121685876D01*
X93293022Y-121874871D01*
X93269440Y-121983796D01*
X93258750Y-122003569D01*
X93171944Y-122056027D01*
X93016443Y-122084213D01*
X92994166Y-122085744D01*
X92867685Y-122097196D01*
X92802685Y-122121036D01*
X92775986Y-122170535D01*
X92769105Y-122214583D01*
X92755709Y-122331000D01*
X93036944Y-122331000D01*
X93194534Y-122327212D01*
X93296528Y-122309952D01*
X93371868Y-122270377D01*
X93441923Y-122207256D01*
X93565666Y-122083512D01*
X93565666Y-120891666D01*
X93756166Y-120891666D01*
X93873308Y-120887985D01*
X93928790Y-120866728D01*
X93945590Y-120812578D01*
X93946666Y-120764666D01*
X93941144Y-120686572D01*
X93909259Y-120649584D01*
X93828035Y-120638384D01*
X93756166Y-120637666D01*
X93565666Y-120637666D01*
X93565666Y-120002666D01*
X93311666Y-120002666D01*
X93311666Y-120633626D01*
G37*
X93311666Y-120633626D02*
X93047083Y-120646229D01*
X92902597Y-120655406D01*
X92823306Y-120671250D01*
X92789764Y-120702466D01*
X92782526Y-120757760D01*
X92782500Y-120764666D01*
X92788234Y-120822734D01*
X92818401Y-120855887D01*
X92892448Y-120872831D01*
X93029820Y-120882270D01*
X93047083Y-120883103D01*
X93311666Y-120895706D01*
X93311666Y-121414762D01*
X93307036Y-121685876D01*
X93293022Y-121874871D01*
X93269440Y-121983796D01*
X93258750Y-122003569D01*
X93171944Y-122056027D01*
X93016443Y-122084213D01*
X92994166Y-122085744D01*
X92867685Y-122097196D01*
X92802685Y-122121036D01*
X92775986Y-122170535D01*
X92769105Y-122214583D01*
X92755709Y-122331000D01*
X93036944Y-122331000D01*
X93194534Y-122327212D01*
X93296528Y-122309952D01*
X93371868Y-122270377D01*
X93441923Y-122207256D01*
X93565666Y-122083512D01*
X93565666Y-120891666D01*
X93756166Y-120891666D01*
X93873308Y-120887985D01*
X93928790Y-120866728D01*
X93945590Y-120812578D01*
X93946666Y-120764666D01*
X93941144Y-120686572D01*
X93909259Y-120649584D01*
X93828035Y-120638384D01*
X93756166Y-120637666D01*
X93565666Y-120637666D01*
X93565666Y-120002666D01*
X93311666Y-120002666D01*
X93311666Y-120633626D01*
G36*
X95470666Y-120900437D02*
G01*
X95315785Y-120764449D01*
X95221954Y-120688429D01*
X95141533Y-120650193D01*
X95040815Y-120640061D01*
X94906280Y-120646879D01*
X94755412Y-120663136D01*
X94658025Y-120693495D01*
X94582937Y-120751134D01*
X94536591Y-120803127D01*
X94476027Y-120883577D01*
X94432050Y-120967859D01*
X94402073Y-121070922D01*
X94383505Y-121207710D01*
X94373758Y-121393173D01*
X94370242Y-121642255D01*
X94370000Y-121764791D01*
X94370000Y-122331000D01*
X94613336Y-122331000D01*
X94631852Y-121715527D01*
X94639738Y-121474690D01*
X94648309Y-121303273D01*
X94660260Y-121186053D01*
X94678288Y-121107808D01*
X94705089Y-121053315D01*
X94743360Y-121007351D01*
X94760336Y-120990088D01*
X94871379Y-120909384D01*
X95008358Y-120880977D01*
X95047333Y-120880121D01*
X95196100Y-120898966D01*
X95309273Y-120966409D01*
X95334330Y-120990088D01*
X95377354Y-121036696D01*
X95407945Y-121086393D01*
X95428800Y-121154399D01*
X95442614Y-121255939D01*
X95452083Y-121406235D01*
X95459904Y-121620510D01*
X95462814Y-121715527D01*
X95481330Y-122331000D01*
X95724666Y-122331000D01*
X95724666Y-120002666D01*
X95470666Y-120002666D01*
X95470666Y-120900437D01*
G37*
X95470666Y-120900437D02*
X95315785Y-120764449D01*
X95221954Y-120688429D01*
X95141533Y-120650193D01*
X95040815Y-120640061D01*
X94906280Y-120646879D01*
X94755412Y-120663136D01*
X94658025Y-120693495D01*
X94582937Y-120751134D01*
X94536591Y-120803127D01*
X94476027Y-120883577D01*
X94432050Y-120967859D01*
X94402073Y-121070922D01*
X94383505Y-121207710D01*
X94373758Y-121393173D01*
X94370242Y-121642255D01*
X94370000Y-121764791D01*
X94370000Y-122331000D01*
X94613336Y-122331000D01*
X94631852Y-121715527D01*
X94639738Y-121474690D01*
X94648309Y-121303273D01*
X94660260Y-121186053D01*
X94678288Y-121107808D01*
X94705089Y-121053315D01*
X94743360Y-121007351D01*
X94760336Y-120990088D01*
X94871379Y-120909384D01*
X95008358Y-120880977D01*
X95047333Y-120880121D01*
X95196100Y-120898966D01*
X95309273Y-120966409D01*
X95334330Y-120990088D01*
X95377354Y-121036696D01*
X95407945Y-121086393D01*
X95428800Y-121154399D01*
X95442614Y-121255939D01*
X95452083Y-121406235D01*
X95459904Y-121620510D01*
X95462814Y-121715527D01*
X95481330Y-122331000D01*
X95724666Y-122331000D01*
X95724666Y-120002666D01*
X95470666Y-120002666D01*
X95470666Y-120900437D01*
G36*
X98264666Y-122331000D02*
G01*
X98518666Y-122331000D01*
X98518666Y-120637666D01*
X98264666Y-120637666D01*
X98264666Y-122331000D01*
G37*
X98264666Y-122331000D02*
X98518666Y-122331000D01*
X98518666Y-120637666D01*
X98264666Y-120637666D01*
X98264666Y-122331000D01*
G36*
X99982448Y-120009797D02*
G01*
X99760810Y-120016785D01*
X99606664Y-120025954D01*
X99502844Y-120040516D01*
X99432181Y-120063686D01*
X99377507Y-120098675D01*
X99341992Y-120129666D01*
X99210456Y-120299903D01*
X99133547Y-120503633D01*
X99110563Y-120721237D01*
X99140801Y-120933100D01*
X99223558Y-121119605D01*
X99358132Y-121261134D01*
X99383112Y-121277496D01*
X99480146Y-121333994D01*
X99546549Y-121367950D01*
X99551453Y-121369816D01*
X99546168Y-121408916D01*
X99504203Y-121506306D01*
X99432424Y-121647661D01*
X99337697Y-121818663D01*
X99329203Y-121833420D01*
X99229472Y-122007995D01*
X99147415Y-122155053D01*
X99091218Y-122259678D01*
X99069068Y-122306949D01*
X99069000Y-122307603D01*
X99106066Y-122323447D01*
X99196329Y-122330625D01*
X99206583Y-122330665D01*
X99265863Y-122326413D01*
X99316184Y-122306006D01*
X99367983Y-122257475D01*
X99431695Y-122168854D01*
X99517758Y-122028175D01*
X99612661Y-121864998D01*
X99881156Y-121399666D01*
X100212000Y-121399666D01*
X100212000Y-122331000D01*
X100508333Y-122331000D01*
X100508333Y-120256666D01*
X100212000Y-120256666D01*
X100212000Y-121145666D01*
X99947416Y-121145042D01*
X99787869Y-121136214D01*
X99648255Y-121114015D01*
X99577000Y-121091022D01*
X99472649Y-120994966D01*
X99409711Y-120849010D01*
X99390648Y-120678432D01*
X99417926Y-120508508D01*
X99494009Y-120364517D01*
X99504943Y-120351916D01*
X99562595Y-120301292D01*
X99635904Y-120272356D01*
X99748680Y-120259395D01*
X99901879Y-120256666D01*
X100212000Y-120256666D01*
X100508333Y-120256666D01*
X100508333Y-119995761D01*
X99982448Y-120009797D01*
G37*
X99982448Y-120009797D02*
X99760810Y-120016785D01*
X99606664Y-120025954D01*
X99502844Y-120040516D01*
X99432181Y-120063686D01*
X99377507Y-120098675D01*
X99341992Y-120129666D01*
X99210456Y-120299903D01*
X99133547Y-120503633D01*
X99110563Y-120721237D01*
X99140801Y-120933100D01*
X99223558Y-121119605D01*
X99358132Y-121261134D01*
X99383112Y-121277496D01*
X99480146Y-121333994D01*
X99546549Y-121367950D01*
X99551453Y-121369816D01*
X99546168Y-121408916D01*
X99504203Y-121506306D01*
X99432424Y-121647661D01*
X99337697Y-121818663D01*
X99329203Y-121833420D01*
X99229472Y-122007995D01*
X99147415Y-122155053D01*
X99091218Y-122259678D01*
X99069068Y-122306949D01*
X99069000Y-122307603D01*
X99106066Y-122323447D01*
X99196329Y-122330625D01*
X99206583Y-122330665D01*
X99265863Y-122326413D01*
X99316184Y-122306006D01*
X99367983Y-122257475D01*
X99431695Y-122168854D01*
X99517758Y-122028175D01*
X99612661Y-121864998D01*
X99881156Y-121399666D01*
X100212000Y-121399666D01*
X100212000Y-122331000D01*
X100508333Y-122331000D01*
X100508333Y-120256666D01*
X100212000Y-120256666D01*
X100212000Y-121145666D01*
X99947416Y-121145042D01*
X99787869Y-121136214D01*
X99648255Y-121114015D01*
X99577000Y-121091022D01*
X99472649Y-120994966D01*
X99409711Y-120849010D01*
X99390648Y-120678432D01*
X99417926Y-120508508D01*
X99494009Y-120364517D01*
X99504943Y-120351916D01*
X99562595Y-120301292D01*
X99635904Y-120272356D01*
X99748680Y-120259395D01*
X99901879Y-120256666D01*
X100212000Y-120256666D01*
X100508333Y-120256666D01*
X100508333Y-119995761D01*
X99982448Y-120009797D01*
G36*
X104662852Y-120007034D02*
G01*
X104615598Y-120017743D01*
X104614666Y-120019670D01*
X104634729Y-120059950D01*
X104690588Y-120161985D01*
X104775754Y-120314182D01*
X104883736Y-120504947D01*
X105008043Y-120722686D01*
X105016833Y-120738020D01*
X105142083Y-120957568D01*
X105251419Y-121151369D01*
X105338339Y-121307716D01*
X105396338Y-121414906D01*
X105418913Y-121461231D01*
X105419000Y-121461849D01*
X105380378Y-121473301D01*
X105279327Y-121481399D01*
X105143833Y-121484333D01*
X104868666Y-121484333D01*
X104868666Y-120934000D01*
X104614666Y-120934000D01*
X104614666Y-121484333D01*
X104484855Y-121484333D01*
X104394980Y-121493036D01*
X104365469Y-121534992D01*
X104368438Y-121600750D01*
X104398758Y-121691420D01*
X104478838Y-121727900D01*
X104498250Y-121730561D01*
X104559291Y-121741395D01*
X104594094Y-121769215D01*
X104610028Y-121833446D01*
X104614461Y-121953513D01*
X104614666Y-122037478D01*
X104614666Y-122331000D01*
X104868666Y-122331000D01*
X104868666Y-121738333D01*
X105757666Y-121738333D01*
X105757666Y-121615957D01*
X105735054Y-121529807D01*
X105669064Y-121378311D01*
X105562468Y-121167108D01*
X105418039Y-120901836D01*
X105331037Y-120748124D01*
X105186662Y-120496528D01*
X105076994Y-120309053D01*
X104994803Y-120176270D01*
X104932858Y-120088748D01*
X104883931Y-120037056D01*
X104840791Y-120011764D01*
X104796210Y-120003443D01*
X104759537Y-120002666D01*
X104662852Y-120007034D01*
G37*
X104662852Y-120007034D02*
X104615598Y-120017743D01*
X104614666Y-120019670D01*
X104634729Y-120059950D01*
X104690588Y-120161985D01*
X104775754Y-120314182D01*
X104883736Y-120504947D01*
X105008043Y-120722686D01*
X105016833Y-120738020D01*
X105142083Y-120957568D01*
X105251419Y-121151369D01*
X105338339Y-121307716D01*
X105396338Y-121414906D01*
X105418913Y-121461231D01*
X105419000Y-121461849D01*
X105380378Y-121473301D01*
X105279327Y-121481399D01*
X105143833Y-121484333D01*
X104868666Y-121484333D01*
X104868666Y-120934000D01*
X104614666Y-120934000D01*
X104614666Y-121484333D01*
X104484855Y-121484333D01*
X104394980Y-121493036D01*
X104365469Y-121534992D01*
X104368438Y-121600750D01*
X104398758Y-121691420D01*
X104478838Y-121727900D01*
X104498250Y-121730561D01*
X104559291Y-121741395D01*
X104594094Y-121769215D01*
X104610028Y-121833446D01*
X104614461Y-121953513D01*
X104614666Y-122037478D01*
X104614666Y-122331000D01*
X104868666Y-122331000D01*
X104868666Y-121738333D01*
X105757666Y-121738333D01*
X105757666Y-121615957D01*
X105735054Y-121529807D01*
X105669064Y-121378311D01*
X105562468Y-121167108D01*
X105418039Y-120901836D01*
X105331037Y-120748124D01*
X105186662Y-120496528D01*
X105076994Y-120309053D01*
X104994803Y-120176270D01*
X104932858Y-120088748D01*
X104883931Y-120037056D01*
X104840791Y-120011764D01*
X104796210Y-120003443D01*
X104759537Y-120002666D01*
X104662852Y-120007034D01*
G36*
X85749883Y-120666141D02*
G01*
X85551585Y-120752308D01*
X85410937Y-120897616D01*
X85388021Y-120936610D01*
X85322310Y-121084049D01*
X85315877Y-121177023D01*
X85369913Y-121222666D01*
X85437098Y-121230333D01*
X85530739Y-121214990D01*
X85591379Y-121153450D01*
X85624217Y-121085090D01*
X85719782Y-120957238D01*
X85866848Y-120886694D01*
X86049733Y-120879244D01*
X86134918Y-120896724D01*
X86254478Y-120943848D01*
X86334958Y-121017155D01*
X86383282Y-121131680D01*
X86406372Y-121302456D01*
X86411333Y-121497009D01*
X86409801Y-121678224D01*
X86401367Y-121797259D01*
X86380276Y-121876594D01*
X86340771Y-121938706D01*
X86282312Y-122000867D01*
X86189792Y-122081780D01*
X86104483Y-122113685D01*
X85984346Y-122110751D01*
X85963094Y-122108450D01*
X85777126Y-122060765D01*
X85652318Y-121970178D01*
X85598781Y-121850329D01*
X85566074Y-121782297D01*
X85478981Y-121750287D01*
X85442333Y-121745793D01*
X85346483Y-121741382D01*
X85313661Y-121769006D01*
X85322735Y-121851436D01*
X85326533Y-121870580D01*
X85398286Y-122069320D01*
X85529251Y-122213928D01*
X85663217Y-122291284D01*
X85916974Y-122361415D01*
X86180466Y-122349050D01*
X86258750Y-122329373D01*
X86422574Y-122242739D01*
X86565134Y-122101167D01*
X86657906Y-121934073D01*
X86665365Y-121910073D01*
X86699464Y-121710871D01*
X86707135Y-121479567D01*
X86689849Y-121249379D01*
X86649076Y-121053526D01*
X86624531Y-120987791D01*
X86510429Y-120811251D01*
X86352624Y-120698730D01*
X86141340Y-120644673D01*
X86008506Y-120637824D01*
X85749883Y-120666141D01*
G37*
X85749883Y-120666141D02*
X85551585Y-120752308D01*
X85410937Y-120897616D01*
X85388021Y-120936610D01*
X85322310Y-121084049D01*
X85315877Y-121177023D01*
X85369913Y-121222666D01*
X85437098Y-121230333D01*
X85530739Y-121214990D01*
X85591379Y-121153450D01*
X85624217Y-121085090D01*
X85719782Y-120957238D01*
X85866848Y-120886694D01*
X86049733Y-120879244D01*
X86134918Y-120896724D01*
X86254478Y-120943848D01*
X86334958Y-121017155D01*
X86383282Y-121131680D01*
X86406372Y-121302456D01*
X86411333Y-121497009D01*
X86409801Y-121678224D01*
X86401367Y-121797259D01*
X86380276Y-121876594D01*
X86340771Y-121938706D01*
X86282312Y-122000867D01*
X86189792Y-122081780D01*
X86104483Y-122113685D01*
X85984346Y-122110751D01*
X85963094Y-122108450D01*
X85777126Y-122060765D01*
X85652318Y-121970178D01*
X85598781Y-121850329D01*
X85566074Y-121782297D01*
X85478981Y-121750287D01*
X85442333Y-121745793D01*
X85346483Y-121741382D01*
X85313661Y-121769006D01*
X85322735Y-121851436D01*
X85326533Y-121870580D01*
X85398286Y-122069320D01*
X85529251Y-122213928D01*
X85663217Y-122291284D01*
X85916974Y-122361415D01*
X86180466Y-122349050D01*
X86258750Y-122329373D01*
X86422574Y-122242739D01*
X86565134Y-122101167D01*
X86657906Y-121934073D01*
X86665365Y-121910073D01*
X86699464Y-121710871D01*
X86707135Y-121479567D01*
X86689849Y-121249379D01*
X86649076Y-121053526D01*
X86624531Y-120987791D01*
X86510429Y-120811251D01*
X86352624Y-120698730D01*
X86141340Y-120644673D01*
X86008506Y-120637824D01*
X85749883Y-120666141D01*
G36*
X90165751Y-119978708D02*
G01*
X89928277Y-120045900D01*
X89756768Y-120163289D01*
X89646047Y-120335166D01*
X89613390Y-120436583D01*
X89601134Y-120515843D01*
X89632545Y-120547400D01*
X89724412Y-120553000D01*
X89829518Y-120538626D01*
X89888725Y-120479198D01*
X89911887Y-120426408D01*
X89998549Y-120303435D01*
X90131767Y-120231980D01*
X90288637Y-120215151D01*
X90446254Y-120256053D01*
X90563256Y-120338076D01*
X90667621Y-120485250D01*
X90689573Y-120631121D01*
X90631301Y-120771121D01*
X90494995Y-120900681D01*
X90282846Y-121015233D01*
X90228081Y-121037254D01*
X89952793Y-121169173D01*
X89756348Y-121325984D01*
X89635664Y-121511226D01*
X89587653Y-121728434D01*
X89586491Y-121772839D01*
X89624893Y-121972096D01*
X89731028Y-122138481D01*
X89891943Y-122264772D01*
X90094684Y-122343747D01*
X90326297Y-122368182D01*
X90573828Y-122330855D01*
X90582757Y-122328302D01*
X90738451Y-122246429D01*
X90872318Y-122112062D01*
X90956812Y-121954730D01*
X90966706Y-121916718D01*
X90979017Y-121823828D01*
X90951658Y-121787098D01*
X90868420Y-121780666D01*
X90758465Y-121805234D01*
X90695723Y-121884260D01*
X90589554Y-122025106D01*
X90432273Y-122100433D01*
X90239953Y-122108585D01*
X90047599Y-122058948D01*
X89921626Y-121959181D01*
X89861130Y-121821315D01*
X89852964Y-121699478D01*
X89892409Y-121592203D01*
X89988176Y-121489838D01*
X90148979Y-121382725D01*
X90353426Y-121275788D01*
X90589623Y-121150836D01*
X90755352Y-121035421D01*
X90861676Y-120916244D01*
X90919655Y-120780008D01*
X90940350Y-120613412D01*
X90941000Y-120569379D01*
X90932495Y-120419882D01*
X90897420Y-120313165D01*
X90821436Y-120208232D01*
X90810133Y-120195230D01*
X90633236Y-120055141D01*
X90415271Y-119980128D01*
X90176643Y-119977046D01*
X90165751Y-119978708D01*
G37*
X90165751Y-119978708D02*
X89928277Y-120045900D01*
X89756768Y-120163289D01*
X89646047Y-120335166D01*
X89613390Y-120436583D01*
X89601134Y-120515843D01*
X89632545Y-120547400D01*
X89724412Y-120553000D01*
X89829518Y-120538626D01*
X89888725Y-120479198D01*
X89911887Y-120426408D01*
X89998549Y-120303435D01*
X90131767Y-120231980D01*
X90288637Y-120215151D01*
X90446254Y-120256053D01*
X90563256Y-120338076D01*
X90667621Y-120485250D01*
X90689573Y-120631121D01*
X90631301Y-120771121D01*
X90494995Y-120900681D01*
X90282846Y-121015233D01*
X90228081Y-121037254D01*
X89952793Y-121169173D01*
X89756348Y-121325984D01*
X89635664Y-121511226D01*
X89587653Y-121728434D01*
X89586491Y-121772839D01*
X89624893Y-121972096D01*
X89731028Y-122138481D01*
X89891943Y-122264772D01*
X90094684Y-122343747D01*
X90326297Y-122368182D01*
X90573828Y-122330855D01*
X90582757Y-122328302D01*
X90738451Y-122246429D01*
X90872318Y-122112062D01*
X90956812Y-121954730D01*
X90966706Y-121916718D01*
X90979017Y-121823828D01*
X90951658Y-121787098D01*
X90868420Y-121780666D01*
X90758465Y-121805234D01*
X90695723Y-121884260D01*
X90589554Y-122025106D01*
X90432273Y-122100433D01*
X90239953Y-122108585D01*
X90047599Y-122058948D01*
X89921626Y-121959181D01*
X89861130Y-121821315D01*
X89852964Y-121699478D01*
X89892409Y-121592203D01*
X89988176Y-121489838D01*
X90148979Y-121382725D01*
X90353426Y-121275788D01*
X90589623Y-121150836D01*
X90755352Y-121035421D01*
X90861676Y-120916244D01*
X90919655Y-120780008D01*
X90940350Y-120613412D01*
X90941000Y-120569379D01*
X90932495Y-120419882D01*
X90897420Y-120313165D01*
X90821436Y-120208232D01*
X90810133Y-120195230D01*
X90633236Y-120055141D01*
X90415271Y-119980128D01*
X90176643Y-119977046D01*
X90165751Y-119978708D01*
G36*
X103087866Y-121870392D02*
G01*
X102982127Y-121927725D01*
X102911809Y-122026934D01*
X102898191Y-122155395D01*
X102903104Y-122179467D01*
X102969242Y-122303679D01*
X103077693Y-122362885D01*
X103209994Y-122351024D01*
X103292914Y-122307432D01*
X103367124Y-122209645D01*
X103385471Y-122082395D01*
X103345281Y-121962091D01*
X103320476Y-121931857D01*
X103207742Y-121867560D01*
X103087866Y-121870392D01*
G37*
X103087866Y-121870392D02*
X102982127Y-121927725D01*
X102911809Y-122026934D01*
X102898191Y-122155395D01*
X102903104Y-122179467D01*
X102969242Y-122303679D01*
X103077693Y-122362885D01*
X103209994Y-122351024D01*
X103292914Y-122307432D01*
X103367124Y-122209645D01*
X103385471Y-122082395D01*
X103345281Y-121962091D01*
X103320476Y-121931857D01*
X103207742Y-121867560D01*
X103087866Y-121870392D01*
G36*
X96275000Y-121580243D02*
G01*
X96276317Y-121920925D01*
X96281816Y-122188326D01*
X96293818Y-122393812D01*
X96314643Y-122548750D01*
X96346613Y-122664505D01*
X96392049Y-122752443D01*
X96453272Y-122823931D01*
X96532603Y-122890333D01*
X96544334Y-122899160D01*
X96672347Y-122957075D01*
X96849720Y-122991264D01*
X97043937Y-122999565D01*
X97222485Y-122979816D01*
X97315757Y-122950454D01*
X97443335Y-122867584D01*
X97551756Y-122754101D01*
X97618663Y-122636440D01*
X97629666Y-122579290D01*
X97599771Y-122514103D01*
X97523776Y-122498231D01*
X97422222Y-122528759D01*
X97315649Y-122602774D01*
X97291000Y-122627333D01*
X97193629Y-122712306D01*
X97088084Y-122748491D01*
X96982372Y-122754333D01*
X96814312Y-122733346D01*
X96700934Y-122680250D01*
X96627490Y-122580345D01*
X96568658Y-122426201D01*
X96534570Y-122248124D01*
X96530010Y-122168993D01*
X96532794Y-122111067D01*
X96553703Y-122103780D01*
X96609051Y-122150984D01*
X96657647Y-122199134D01*
X96827090Y-122316031D01*
X97019069Y-122365399D01*
X97213700Y-122349896D01*
X97391105Y-122272181D01*
X97531400Y-122134913D01*
X97565824Y-122077663D01*
X97619487Y-121920396D01*
X97654111Y-121708089D01*
X97664212Y-121519339D01*
X97375042Y-121519339D01*
X97373522Y-121694673D01*
X97363993Y-121809043D01*
X97340141Y-121886132D01*
X97295650Y-121949626D01*
X97246645Y-122000867D01*
X97156511Y-122080378D01*
X97074039Y-122112942D01*
X96959017Y-122111712D01*
X96920232Y-122107639D01*
X96749567Y-122066427D01*
X96652865Y-121998974D01*
X96596246Y-121881900D01*
X96558040Y-121707920D01*
X96541868Y-121503490D01*
X96551350Y-121295069D01*
X96553820Y-121275243D01*
X96611790Y-121075668D01*
X96719678Y-120940819D01*
X96870121Y-120875524D01*
X97055752Y-120884612D01*
X97120563Y-120903731D01*
X97232415Y-120960993D01*
X97307658Y-121050018D01*
X97352296Y-121185333D01*
X97372334Y-121381464D01*
X97375042Y-121519339D01*
X97664212Y-121519339D01*
X97666918Y-121468788D01*
X97655136Y-121230543D01*
X97652146Y-121205018D01*
X97623755Y-121046009D01*
X97574932Y-120932265D01*
X97487204Y-120824404D01*
X97461121Y-120797827D01*
X97359223Y-120704100D01*
X97271978Y-120656393D01*
X97161585Y-120639435D01*
X97064620Y-120637666D01*
X96913910Y-120644854D01*
X96808751Y-120675158D01*
X96710619Y-120741691D01*
X96678640Y-120769052D01*
X96529000Y-120900437D01*
X96529000Y-120769052D01*
X96519376Y-120677056D01*
X96473255Y-120642290D01*
X96402000Y-120637666D01*
X96275000Y-120637666D01*
X96275000Y-121580243D01*
G37*
X96275000Y-121580243D02*
X96276317Y-121920925D01*
X96281816Y-122188326D01*
X96293818Y-122393812D01*
X96314643Y-122548750D01*
X96346613Y-122664505D01*
X96392049Y-122752443D01*
X96453272Y-122823931D01*
X96532603Y-122890333D01*
X96544334Y-122899160D01*
X96672347Y-122957075D01*
X96849720Y-122991264D01*
X97043937Y-122999565D01*
X97222485Y-122979816D01*
X97315757Y-122950454D01*
X97443335Y-122867584D01*
X97551756Y-122754101D01*
X97618663Y-122636440D01*
X97629666Y-122579290D01*
X97599771Y-122514103D01*
X97523776Y-122498231D01*
X97422222Y-122528759D01*
X97315649Y-122602774D01*
X97291000Y-122627333D01*
X97193629Y-122712306D01*
X97088084Y-122748491D01*
X96982372Y-122754333D01*
X96814312Y-122733346D01*
X96700934Y-122680250D01*
X96627490Y-122580345D01*
X96568658Y-122426201D01*
X96534570Y-122248124D01*
X96530010Y-122168993D01*
X96532794Y-122111067D01*
X96553703Y-122103780D01*
X96609051Y-122150984D01*
X96657647Y-122199134D01*
X96827090Y-122316031D01*
X97019069Y-122365399D01*
X97213700Y-122349896D01*
X97391105Y-122272181D01*
X97531400Y-122134913D01*
X97565824Y-122077663D01*
X97619487Y-121920396D01*
X97654111Y-121708089D01*
X97664212Y-121519339D01*
X97375042Y-121519339D01*
X97373522Y-121694673D01*
X97363993Y-121809043D01*
X97340141Y-121886132D01*
X97295650Y-121949626D01*
X97246645Y-122000867D01*
X97156511Y-122080378D01*
X97074039Y-122112942D01*
X96959017Y-122111712D01*
X96920232Y-122107639D01*
X96749567Y-122066427D01*
X96652865Y-121998974D01*
X96596246Y-121881900D01*
X96558040Y-121707920D01*
X96541868Y-121503490D01*
X96551350Y-121295069D01*
X96553820Y-121275243D01*
X96611790Y-121075668D01*
X96719678Y-120940819D01*
X96870121Y-120875524D01*
X97055752Y-120884612D01*
X97120563Y-120903731D01*
X97232415Y-120960993D01*
X97307658Y-121050018D01*
X97352296Y-121185333D01*
X97372334Y-121381464D01*
X97375042Y-121519339D01*
X97664212Y-121519339D01*
X97666918Y-121468788D01*
X97655136Y-121230543D01*
X97652146Y-121205018D01*
X97623755Y-121046009D01*
X97574932Y-120932265D01*
X97487204Y-120824404D01*
X97461121Y-120797827D01*
X97359223Y-120704100D01*
X97271978Y-120656393D01*
X97161585Y-120639435D01*
X97064620Y-120637666D01*
X96913910Y-120644854D01*
X96808751Y-120675158D01*
X96710619Y-120741691D01*
X96678640Y-120769052D01*
X96529000Y-120900437D01*
X96529000Y-120769052D01*
X96519376Y-120677056D01*
X96473255Y-120642290D01*
X96402000Y-120637666D01*
X96275000Y-120637666D01*
X96275000Y-121580243D01*
D11*
X114866667Y-118485000D02*
X114866667Y-119755000D01*
X116220000Y-119685000D02*
X114866667Y-119685000D01*
X116220000Y-119565000D02*
X114866667Y-119565000D01*
X116220000Y-119445000D02*
X114866667Y-119445000D01*
X116220000Y-119325000D02*
X114866667Y-119325000D01*
X116220000Y-119205000D02*
X114866667Y-119205000D01*
X116220000Y-119085000D02*
X114866667Y-119085000D01*
X116220000Y-118965000D02*
X114866667Y-118965000D01*
X116220000Y-118845000D02*
X114866667Y-118845000D01*
X116220000Y-118725000D02*
X114866667Y-118725000D01*
X116220000Y-118605000D02*
X114866667Y-118605000D01*
X112160000Y-118485000D02*
X116220000Y-118485000D01*
X112160000Y-119755000D02*
X112160000Y-118485000D01*
X116220000Y-119755000D02*
X112160000Y-119755000D01*
X116220000Y-118485000D02*
X116220000Y-119755000D01*
X114866667Y-115945000D02*
X114866667Y-117215000D01*
X116220000Y-117145000D02*
X114866667Y-117145000D01*
X116220000Y-117025000D02*
X114866667Y-117025000D01*
X116220000Y-116905000D02*
X114866667Y-116905000D01*
X116220000Y-116785000D02*
X114866667Y-116785000D01*
X116220000Y-116665000D02*
X114866667Y-116665000D01*
X116220000Y-116545000D02*
X114866667Y-116545000D01*
X116220000Y-116425000D02*
X114866667Y-116425000D01*
X116220000Y-116305000D02*
X114866667Y-116305000D01*
X116220000Y-116185000D02*
X114866667Y-116185000D01*
X116220000Y-116065000D02*
X114866667Y-116065000D01*
X112160000Y-115945000D02*
X116220000Y-115945000D01*
X112160000Y-117215000D02*
X112160000Y-115945000D01*
X116220000Y-117215000D02*
X112160000Y-117215000D01*
X116220000Y-115945000D02*
X116220000Y-117215000D01*
X114866667Y-113405000D02*
X114866667Y-114675000D01*
X116220000Y-114605000D02*
X114866667Y-114605000D01*
X116220000Y-114485000D02*
X114866667Y-114485000D01*
X116220000Y-114365000D02*
X114866667Y-114365000D01*
X116220000Y-114245000D02*
X114866667Y-114245000D01*
X116220000Y-114125000D02*
X114866667Y-114125000D01*
X116220000Y-114005000D02*
X114866667Y-114005000D01*
X116220000Y-113885000D02*
X114866667Y-113885000D01*
X116220000Y-113765000D02*
X114866667Y-113765000D01*
X116220000Y-113645000D02*
X114866667Y-113645000D01*
X116220000Y-113525000D02*
X114866667Y-113525000D01*
X112160000Y-113405000D02*
X116220000Y-113405000D01*
X112160000Y-114675000D02*
X112160000Y-113405000D01*
X116220000Y-114675000D02*
X112160000Y-114675000D01*
X116220000Y-113405000D02*
X116220000Y-114675000D01*
X114866667Y-110865000D02*
X114866667Y-112135000D01*
X116220000Y-112065000D02*
X114866667Y-112065000D01*
X116220000Y-111945000D02*
X114866667Y-111945000D01*
X116220000Y-111825000D02*
X114866667Y-111825000D01*
X116220000Y-111705000D02*
X114866667Y-111705000D01*
X116220000Y-111585000D02*
X114866667Y-111585000D01*
X116220000Y-111465000D02*
X114866667Y-111465000D01*
X116220000Y-111345000D02*
X114866667Y-111345000D01*
X116220000Y-111225000D02*
X114866667Y-111225000D01*
X116220000Y-111105000D02*
X114866667Y-111105000D01*
X116220000Y-110985000D02*
X114866667Y-110985000D01*
X112160000Y-110865000D02*
X116220000Y-110865000D01*
X112160000Y-112135000D02*
X112160000Y-110865000D01*
X116220000Y-112135000D02*
X112160000Y-112135000D01*
X116220000Y-110865000D02*
X116220000Y-112135000D01*
X119380000Y-108840000D02*
X119380000Y-110223000D01*
X119380000Y-108840000D02*
X117996000Y-108840000D01*
X109240000Y-109080000D02*
X109240000Y-121540000D01*
X119140000Y-109080000D02*
X119140000Y-121540000D01*
X119140000Y-121540000D02*
X109240000Y-121540000D01*
X119140000Y-109080000D02*
X109240000Y-109080000D01*
X149170000Y-138000000D02*
X149170000Y-139330000D01*
X149170000Y-139330000D02*
X150500000Y-139330000D01*
X151770000Y-139330000D02*
X154370000Y-139330000D01*
X154370000Y-136670000D02*
X154370000Y-139330000D01*
X151770000Y-136670000D02*
X154370000Y-136670000D01*
X151770000Y-136670000D02*
X151770000Y-139330000D01*
X206890000Y-90140000D02*
X208140000Y-90140000D01*
X206890000Y-91390000D02*
X206890000Y-90140000D01*
X211300000Y-99500000D02*
X210800000Y-99500000D01*
X210800000Y-99600000D02*
X211300000Y-99600000D01*
X210800000Y-99400000D02*
X210800000Y-99600000D01*
X211300000Y-99400000D02*
X210800000Y-99400000D01*
X211300000Y-97500000D02*
X210800000Y-97500000D01*
X210800000Y-97600000D02*
X211300000Y-97600000D01*
X210800000Y-97400000D02*
X210800000Y-97600000D01*
X211300000Y-97400000D02*
X210800000Y-97400000D01*
X211300000Y-95500000D02*
X210800000Y-95500000D01*
X210800000Y-95600000D02*
X211300000Y-95600000D01*
X210800000Y-95400000D02*
X210800000Y-95600000D01*
X211300000Y-95400000D02*
X210800000Y-95400000D01*
X211300000Y-93500000D02*
X210800000Y-93500000D01*
X210800000Y-93600000D02*
X211300000Y-93600000D01*
X210800000Y-93400000D02*
X210800000Y-93600000D01*
X211300000Y-93400000D02*
X210800000Y-93400000D01*
X209800000Y-102560000D02*
X209800000Y-101950000D01*
X208500000Y-102560000D02*
X208500000Y-101950000D01*
X209800000Y-90440000D02*
X209800000Y-91050000D01*
X208500000Y-90440000D02*
X208500000Y-91050000D01*
X207800000Y-100000000D02*
X207190000Y-100000000D01*
X207800000Y-101950000D02*
X207800000Y-100000000D01*
X211300000Y-101950000D02*
X207800000Y-101950000D01*
X211300000Y-91050000D02*
X211300000Y-101950000D01*
X207800000Y-91050000D02*
X211300000Y-91050000D01*
X207800000Y-93000000D02*
X207800000Y-91050000D01*
X207190000Y-93000000D02*
X207800000Y-93000000D01*
X207090000Y-92200000D02*
X207090000Y-91900000D01*
X206990000Y-91900000D02*
X207190000Y-91900000D01*
X206990000Y-92200000D02*
X206990000Y-91900000D01*
X207190000Y-92200000D02*
X206990000Y-92200000D01*
X207190000Y-102560000D02*
X207190000Y-90440000D01*
X211910000Y-102560000D02*
X207190000Y-102560000D01*
X211910000Y-90440000D02*
X211910000Y-102560000D01*
X207190000Y-90440000D02*
X211910000Y-90440000D01*
X144050000Y-142670000D02*
X144050000Y-144000000D01*
X145380000Y-142670000D02*
X144050000Y-142670000D01*
X146650000Y-142670000D02*
X146650000Y-145330000D01*
X146650000Y-145330000D02*
X154330000Y-145330000D01*
X146650000Y-142670000D02*
X154330000Y-142670000D01*
X154330000Y-142670000D02*
X154330000Y-145330000D01*
D12*
X157790000Y-31150000D02*
X157790000Y-29900000D01*
X148210000Y-31150000D02*
X148210000Y-29900000D01*
X157790000Y-25900000D02*
X157790000Y-27180000D01*
X148210000Y-25900000D02*
X157790000Y-25900000D01*
X148210000Y-27180000D02*
X148210000Y-25900000D01*
D11*
X195330000Y-98830000D02*
X195330000Y-97500000D01*
X194000000Y-98830000D02*
X195330000Y-98830000D01*
X195330000Y-96230000D02*
X195330000Y-93630000D01*
X192730000Y-96230000D02*
X195330000Y-96230000D01*
X192730000Y-98830000D02*
X192730000Y-96230000D01*
X195330000Y-93630000D02*
X169810000Y-93630000D01*
X192730000Y-98830000D02*
X169810000Y-98830000D01*
X169810000Y-98830000D02*
X169810000Y-93630000D01*
X223390000Y-91140000D02*
X224640000Y-91140000D01*
X223390000Y-92390000D02*
X223390000Y-91140000D01*
X227800000Y-98500000D02*
X227300000Y-98500000D01*
X227300000Y-98600000D02*
X227800000Y-98600000D01*
X227300000Y-98400000D02*
X227300000Y-98600000D01*
X227800000Y-98400000D02*
X227300000Y-98400000D01*
X227800000Y-96500000D02*
X227300000Y-96500000D01*
X227300000Y-96600000D02*
X227800000Y-96600000D01*
X227300000Y-96400000D02*
X227300000Y-96600000D01*
X227800000Y-96400000D02*
X227300000Y-96400000D01*
X227800000Y-94500000D02*
X227300000Y-94500000D01*
X227300000Y-94600000D02*
X227800000Y-94600000D01*
X227300000Y-94400000D02*
X227300000Y-94600000D01*
X227800000Y-94400000D02*
X227300000Y-94400000D01*
X226300000Y-101560000D02*
X226300000Y-100950000D01*
X225000000Y-101560000D02*
X225000000Y-100950000D01*
X226300000Y-91440000D02*
X226300000Y-92050000D01*
X225000000Y-91440000D02*
X225000000Y-92050000D01*
X224300000Y-99000000D02*
X223690000Y-99000000D01*
X224300000Y-100950000D02*
X224300000Y-99000000D01*
X227800000Y-100950000D02*
X224300000Y-100950000D01*
X227800000Y-92050000D02*
X227800000Y-100950000D01*
X224300000Y-92050000D02*
X227800000Y-92050000D01*
X224300000Y-94000000D02*
X224300000Y-92050000D01*
X223690000Y-94000000D02*
X224300000Y-94000000D01*
X223590000Y-93200000D02*
X223590000Y-92900000D01*
X223490000Y-92900000D02*
X223690000Y-92900000D01*
X223490000Y-93200000D02*
X223490000Y-92900000D01*
X223690000Y-93200000D02*
X223490000Y-93200000D01*
X223690000Y-101560000D02*
X223690000Y-91440000D01*
X228410000Y-101560000D02*
X223690000Y-101560000D01*
X228410000Y-91440000D02*
X228410000Y-101560000D01*
X223690000Y-91440000D02*
X228410000Y-91440000D01*
X240170000Y-101830000D02*
X241500000Y-101830000D01*
X240170000Y-100500000D02*
X240170000Y-101830000D01*
X240170000Y-99230000D02*
X242830000Y-99230000D01*
X242830000Y-99230000D02*
X242830000Y-91550000D01*
X240170000Y-99230000D02*
X240170000Y-91550000D01*
X240170000Y-91550000D02*
X242830000Y-91550000D01*
D13*
X72000000Y-56000000D02*
X72000000Y-55500000D01*
X63500000Y-49300000D02*
X66500000Y-49300000D01*
X63000000Y-49800000D02*
X63500000Y-49300000D01*
X63500000Y-53800000D02*
X66000000Y-53800000D01*
X72000000Y-51900000D02*
X72000000Y-51300000D01*
X63000000Y-53300000D02*
X63500000Y-53800000D01*
X72000000Y-51300000D02*
X67500000Y-51300000D01*
X67000000Y-50800000D02*
X67000000Y-49800000D01*
X66500000Y-49300000D02*
X67000000Y-49800000D01*
X67500000Y-56000000D02*
X72000000Y-56000000D01*
X67500000Y-55300000D02*
X67500000Y-56000000D01*
X67500000Y-51300000D02*
G75*
G02*
X67000000Y-50800000I0J500000D01*
G01*
X66000000Y-53800000D02*
G75*
G02*
X67500000Y-55300000I0J-1500000D01*
G01*
X128000000Y-67000000D02*
X128000000Y-66500000D01*
X119500000Y-60300000D02*
X122500000Y-60300000D01*
X119000000Y-60800000D02*
X119500000Y-60300000D01*
X119500000Y-64800000D02*
X122000000Y-64800000D01*
X128000000Y-62900000D02*
X128000000Y-62300000D01*
X119000000Y-64300000D02*
X119500000Y-64800000D01*
X128000000Y-62300000D02*
X123500000Y-62300000D01*
X123000000Y-61800000D02*
X123000000Y-60800000D01*
X122500000Y-60300000D02*
X123000000Y-60800000D01*
X123500000Y-67000000D02*
X128000000Y-67000000D01*
X123500000Y-66300000D02*
X123500000Y-67000000D01*
X123500000Y-62300000D02*
G75*
G02*
X123000000Y-61800000I0J500000D01*
G01*
X122000000Y-64800000D02*
G75*
G02*
X123500000Y-66300000I0J-1500000D01*
G01*
X248000000Y-45000000D02*
X248000000Y-44500000D01*
X239500000Y-38300000D02*
X242500000Y-38300000D01*
X239000000Y-38800000D02*
X239500000Y-38300000D01*
X239500000Y-42800000D02*
X242000000Y-42800000D01*
X248000000Y-40900000D02*
X248000000Y-40300000D01*
X239000000Y-42300000D02*
X239500000Y-42800000D01*
X248000000Y-40300000D02*
X243500000Y-40300000D01*
X243000000Y-39800000D02*
X243000000Y-38800000D01*
X242500000Y-38300000D02*
X243000000Y-38800000D01*
X243500000Y-45000000D02*
X248000000Y-45000000D01*
X243500000Y-44300000D02*
X243500000Y-45000000D01*
X243500000Y-40300000D02*
G75*
G02*
X243000000Y-39800000I0J500000D01*
G01*
X242000000Y-42800000D02*
G75*
G02*
X243500000Y-44300000I0J-1500000D01*
G01*
X219000000Y-45000000D02*
X219000000Y-44500000D01*
X210500000Y-38300000D02*
X213500000Y-38300000D01*
X210000000Y-38800000D02*
X210500000Y-38300000D01*
X210500000Y-42800000D02*
X213000000Y-42800000D01*
X219000000Y-40900000D02*
X219000000Y-40300000D01*
X210000000Y-42300000D02*
X210500000Y-42800000D01*
X219000000Y-40300000D02*
X214500000Y-40300000D01*
X214000000Y-39800000D02*
X214000000Y-38800000D01*
X213500000Y-38300000D02*
X214000000Y-38800000D01*
X214500000Y-45000000D02*
X219000000Y-45000000D01*
X214500000Y-44300000D02*
X214500000Y-45000000D01*
X214500000Y-40300000D02*
G75*
G02*
X214000000Y-39800000I0J500000D01*
G01*
X213000000Y-42800000D02*
G75*
G02*
X214500000Y-44300000I0J-1500000D01*
G01*
X190000000Y-45000000D02*
X190000000Y-44500000D01*
X181500000Y-38300000D02*
X184500000Y-38300000D01*
X181000000Y-38800000D02*
X181500000Y-38300000D01*
X181500000Y-42800000D02*
X184000000Y-42800000D01*
X190000000Y-40900000D02*
X190000000Y-40300000D01*
X181000000Y-42300000D02*
X181500000Y-42800000D01*
X190000000Y-40300000D02*
X185500000Y-40300000D01*
X185000000Y-39800000D02*
X185000000Y-38800000D01*
X184500000Y-38300000D02*
X185000000Y-38800000D01*
X185500000Y-45000000D02*
X190000000Y-45000000D01*
X185500000Y-44300000D02*
X185500000Y-45000000D01*
X185500000Y-40300000D02*
G75*
G02*
X185000000Y-39800000I0J500000D01*
G01*
X184000000Y-42800000D02*
G75*
G02*
X185500000Y-44300000I0J-1500000D01*
G01*
X163000000Y-56000000D02*
X163000000Y-55500000D01*
X154500000Y-49300000D02*
X157500000Y-49300000D01*
X154000000Y-49800000D02*
X154500000Y-49300000D01*
X154500000Y-53800000D02*
X157000000Y-53800000D01*
X163000000Y-51900000D02*
X163000000Y-51300000D01*
X154000000Y-53300000D02*
X154500000Y-53800000D01*
X163000000Y-51300000D02*
X158500000Y-51300000D01*
X158000000Y-50800000D02*
X158000000Y-49800000D01*
X157500000Y-49300000D02*
X158000000Y-49800000D01*
X158500000Y-56000000D02*
X163000000Y-56000000D01*
X158500000Y-55300000D02*
X158500000Y-56000000D01*
X158500000Y-51300000D02*
G75*
G02*
X158000000Y-50800000I0J500000D01*
G01*
X157000000Y-53800000D02*
G75*
G02*
X158500000Y-55300000I0J-1500000D01*
G01*
X242000000Y-76000000D02*
X242000000Y-75500000D01*
X233500000Y-69300000D02*
X236500000Y-69300000D01*
X233000000Y-69800000D02*
X233500000Y-69300000D01*
X233500000Y-73800000D02*
X236000000Y-73800000D01*
X242000000Y-71900000D02*
X242000000Y-71300000D01*
X233000000Y-73300000D02*
X233500000Y-73800000D01*
X242000000Y-71300000D02*
X237500000Y-71300000D01*
X237000000Y-70800000D02*
X237000000Y-69800000D01*
X236500000Y-69300000D02*
X237000000Y-69800000D01*
X237500000Y-76000000D02*
X242000000Y-76000000D01*
X237500000Y-75300000D02*
X237500000Y-76000000D01*
X237500000Y-71300000D02*
G75*
G02*
X237000000Y-70800000I0J500000D01*
G01*
X236000000Y-73800000D02*
G75*
G02*
X237500000Y-75300000I0J-1500000D01*
G01*
X213000000Y-76000000D02*
X213000000Y-75500000D01*
X204500000Y-69300000D02*
X207500000Y-69300000D01*
X204000000Y-69800000D02*
X204500000Y-69300000D01*
X204500000Y-73800000D02*
X207000000Y-73800000D01*
X213000000Y-71900000D02*
X213000000Y-71300000D01*
X204000000Y-73300000D02*
X204500000Y-73800000D01*
X213000000Y-71300000D02*
X208500000Y-71300000D01*
X208000000Y-70800000D02*
X208000000Y-69800000D01*
X207500000Y-69300000D02*
X208000000Y-69800000D01*
X208500000Y-76000000D02*
X213000000Y-76000000D01*
X208500000Y-75300000D02*
X208500000Y-76000000D01*
X208500000Y-71300000D02*
G75*
G02*
X208000000Y-70800000I0J500000D01*
G01*
X207000000Y-73800000D02*
G75*
G02*
X208500000Y-75300000I0J-1500000D01*
G01*
X184000000Y-76000000D02*
X184000000Y-75500000D01*
X175500000Y-69300000D02*
X178500000Y-69300000D01*
X175000000Y-69800000D02*
X175500000Y-69300000D01*
X175500000Y-73800000D02*
X178000000Y-73800000D01*
X184000000Y-71900000D02*
X184000000Y-71300000D01*
X175000000Y-73300000D02*
X175500000Y-73800000D01*
X184000000Y-71300000D02*
X179500000Y-71300000D01*
X179000000Y-70800000D02*
X179000000Y-69800000D01*
X178500000Y-69300000D02*
X179000000Y-69800000D01*
X179500000Y-76000000D02*
X184000000Y-76000000D01*
X179500000Y-75300000D02*
X179500000Y-76000000D01*
X179500000Y-71300000D02*
G75*
G02*
X179000000Y-70800000I0J500000D01*
G01*
X178000000Y-73800000D02*
G75*
G02*
X179500000Y-75300000I0J-1500000D01*
G01*
X158000000Y-87000000D02*
X158000000Y-86500000D01*
X149500000Y-80300000D02*
X152500000Y-80300000D01*
X149000000Y-80800000D02*
X149500000Y-80300000D01*
X149500000Y-84800000D02*
X152000000Y-84800000D01*
X158000000Y-82900000D02*
X158000000Y-82300000D01*
X149000000Y-84300000D02*
X149500000Y-84800000D01*
X158000000Y-82300000D02*
X153500000Y-82300000D01*
X153000000Y-81800000D02*
X153000000Y-80800000D01*
X152500000Y-80300000D02*
X153000000Y-80800000D01*
X153500000Y-87000000D02*
X158000000Y-87000000D01*
X153500000Y-86300000D02*
X153500000Y-87000000D01*
X153500000Y-82300000D02*
G75*
G02*
X153000000Y-81800000I0J500000D01*
G01*
X152000000Y-84800000D02*
G75*
G02*
X153500000Y-86300000I0J-1500000D01*
G01*
X102000000Y-56000000D02*
X102000000Y-55500000D01*
X93500000Y-49300000D02*
X96500000Y-49300000D01*
X93000000Y-49800000D02*
X93500000Y-49300000D01*
X93500000Y-53800000D02*
X96000000Y-53800000D01*
X102000000Y-51900000D02*
X102000000Y-51300000D01*
X93000000Y-53300000D02*
X93500000Y-53800000D01*
X102000000Y-51300000D02*
X97500000Y-51300000D01*
X97000000Y-50800000D02*
X97000000Y-49800000D01*
X96500000Y-49300000D02*
X97000000Y-49800000D01*
X97500000Y-56000000D02*
X102000000Y-56000000D01*
X97500000Y-55300000D02*
X97500000Y-56000000D01*
X97500000Y-51300000D02*
G75*
G02*
X97000000Y-50800000I0J500000D01*
G01*
X96000000Y-53800000D02*
G75*
G02*
X97500000Y-55300000I0J-1500000D01*
G01*
X146000000Y-121000000D02*
X146000000Y-120500000D01*
X137500000Y-114300000D02*
X140500000Y-114300000D01*
X137000000Y-114800000D02*
X137500000Y-114300000D01*
X137500000Y-118800000D02*
X140000000Y-118800000D01*
X146000000Y-116900000D02*
X146000000Y-116300000D01*
X137000000Y-118300000D02*
X137500000Y-118800000D01*
X146000000Y-116300000D02*
X141500000Y-116300000D01*
X141000000Y-115800000D02*
X141000000Y-114800000D01*
X140500000Y-114300000D02*
X141000000Y-114800000D01*
X141500000Y-121000000D02*
X146000000Y-121000000D01*
X141500000Y-120300000D02*
X141500000Y-121000000D01*
X141500000Y-116300000D02*
G75*
G02*
X141000000Y-115800000I0J500000D01*
G01*
X140000000Y-118800000D02*
G75*
G02*
X141500000Y-120300000I0J-1500000D01*
G01*
X117142380Y-108484761D02*
X116999523Y-108532380D01*
X116761428Y-108532380D01*
X116666190Y-108484761D01*
X116618571Y-108437142D01*
X116570952Y-108341904D01*
X116570952Y-108246666D01*
X116618571Y-108151428D01*
X116666190Y-108103809D01*
X116761428Y-108056190D01*
X116951904Y-108008571D01*
X117047142Y-107960952D01*
X117094761Y-107913333D01*
X117142380Y-107818095D01*
X117142380Y-107722857D01*
X117094761Y-107627619D01*
X117047142Y-107580000D01*
X116951904Y-107532380D01*
X116713809Y-107532380D01*
X116570952Y-107580000D01*
X116237619Y-107532380D02*
X115999523Y-108532380D01*
X115809047Y-107818095D01*
X115618571Y-108532380D01*
X115380476Y-107532380D01*
X115237619Y-108627619D02*
X114475714Y-108627619D01*
X114237619Y-108532380D02*
X114237619Y-107532380D01*
X113999523Y-107532380D01*
X113856666Y-107580000D01*
X113761428Y-107675238D01*
X113713809Y-107770476D01*
X113666190Y-107960952D01*
X113666190Y-108103809D01*
X113713809Y-108294285D01*
X113761428Y-108389523D01*
X113856666Y-108484761D01*
X113999523Y-108532380D01*
X114237619Y-108532380D01*
X113237619Y-108532380D02*
X113237619Y-107532380D01*
X112761428Y-108532380D02*
X112761428Y-107532380D01*
X112380476Y-107532380D01*
X112285238Y-107580000D01*
X112237619Y-107627619D01*
X112190000Y-107722857D01*
X112190000Y-107865714D01*
X112237619Y-107960952D01*
X112285238Y-108008571D01*
X112380476Y-108056190D01*
X112761428Y-108056190D01*
X111237619Y-108532380D02*
X111809047Y-108532380D01*
X111523333Y-108532380D02*
X111523333Y-107532380D01*
X111618571Y-107675238D01*
X111713809Y-107770476D01*
X111809047Y-107818095D01*
X147182380Y-135285714D02*
X147896666Y-135285714D01*
X148039523Y-135238095D01*
X148134761Y-135142857D01*
X148182380Y-135000000D01*
X148182380Y-134904761D01*
X148277619Y-135523809D02*
X148277619Y-136285714D01*
X148134761Y-136476190D02*
X148182380Y-136619047D01*
X148182380Y-136857142D01*
X148134761Y-136952380D01*
X148087142Y-137000000D01*
X147991904Y-137047619D01*
X147896666Y-137047619D01*
X147801428Y-137000000D01*
X147753809Y-136952380D01*
X147706190Y-136857142D01*
X147658571Y-136666666D01*
X147610952Y-136571428D01*
X147563333Y-136523809D01*
X147468095Y-136476190D01*
X147372857Y-136476190D01*
X147277619Y-136523809D01*
X147230000Y-136571428D01*
X147182380Y-136666666D01*
X147182380Y-136904761D01*
X147230000Y-137047619D01*
X147182380Y-137666666D02*
X147182380Y-137857142D01*
X147230000Y-137952380D01*
X147325238Y-138047619D01*
X147515714Y-138095238D01*
X147849047Y-138095238D01*
X148039523Y-138047619D01*
X148134761Y-137952380D01*
X148182380Y-137857142D01*
X148182380Y-137666666D01*
X148134761Y-137571428D01*
X148039523Y-137476190D01*
X147849047Y-137428571D01*
X147515714Y-137428571D01*
X147325238Y-137476190D01*
X147230000Y-137571428D01*
X147182380Y-137666666D01*
X148087142Y-139095238D02*
X148134761Y-139047619D01*
X148182380Y-138904761D01*
X148182380Y-138809523D01*
X148134761Y-138666666D01*
X148039523Y-138571428D01*
X147944285Y-138523809D01*
X147753809Y-138476190D01*
X147610952Y-138476190D01*
X147420476Y-138523809D01*
X147325238Y-138571428D01*
X147230000Y-138666666D01*
X147182380Y-138809523D01*
X147182380Y-138904761D01*
X147230000Y-139047619D01*
X147277619Y-139095238D01*
X148182380Y-139523809D02*
X147182380Y-139523809D01*
X147182380Y-139761904D01*
X147230000Y-139904761D01*
X147325238Y-140000000D01*
X147420476Y-140047619D01*
X147610952Y-140095238D01*
X147753809Y-140095238D01*
X147944285Y-140047619D01*
X148039523Y-140000000D01*
X148134761Y-139904761D01*
X148182380Y-139761904D01*
X148182380Y-139523809D01*
X148182380Y-141047619D02*
X148182380Y-140476190D01*
X148182380Y-140761904D02*
X147182380Y-140761904D01*
X147325238Y-140666666D01*
X147420476Y-140571428D01*
X147468095Y-140476190D01*
X205552380Y-93928571D02*
X206266666Y-93928571D01*
X206409523Y-93880952D01*
X206504761Y-93785714D01*
X206552380Y-93642857D01*
X206552380Y-93547619D01*
X206647619Y-94166666D02*
X206647619Y-94928571D01*
X206552380Y-95166666D02*
X205552380Y-95166666D01*
X205552380Y-95547619D01*
X205600000Y-95642857D01*
X205647619Y-95690476D01*
X205742857Y-95738095D01*
X205885714Y-95738095D01*
X205980952Y-95690476D01*
X206028571Y-95642857D01*
X206076190Y-95547619D01*
X206076190Y-95166666D01*
X206552380Y-96642857D02*
X206552380Y-96166666D01*
X205552380Y-96166666D01*
X206028571Y-96976190D02*
X206028571Y-97309523D01*
X206552380Y-97452380D02*
X206552380Y-96976190D01*
X205552380Y-96976190D01*
X205552380Y-97452380D01*
X206552380Y-97880952D02*
X205552380Y-97880952D01*
X205552380Y-98119047D01*
X205600000Y-98261904D01*
X205695238Y-98357142D01*
X205790476Y-98404761D01*
X205980952Y-98452380D01*
X206123809Y-98452380D01*
X206314285Y-98404761D01*
X206409523Y-98357142D01*
X206504761Y-98261904D01*
X206552380Y-98119047D01*
X206552380Y-97880952D01*
X206552380Y-99404761D02*
X206552380Y-98833333D01*
X206552380Y-99119047D02*
X205552380Y-99119047D01*
X205695238Y-99023809D01*
X205790476Y-98928571D01*
X205838095Y-98833333D01*
X142502380Y-141238095D02*
X143216666Y-141238095D01*
X143359523Y-141190476D01*
X143454761Y-141095238D01*
X143502380Y-140952380D01*
X143502380Y-140857142D01*
X143597619Y-141476190D02*
X143597619Y-142238095D01*
X143502380Y-142476190D02*
X142502380Y-142476190D01*
X142502380Y-142714285D01*
X142550000Y-142857142D01*
X142645238Y-142952380D01*
X142740476Y-143000000D01*
X142930952Y-143047619D01*
X143073809Y-143047619D01*
X143264285Y-143000000D01*
X143359523Y-142952380D01*
X143454761Y-142857142D01*
X143502380Y-142714285D01*
X143502380Y-142476190D01*
X143502380Y-143476190D02*
X142502380Y-143476190D01*
X142502380Y-143857142D01*
X142550000Y-143952380D01*
X142597619Y-144000000D01*
X142692857Y-144047619D01*
X142835714Y-144047619D01*
X142930952Y-144000000D01*
X142978571Y-143952380D01*
X143026190Y-143857142D01*
X143026190Y-143476190D01*
X143454761Y-144428571D02*
X143502380Y-144571428D01*
X143502380Y-144809523D01*
X143454761Y-144904761D01*
X143407142Y-144952380D01*
X143311904Y-145000000D01*
X143216666Y-145000000D01*
X143121428Y-144952380D01*
X143073809Y-144904761D01*
X143026190Y-144809523D01*
X142978571Y-144619047D01*
X142930952Y-144523809D01*
X142883333Y-144476190D01*
X142788095Y-144428571D01*
X142692857Y-144428571D01*
X142597619Y-144476190D01*
X142550000Y-144523809D01*
X142502380Y-144619047D01*
X142502380Y-144857142D01*
X142550000Y-145000000D01*
X142502380Y-145333333D02*
X143502380Y-145571428D01*
X142788095Y-145761904D01*
X143502380Y-145952380D01*
X142502380Y-146190476D01*
X143502380Y-147095238D02*
X143502380Y-146523809D01*
X143502380Y-146809523D02*
X142502380Y-146809523D01*
X142645238Y-146714285D01*
X142740476Y-146619047D01*
X142788095Y-146523809D01*
X151508333Y-36087380D02*
X151508333Y-36801666D01*
X151555952Y-36944523D01*
X151651190Y-37039761D01*
X151794047Y-37087380D01*
X151889285Y-37087380D01*
X150508333Y-37087380D02*
X151079761Y-37087380D01*
X150794047Y-37087380D02*
X150794047Y-36087380D01*
X150889285Y-36230238D01*
X150984523Y-36325476D01*
X151079761Y-36373095D01*
X184976190Y-99452380D02*
X184976190Y-100166666D01*
X185023809Y-100309523D01*
X185119047Y-100404761D01*
X185261904Y-100452380D01*
X185357142Y-100452380D01*
X184738095Y-100547619D02*
X183976190Y-100547619D01*
X183738095Y-100452380D02*
X183738095Y-99452380D01*
X183404761Y-100166666D01*
X183071428Y-99452380D01*
X183071428Y-100452380D01*
X182642857Y-100166666D02*
X182166666Y-100166666D01*
X182738095Y-100452380D02*
X182404761Y-99452380D01*
X182071428Y-100452380D01*
X181738095Y-100452380D02*
X181738095Y-99452380D01*
X181261904Y-100452380D02*
X181261904Y-99452380D01*
X180690476Y-100452380D01*
X180690476Y-99452380D01*
X179690476Y-100452380D02*
X180261904Y-100452380D01*
X179976190Y-100452380D02*
X179976190Y-99452380D01*
X180071428Y-99595238D01*
X180166666Y-99690476D01*
X180261904Y-99738095D01*
X222052380Y-95785714D02*
X222766666Y-95785714D01*
X222909523Y-95738095D01*
X223004761Y-95642857D01*
X223052380Y-95500000D01*
X223052380Y-95404761D01*
X223147619Y-96023809D02*
X223147619Y-96785714D01*
X222385714Y-97452380D02*
X223052380Y-97452380D01*
X222004761Y-97214285D02*
X222719047Y-96976190D01*
X222719047Y-97595238D01*
X238452380Y-94285714D02*
X239166666Y-94285714D01*
X239309523Y-94238095D01*
X239404761Y-94142857D01*
X239452380Y-94000000D01*
X239452380Y-93904761D01*
X239547619Y-94523809D02*
X239547619Y-95285714D01*
X238452380Y-95523809D02*
X239261904Y-95523809D01*
X239357142Y-95571428D01*
X239404761Y-95619047D01*
X239452380Y-95714285D01*
X239452380Y-95904761D01*
X239404761Y-96000000D01*
X239357142Y-96047619D01*
X239261904Y-96095238D01*
X238452380Y-96095238D01*
X239404761Y-96523809D02*
X239452380Y-96666666D01*
X239452380Y-96904761D01*
X239404761Y-97000000D01*
X239357142Y-97047619D01*
X239261904Y-97095238D01*
X239166666Y-97095238D01*
X239071428Y-97047619D01*
X239023809Y-97000000D01*
X238976190Y-96904761D01*
X238928571Y-96714285D01*
X238880952Y-96619047D01*
X238833333Y-96571428D01*
X238738095Y-96523809D01*
X238642857Y-96523809D01*
X238547619Y-96571428D01*
X238500000Y-96619047D01*
X238452380Y-96714285D01*
X238452380Y-96952380D01*
X238500000Y-97095238D01*
X238928571Y-97857142D02*
X238976190Y-98000000D01*
X239023809Y-98047619D01*
X239119047Y-98095238D01*
X239261904Y-98095238D01*
X239357142Y-98047619D01*
X239404761Y-98000000D01*
X239452380Y-97904761D01*
X239452380Y-97523809D01*
X238452380Y-97523809D01*
X238452380Y-97857142D01*
X238500000Y-97952380D01*
X238547619Y-98000000D01*
X238642857Y-98047619D01*
X238738095Y-98047619D01*
X238833333Y-98000000D01*
X238880952Y-97952380D01*
X238928571Y-97857142D01*
X238928571Y-97523809D01*
X239452380Y-99047619D02*
X239452380Y-98476190D01*
X239452380Y-98761904D02*
X238452380Y-98761904D01*
X238595238Y-98666666D01*
X238690476Y-98571428D01*
X238738095Y-98476190D01*
X72564047Y-50284761D02*
X72421190Y-50332380D01*
X72183095Y-50332380D01*
X72087857Y-50284761D01*
X72040238Y-50237142D01*
X71992619Y-50141904D01*
X71992619Y-50046666D01*
X72040238Y-49951428D01*
X72087857Y-49903809D01*
X72183095Y-49856190D01*
X72373571Y-49808571D01*
X72468809Y-49760952D01*
X72516428Y-49713333D01*
X72564047Y-49618095D01*
X72564047Y-49522857D01*
X72516428Y-49427619D01*
X72468809Y-49380000D01*
X72373571Y-49332380D01*
X72135476Y-49332380D01*
X71992619Y-49380000D01*
X71659285Y-49332380D02*
X71421190Y-50332380D01*
X71230714Y-49618095D01*
X71040238Y-50332380D01*
X70802142Y-49332380D01*
X70659285Y-50427619D02*
X69897380Y-50427619D01*
X69183095Y-50332380D02*
X69659285Y-50332380D01*
X69659285Y-49332380D01*
X68468809Y-50284761D02*
X68564047Y-50332380D01*
X68754523Y-50332380D01*
X68849761Y-50284761D01*
X68897380Y-50189523D01*
X68897380Y-49808571D01*
X68849761Y-49713333D01*
X68754523Y-49665714D01*
X68564047Y-49665714D01*
X68468809Y-49713333D01*
X68421190Y-49808571D01*
X68421190Y-49903809D01*
X68897380Y-49999047D01*
X68135476Y-49665714D02*
X67754523Y-49665714D01*
X67992619Y-50332380D02*
X67992619Y-49475238D01*
X67945000Y-49380000D01*
X67849761Y-49332380D01*
X67754523Y-49332380D01*
X67564047Y-49665714D02*
X67183095Y-49665714D01*
X67421190Y-49332380D02*
X67421190Y-50189523D01*
X67373571Y-50284761D01*
X67278333Y-50332380D01*
X67183095Y-50332380D01*
X66325952Y-50332380D02*
X66897380Y-50332380D01*
X66611666Y-50332380D02*
X66611666Y-49332380D01*
X66706904Y-49475238D01*
X66802142Y-49570476D01*
X66897380Y-49618095D01*
X129087857Y-61284761D02*
X128945000Y-61332380D01*
X128706904Y-61332380D01*
X128611666Y-61284761D01*
X128564047Y-61237142D01*
X128516428Y-61141904D01*
X128516428Y-61046666D01*
X128564047Y-60951428D01*
X128611666Y-60903809D01*
X128706904Y-60856190D01*
X128897380Y-60808571D01*
X128992619Y-60760952D01*
X129040238Y-60713333D01*
X129087857Y-60618095D01*
X129087857Y-60522857D01*
X129040238Y-60427619D01*
X128992619Y-60380000D01*
X128897380Y-60332380D01*
X128659285Y-60332380D01*
X128516428Y-60380000D01*
X128183095Y-60332380D02*
X127945000Y-61332380D01*
X127754523Y-60618095D01*
X127564047Y-61332380D01*
X127325952Y-60332380D01*
X127183095Y-61427619D02*
X126421190Y-61427619D01*
X125611666Y-61332380D02*
X125945000Y-60856190D01*
X126183095Y-61332380D02*
X126183095Y-60332380D01*
X125802142Y-60332380D01*
X125706904Y-60380000D01*
X125659285Y-60427619D01*
X125611666Y-60522857D01*
X125611666Y-60665714D01*
X125659285Y-60760952D01*
X125706904Y-60808571D01*
X125802142Y-60856190D01*
X126183095Y-60856190D01*
X125183095Y-61332380D02*
X125183095Y-60665714D01*
X125183095Y-60332380D02*
X125230714Y-60380000D01*
X125183095Y-60427619D01*
X125135476Y-60380000D01*
X125183095Y-60332380D01*
X125183095Y-60427619D01*
X124278333Y-60665714D02*
X124278333Y-61475238D01*
X124325952Y-61570476D01*
X124373571Y-61618095D01*
X124468809Y-61665714D01*
X124611666Y-61665714D01*
X124706904Y-61618095D01*
X124278333Y-61284761D02*
X124373571Y-61332380D01*
X124564047Y-61332380D01*
X124659285Y-61284761D01*
X124706904Y-61237142D01*
X124754523Y-61141904D01*
X124754523Y-60856190D01*
X124706904Y-60760952D01*
X124659285Y-60713333D01*
X124564047Y-60665714D01*
X124373571Y-60665714D01*
X124278333Y-60713333D01*
X123802142Y-61332380D02*
X123802142Y-60332380D01*
X123373571Y-61332380D02*
X123373571Y-60808571D01*
X123421190Y-60713333D01*
X123516428Y-60665714D01*
X123659285Y-60665714D01*
X123754523Y-60713333D01*
X123802142Y-60760952D01*
X123040238Y-60665714D02*
X122659285Y-60665714D01*
X122897380Y-60332380D02*
X122897380Y-61189523D01*
X122849761Y-61284761D01*
X122754523Y-61332380D01*
X122659285Y-61332380D01*
X121802142Y-61332380D02*
X122373571Y-61332380D01*
X122087857Y-61332380D02*
X122087857Y-60332380D01*
X122183095Y-60475238D01*
X122278333Y-60570476D01*
X122373571Y-60618095D01*
X247659285Y-39284761D02*
X247516428Y-39332380D01*
X247278333Y-39332380D01*
X247183095Y-39284761D01*
X247135476Y-39237142D01*
X247087857Y-39141904D01*
X247087857Y-39046666D01*
X247135476Y-38951428D01*
X247183095Y-38903809D01*
X247278333Y-38856190D01*
X247468809Y-38808571D01*
X247564047Y-38760952D01*
X247611666Y-38713333D01*
X247659285Y-38618095D01*
X247659285Y-38522857D01*
X247611666Y-38427619D01*
X247564047Y-38380000D01*
X247468809Y-38332380D01*
X247230714Y-38332380D01*
X247087857Y-38380000D01*
X246754523Y-38332380D02*
X246516428Y-39332380D01*
X246325952Y-38618095D01*
X246135476Y-39332380D01*
X245897380Y-38332380D01*
X245754523Y-39427619D02*
X244992619Y-39427619D01*
X244754523Y-39332380D02*
X244754523Y-38332380D01*
X244373571Y-38332380D01*
X244278333Y-38380000D01*
X244230714Y-38427619D01*
X244183095Y-38522857D01*
X244183095Y-38665714D01*
X244230714Y-38760952D01*
X244278333Y-38808571D01*
X244373571Y-38856190D01*
X244754523Y-38856190D01*
X243325952Y-38665714D02*
X243325952Y-39332380D01*
X243564047Y-38284761D02*
X243802142Y-38999047D01*
X243183095Y-38999047D01*
X218659285Y-39284761D02*
X218516428Y-39332380D01*
X218278333Y-39332380D01*
X218183095Y-39284761D01*
X218135476Y-39237142D01*
X218087857Y-39141904D01*
X218087857Y-39046666D01*
X218135476Y-38951428D01*
X218183095Y-38903809D01*
X218278333Y-38856190D01*
X218468809Y-38808571D01*
X218564047Y-38760952D01*
X218611666Y-38713333D01*
X218659285Y-38618095D01*
X218659285Y-38522857D01*
X218611666Y-38427619D01*
X218564047Y-38380000D01*
X218468809Y-38332380D01*
X218230714Y-38332380D01*
X218087857Y-38380000D01*
X217754523Y-38332380D02*
X217516428Y-39332380D01*
X217325952Y-38618095D01*
X217135476Y-39332380D01*
X216897380Y-38332380D01*
X216754523Y-39427619D02*
X215992619Y-39427619D01*
X215754523Y-39332380D02*
X215754523Y-38332380D01*
X215373571Y-38332380D01*
X215278333Y-38380000D01*
X215230714Y-38427619D01*
X215183095Y-38522857D01*
X215183095Y-38665714D01*
X215230714Y-38760952D01*
X215278333Y-38808571D01*
X215373571Y-38856190D01*
X215754523Y-38856190D01*
X214849761Y-38332380D02*
X214230714Y-38332380D01*
X214564047Y-38713333D01*
X214421190Y-38713333D01*
X214325952Y-38760952D01*
X214278333Y-38808571D01*
X214230714Y-38903809D01*
X214230714Y-39141904D01*
X214278333Y-39237142D01*
X214325952Y-39284761D01*
X214421190Y-39332380D01*
X214706904Y-39332380D01*
X214802142Y-39284761D01*
X214849761Y-39237142D01*
X189659285Y-39284761D02*
X189516428Y-39332380D01*
X189278333Y-39332380D01*
X189183095Y-39284761D01*
X189135476Y-39237142D01*
X189087857Y-39141904D01*
X189087857Y-39046666D01*
X189135476Y-38951428D01*
X189183095Y-38903809D01*
X189278333Y-38856190D01*
X189468809Y-38808571D01*
X189564047Y-38760952D01*
X189611666Y-38713333D01*
X189659285Y-38618095D01*
X189659285Y-38522857D01*
X189611666Y-38427619D01*
X189564047Y-38380000D01*
X189468809Y-38332380D01*
X189230714Y-38332380D01*
X189087857Y-38380000D01*
X188754523Y-38332380D02*
X188516428Y-39332380D01*
X188325952Y-38618095D01*
X188135476Y-39332380D01*
X187897380Y-38332380D01*
X187754523Y-39427619D02*
X186992619Y-39427619D01*
X186754523Y-39332380D02*
X186754523Y-38332380D01*
X186373571Y-38332380D01*
X186278333Y-38380000D01*
X186230714Y-38427619D01*
X186183095Y-38522857D01*
X186183095Y-38665714D01*
X186230714Y-38760952D01*
X186278333Y-38808571D01*
X186373571Y-38856190D01*
X186754523Y-38856190D01*
X185802142Y-38427619D02*
X185754523Y-38380000D01*
X185659285Y-38332380D01*
X185421190Y-38332380D01*
X185325952Y-38380000D01*
X185278333Y-38427619D01*
X185230714Y-38522857D01*
X185230714Y-38618095D01*
X185278333Y-38760952D01*
X185849761Y-39332380D01*
X185230714Y-39332380D01*
X162659285Y-50284761D02*
X162516428Y-50332380D01*
X162278333Y-50332380D01*
X162183095Y-50284761D01*
X162135476Y-50237142D01*
X162087857Y-50141904D01*
X162087857Y-50046666D01*
X162135476Y-49951428D01*
X162183095Y-49903809D01*
X162278333Y-49856190D01*
X162468809Y-49808571D01*
X162564047Y-49760952D01*
X162611666Y-49713333D01*
X162659285Y-49618095D01*
X162659285Y-49522857D01*
X162611666Y-49427619D01*
X162564047Y-49380000D01*
X162468809Y-49332380D01*
X162230714Y-49332380D01*
X162087857Y-49380000D01*
X161754523Y-49332380D02*
X161516428Y-50332380D01*
X161325952Y-49618095D01*
X161135476Y-50332380D01*
X160897380Y-49332380D01*
X160754523Y-50427619D02*
X159992619Y-50427619D01*
X159754523Y-50332380D02*
X159754523Y-49332380D01*
X159373571Y-49332380D01*
X159278333Y-49380000D01*
X159230714Y-49427619D01*
X159183095Y-49522857D01*
X159183095Y-49665714D01*
X159230714Y-49760952D01*
X159278333Y-49808571D01*
X159373571Y-49856190D01*
X159754523Y-49856190D01*
X158230714Y-50332380D02*
X158802142Y-50332380D01*
X158516428Y-50332380D02*
X158516428Y-49332380D01*
X158611666Y-49475238D01*
X158706904Y-49570476D01*
X158802142Y-49618095D01*
X241659285Y-70284761D02*
X241516428Y-70332380D01*
X241278333Y-70332380D01*
X241183095Y-70284761D01*
X241135476Y-70237142D01*
X241087857Y-70141904D01*
X241087857Y-70046666D01*
X241135476Y-69951428D01*
X241183095Y-69903809D01*
X241278333Y-69856190D01*
X241468809Y-69808571D01*
X241564047Y-69760952D01*
X241611666Y-69713333D01*
X241659285Y-69618095D01*
X241659285Y-69522857D01*
X241611666Y-69427619D01*
X241564047Y-69380000D01*
X241468809Y-69332380D01*
X241230714Y-69332380D01*
X241087857Y-69380000D01*
X240754523Y-69332380D02*
X240516428Y-70332380D01*
X240325952Y-69618095D01*
X240135476Y-70332380D01*
X239897380Y-69332380D01*
X239754523Y-70427619D02*
X238992619Y-70427619D01*
X238754523Y-70332380D02*
X238754523Y-69332380D01*
X238183095Y-70332380D02*
X238611666Y-69760952D01*
X238183095Y-69332380D02*
X238754523Y-69903809D01*
X237325952Y-69665714D02*
X237325952Y-70332380D01*
X237564047Y-69284761D02*
X237802142Y-69999047D01*
X237183095Y-69999047D01*
X212659285Y-70284761D02*
X212516428Y-70332380D01*
X212278333Y-70332380D01*
X212183095Y-70284761D01*
X212135476Y-70237142D01*
X212087857Y-70141904D01*
X212087857Y-70046666D01*
X212135476Y-69951428D01*
X212183095Y-69903809D01*
X212278333Y-69856190D01*
X212468809Y-69808571D01*
X212564047Y-69760952D01*
X212611666Y-69713333D01*
X212659285Y-69618095D01*
X212659285Y-69522857D01*
X212611666Y-69427619D01*
X212564047Y-69380000D01*
X212468809Y-69332380D01*
X212230714Y-69332380D01*
X212087857Y-69380000D01*
X211754523Y-69332380D02*
X211516428Y-70332380D01*
X211325952Y-69618095D01*
X211135476Y-70332380D01*
X210897380Y-69332380D01*
X210754523Y-70427619D02*
X209992619Y-70427619D01*
X209754523Y-70332380D02*
X209754523Y-69332380D01*
X209183095Y-70332380D02*
X209611666Y-69760952D01*
X209183095Y-69332380D02*
X209754523Y-69903809D01*
X208849761Y-69332380D02*
X208230714Y-69332380D01*
X208564047Y-69713333D01*
X208421190Y-69713333D01*
X208325952Y-69760952D01*
X208278333Y-69808571D01*
X208230714Y-69903809D01*
X208230714Y-70141904D01*
X208278333Y-70237142D01*
X208325952Y-70284761D01*
X208421190Y-70332380D01*
X208706904Y-70332380D01*
X208802142Y-70284761D01*
X208849761Y-70237142D01*
X183659285Y-70284761D02*
X183516428Y-70332380D01*
X183278333Y-70332380D01*
X183183095Y-70284761D01*
X183135476Y-70237142D01*
X183087857Y-70141904D01*
X183087857Y-70046666D01*
X183135476Y-69951428D01*
X183183095Y-69903809D01*
X183278333Y-69856190D01*
X183468809Y-69808571D01*
X183564047Y-69760952D01*
X183611666Y-69713333D01*
X183659285Y-69618095D01*
X183659285Y-69522857D01*
X183611666Y-69427619D01*
X183564047Y-69380000D01*
X183468809Y-69332380D01*
X183230714Y-69332380D01*
X183087857Y-69380000D01*
X182754523Y-69332380D02*
X182516428Y-70332380D01*
X182325952Y-69618095D01*
X182135476Y-70332380D01*
X181897380Y-69332380D01*
X181754523Y-70427619D02*
X180992619Y-70427619D01*
X180754523Y-70332380D02*
X180754523Y-69332380D01*
X180183095Y-70332380D02*
X180611666Y-69760952D01*
X180183095Y-69332380D02*
X180754523Y-69903809D01*
X179802142Y-69427619D02*
X179754523Y-69380000D01*
X179659285Y-69332380D01*
X179421190Y-69332380D01*
X179325952Y-69380000D01*
X179278333Y-69427619D01*
X179230714Y-69522857D01*
X179230714Y-69618095D01*
X179278333Y-69760952D01*
X179849761Y-70332380D01*
X179230714Y-70332380D01*
X157659285Y-81284761D02*
X157516428Y-81332380D01*
X157278333Y-81332380D01*
X157183095Y-81284761D01*
X157135476Y-81237142D01*
X157087857Y-81141904D01*
X157087857Y-81046666D01*
X157135476Y-80951428D01*
X157183095Y-80903809D01*
X157278333Y-80856190D01*
X157468809Y-80808571D01*
X157564047Y-80760952D01*
X157611666Y-80713333D01*
X157659285Y-80618095D01*
X157659285Y-80522857D01*
X157611666Y-80427619D01*
X157564047Y-80380000D01*
X157468809Y-80332380D01*
X157230714Y-80332380D01*
X157087857Y-80380000D01*
X156754523Y-80332380D02*
X156516428Y-81332380D01*
X156325952Y-80618095D01*
X156135476Y-81332380D01*
X155897380Y-80332380D01*
X155754523Y-81427619D02*
X154992619Y-81427619D01*
X154754523Y-81332380D02*
X154754523Y-80332380D01*
X154183095Y-81332380D02*
X154611666Y-80760952D01*
X154183095Y-80332380D02*
X154754523Y-80903809D01*
X153230714Y-81332380D02*
X153802142Y-81332380D01*
X153516428Y-81332380D02*
X153516428Y-80332380D01*
X153611666Y-80475238D01*
X153706904Y-80570476D01*
X153802142Y-80618095D01*
X103087857Y-50284761D02*
X102945000Y-50332380D01*
X102706904Y-50332380D01*
X102611666Y-50284761D01*
X102564047Y-50237142D01*
X102516428Y-50141904D01*
X102516428Y-50046666D01*
X102564047Y-49951428D01*
X102611666Y-49903809D01*
X102706904Y-49856190D01*
X102897380Y-49808571D01*
X102992619Y-49760952D01*
X103040238Y-49713333D01*
X103087857Y-49618095D01*
X103087857Y-49522857D01*
X103040238Y-49427619D01*
X102992619Y-49380000D01*
X102897380Y-49332380D01*
X102659285Y-49332380D01*
X102516428Y-49380000D01*
X102183095Y-49332380D02*
X101945000Y-50332380D01*
X101754523Y-49618095D01*
X101564047Y-50332380D01*
X101325952Y-49332380D01*
X101183095Y-50427619D02*
X100421190Y-50427619D01*
X100183095Y-50332380D02*
X100183095Y-49332380D01*
X99945000Y-49332380D01*
X99802142Y-49380000D01*
X99706904Y-49475238D01*
X99659285Y-49570476D01*
X99611666Y-49760952D01*
X99611666Y-49903809D01*
X99659285Y-50094285D01*
X99706904Y-50189523D01*
X99802142Y-50284761D01*
X99945000Y-50332380D01*
X100183095Y-50332380D01*
X99040238Y-50332380D02*
X99135476Y-50284761D01*
X99183095Y-50237142D01*
X99230714Y-50141904D01*
X99230714Y-49856190D01*
X99183095Y-49760952D01*
X99135476Y-49713333D01*
X99040238Y-49665714D01*
X98897380Y-49665714D01*
X98802142Y-49713333D01*
X98754523Y-49760952D01*
X98706904Y-49856190D01*
X98706904Y-50141904D01*
X98754523Y-50237142D01*
X98802142Y-50284761D01*
X98897380Y-50332380D01*
X99040238Y-50332380D01*
X98373571Y-49665714D02*
X98183095Y-50332380D01*
X97992619Y-49856190D01*
X97802142Y-50332380D01*
X97611666Y-49665714D01*
X97230714Y-49665714D02*
X97230714Y-50332380D01*
X97230714Y-49760952D02*
X97183095Y-49713333D01*
X97087857Y-49665714D01*
X96945000Y-49665714D01*
X96849761Y-49713333D01*
X96802142Y-49808571D01*
X96802142Y-50332380D01*
X95802142Y-50332380D02*
X96373571Y-50332380D01*
X96087857Y-50332380D02*
X96087857Y-49332380D01*
X96183095Y-49475238D01*
X96278333Y-49570476D01*
X96373571Y-49618095D01*
X146135476Y-115284761D02*
X145992619Y-115332380D01*
X145754523Y-115332380D01*
X145659285Y-115284761D01*
X145611666Y-115237142D01*
X145564047Y-115141904D01*
X145564047Y-115046666D01*
X145611666Y-114951428D01*
X145659285Y-114903809D01*
X145754523Y-114856190D01*
X145945000Y-114808571D01*
X146040238Y-114760952D01*
X146087857Y-114713333D01*
X146135476Y-114618095D01*
X146135476Y-114522857D01*
X146087857Y-114427619D01*
X146040238Y-114380000D01*
X145945000Y-114332380D01*
X145706904Y-114332380D01*
X145564047Y-114380000D01*
X145230714Y-114332380D02*
X144992619Y-115332380D01*
X144802142Y-114618095D01*
X144611666Y-115332380D01*
X144373571Y-114332380D01*
X144230714Y-115427619D02*
X143468809Y-115427619D01*
X143230714Y-114332380D02*
X143230714Y-115141904D01*
X143183095Y-115237142D01*
X143135476Y-115284761D01*
X143040238Y-115332380D01*
X142849761Y-115332380D01*
X142754523Y-115284761D01*
X142706904Y-115237142D01*
X142659285Y-115141904D01*
X142659285Y-114332380D01*
X142183095Y-114665714D02*
X142183095Y-115665714D01*
X142183095Y-114713333D02*
X142087857Y-114665714D01*
X141897380Y-114665714D01*
X141802142Y-114713333D01*
X141754523Y-114760952D01*
X141706904Y-114856190D01*
X141706904Y-115141904D01*
X141754523Y-115237142D01*
X141802142Y-115284761D01*
X141897380Y-115332380D01*
X142087857Y-115332380D01*
X142183095Y-115284761D01*
X140754523Y-115332380D02*
X141325952Y-115332380D01*
X141040238Y-115332380D02*
X141040238Y-114332380D01*
X141135476Y-114475238D01*
X141230714Y-114570476D01*
X141325952Y-114618095D01*
M02*
