M48
; DRILL file {KiCad 5.1.9+dfsg1-1} date Fri Oct  1 14:27:11 2021
; FORMAT={-:-/ absolute / inch / decimal}
; #@! TF.CreationDate,2021-10-01T14:27:11-05:00
; #@! TF.GenerationSoftware,Kicad,Pcbnew,5.1.9+dfsg1-1
; #@! TF.FileFunction,Plated,1,2,PTH
FMAT,2
INCH
T1C0.0236
T2C0.0295
T3C0.0315
T4C0.0354
T5C0.0394
T6C0.0433
T7C0.0500
%
G90
G05
T2
X8.2283Y-3.6417
X8.2283Y-3.7205
X8.2283Y-3.7992
X8.2283Y-3.878
X8.2283Y-3.9567
X8.878Y-3.6811
X8.878Y-3.7598
X8.878Y-3.8386
X8.878Y-3.9173
T3
X4.3457Y-4.3898
X4.3457Y-4.4898
X4.3457Y-4.5898
X4.3457Y-4.6898
X4.6457Y-4.3898
X4.6457Y-4.4898
X4.6457Y-4.5898
X4.6457Y-4.6898
T4
X7.4016Y-1.1402
X7.4016Y-1.2402
X7.8543Y-1.1402
X7.8543Y-1.2402
X8.3268Y-1.1402
X8.3268Y-1.2402
X8.7992Y-1.1402
X8.7992Y-1.2402
T5
X5.7236Y-5.6693
X5.8236Y-5.6693
X5.9236Y-5.6693
X5.9252Y-5.4331
X6.0236Y-5.6693
X6.0252Y-5.4331
X6.7378Y-3.7386
X6.7378Y-3.8386
X6.8378Y-3.7386
X6.8378Y-3.8386
X6.9378Y-3.7386
X6.9378Y-3.8386
X7.0378Y-3.7386
X7.0378Y-3.8386
X7.1378Y-3.7386
X7.1378Y-3.8386
X7.2378Y-3.7386
X7.2378Y-3.8386
X7.3378Y-3.7386
X7.3378Y-3.8386
X7.4378Y-3.7386
X7.4378Y-3.8386
X7.5378Y-3.7386
X7.5378Y-3.8386
X7.6378Y-3.7386
X7.6378Y-3.8386
X9.5079Y-3.6567
X9.5079Y-3.7567
X9.5079Y-3.8567
X9.5079Y-3.9567
T6
X2.3228Y-1.2992
X2.3228Y-1.4764
X2.5787Y-1.2992
X2.5787Y-1.4764
X2.7165Y-1.2992
X2.7165Y-1.4764
X2.9724Y-1.2992
X2.9724Y-1.4764
X3.1102Y-1.2992
X3.1102Y-1.4764
X3.3661Y-1.2992
X3.3661Y-1.4764
X3.878Y-1.2992
X3.878Y-1.4764
X4.1339Y-1.2992
X4.1339Y-1.4764
X4.2717Y-1.2992
X4.2717Y-1.4764
X4.5276Y-1.2992
X4.5276Y-1.4764
X4.6654Y-1.2992
X4.6654Y-1.4764
X4.9213Y-1.2992
X4.9213Y-1.4764
T7
X2.3622Y-2.4134
X2.5591Y-2.4961
X3.5433Y-2.4134
X3.7402Y-2.4961
X4.5669Y-2.8465
X4.7638Y-2.9291
X5.2756Y-4.9724
X5.4724Y-5.0551
X5.748Y-3.6339
X5.9449Y-2.4134
X5.9449Y-3.7165
X6.1417Y-2.4961
X6.7717Y-3.2008
X6.9685Y-3.2835
X7.0079Y-1.9803
X7.2047Y-2.063
X7.9134Y-3.2008
X8.1102Y-3.2835
X8.1496Y-1.9803
X8.3465Y-2.063
X9.0551Y-3.2008
X9.252Y-3.2835
X9.2913Y-1.9803
X9.4882Y-2.063
T1
G00X5.8535Y-1.1063
M15
G01X5.8535Y-1.1378
M16
G05
G00X5.8535Y-1.265
M15
G01X5.8535Y-1.3083
M16
G05
G00X6.1937Y-1.1063
M15
G01X6.1937Y-1.1378
M16
G05
G00X6.1937Y-1.265
M15
G01X6.1937Y-1.3083
M16
G05
T0
M30
