M48
; DRILL file {KiCad 5.1.9+dfsg1-1} date Fri Oct  1 14:27:11 2021
; FORMAT={-:-/ absolute / inch / decimal}
; #@! TF.CreationDate,2021-10-01T14:27:11-05:00
; #@! TF.GenerationSoftware,Kicad,Pcbnew,5.1.9+dfsg1-1
; #@! TF.FileFunction,NonPlated,1,2,NPTH
FMAT,2
INCH
T1C0.0256
T2C0.0670
T3C0.1181
T4C0.1350
%
G90
G05
T1
X5.9098Y-1.2669
X6.1374Y-1.2669
T2
X2.3425Y-2.2638
X2.7756Y-2.2638
X3.5236Y-2.2638
X3.9567Y-2.2638
X4.5472Y-2.6969
X4.9803Y-2.6969
X5.2559Y-4.8228
X5.689Y-4.8228
X5.7283Y-3.4843
X5.9252Y-2.2638
X6.1614Y-3.4843
X6.3583Y-2.2638
X6.752Y-3.0512
X6.9882Y-1.8307
X7.185Y-3.0512
X7.4213Y-1.8307
X7.8937Y-3.0512
X8.1299Y-1.8307
X8.3268Y-3.0512
X8.563Y-1.8307
X9.0354Y-3.0512
X9.2717Y-1.8307
X9.4685Y-3.0512
X9.7047Y-1.8307
T3
X2.0866Y-1.2598
X2.0866Y-5.9843
X2.5591Y-2.0295
X2.7559Y-2.1161
X3.7402Y-2.0295
X3.937Y-2.1161
X4.7638Y-2.4626
X4.9606Y-2.5492
X5.3937Y-3.937
X5.4724Y-4.5886
X5.6693Y-4.6752
X5.9449Y-3.25
X6.0236Y-5.9843
X6.1417Y-2.0295
X6.1417Y-3.3366
X6.3386Y-2.1161
X6.9685Y-2.8169
X7.1654Y-2.9035
X7.2047Y-1.5965
X7.4016Y-1.6831
X8.1102Y-2.8169
X8.3071Y-2.9035
X8.3465Y-1.5965
X8.5433Y-1.6831
X9.252Y-2.8169
X9.4488Y-2.9035
X9.4882Y-1.5965
X9.685Y-1.6831
X9.9606Y-1.2598
X9.9606Y-4.0157
T4
X2.5591Y-2.2638
X3.7402Y-2.2638
X4.7638Y-2.6969
X5.4724Y-4.8228
X5.9449Y-3.4843
X6.1417Y-2.2638
X6.9685Y-3.0512
X7.2047Y-1.8307
X8.1102Y-3.0512
X8.3465Y-1.8307
X9.252Y-3.0512
X9.4882Y-1.8307
T0
M30
